<?xml version="1.0" encoding="utf-8"?>
<!-- Generator: Adobe Illustrator 24.2.3, SVG Export Plug-In . SVG Version: 6.00 Build 0)  -->
<svg version="1.1" id="Layer_1" xmlns="http://www.w3.org/2000/svg" xmlns:xlink="http://www.w3.org/1999/xlink" x="0px" y="0px"
	 viewBox="0 0 158 158" style="enable-background:new 0 0 158 158;" xml:space="preserve">
<style type="text/css">
	.st0{fill:none;stroke:#2D3E50;stroke-width:6;stroke-miterlimit:10;}
	.st1{fill:none;stroke:#2D3E50;stroke-width:6;stroke-linejoin:round;stroke-miterlimit:10;}
	.st2{fill-rule:evenodd;clip-rule:evenodd;fill:none;stroke:#2D3E50;stroke-width:6;stroke-linejoin:round;stroke-miterlimit:10;}
	.st3{fill-rule:evenodd;clip-rule:evenodd;fill:none;stroke:#2D3E50;stroke-width:6;stroke-miterlimit:10;}
	.st4{fill:#FFFFFF;stroke:#2D3E50;stroke-width:6;stroke-miterlimit:10;}
	.st5{fill:none;stroke:#2D3E50;stroke-width:6;stroke-linecap:round;stroke-linejoin:round;stroke-miterlimit:10;}
	.st6{fill:#2D3E50;}
	.st7{fill:none;stroke:#2D3E50;stroke-width:6;stroke-linecap:round;stroke-miterlimit:10;}
	.st8{fill:none;stroke:#2D3E50;stroke-width:6;stroke-miterlimit:10;stroke-dasharray:9;}
</style>
<g>
	<g>
		<g>
			<path class="st0" d="M23.245,129.16c-0.532-5.97-0.188-12.105,3.555-16.597c5.205-6.248,14.723-7.005,21.983-9.435
				c3.938-1.32,9.743-2.535,12.278-6.075c1.628-2.28,1.628-5.333,1.185-8.1c-0.653-4.065-2.13-8.003-4.305-11.497
				c-2.115-3.405-5.25-6.007-7.298-9.45c-0.833-1.402-1.283-3.21-0.93-4.838c0.39-1.815,1.642-1.935,2.542-3.232
				c0.255-0.36,0.307-0.825,0.337-1.268c0.45-6.248-1.717-12.638,0.668-18.705c1.83-4.658,6.21-7.943,10.935-9.593
				c4.718-1.65,9.803-1.89,14.805-2.025c5.002,0.135,10.088,0.375,14.805,2.025c4.725,1.65,9.105,4.935,10.935,9.593
				c2.385,6.068,0.218,12.458,0.668,18.705c0.03,0.443,0.082,0.908,0.338,1.268c0.9,1.298,2.152,1.417,2.542,3.232
				c0.353,1.628-0.097,3.435-0.93,4.838c-2.048,3.443-5.182,6.045-7.298,9.45c-2.175,3.495-3.652,7.433-4.305,11.497
				c-0.442,2.768-0.442,5.82,1.185,8.1c2.535,3.54,8.34,4.755,12.277,6.075c7.26,2.43,16.778,3.188,21.983,9.435
				c3.742,4.493,4.087,10.628,3.555,16.597"/>
		</g>
		<line class="st0" x1="78.5" y1="136.315" x2="78.833" y2="113.164"/>
		<line class="st0" x1="101.5" y1="100.476" x2="78.833" y2="113.164"/>
		<line class="st0" x1="57.088" y1="100.188" x2="78.833" y2="113.164"/>
	</g>
	<circle class="st0" cx="79" cy="79" r="75"/>
</g>
</svg>
