<?xml version="1.0" encoding="utf-8"?>
<!-- Generator: Adobe Illustrator 24.2.3, SVG Export Plug-In . SVG Version: 6.00 Build 0)  -->
<svg version="1.1" id="Layer_1" xmlns="http://www.w3.org/2000/svg" xmlns:xlink="http://www.w3.org/1999/xlink" x="0px" y="0px"
	 viewBox="0 0 158 158" style="enable-background:new 0 0 158 158;" xml:space="preserve">
<style type="text/css">
	.st0{fill:none;stroke:#2D3E50;stroke-width:6;stroke-miterlimit:10;}
	.st1{fill:none;stroke:#2D3E50;stroke-width:6;stroke-linejoin:round;stroke-miterlimit:10;}
	.st2{fill-rule:evenodd;clip-rule:evenodd;fill:none;stroke:#2D3E50;stroke-width:6;stroke-linejoin:round;stroke-miterlimit:10;}
	.st3{fill-rule:evenodd;clip-rule:evenodd;fill:none;stroke:#2D3E50;stroke-width:6;stroke-miterlimit:10;}
	.st4{fill:#FFFFFF;stroke:#2D3E50;stroke-width:6;stroke-miterlimit:10;}
	.st5{fill:none;stroke:#2D3E50;stroke-width:6;stroke-linecap:round;stroke-linejoin:round;stroke-miterlimit:10;}
	.st6{fill:#2D3E50;}
	.st7{fill:none;stroke:#2D3E50;stroke-width:6;stroke-linecap:round;stroke-miterlimit:10;}
	.st8{fill:none;stroke:#2D3E50;stroke-width:6;stroke-miterlimit:10;stroke-dasharray:9;}
</style>
<g>
	<path class="st1" d="M24.728,47.738c-5.101,0-9.24,4.14-9.24,9.24v36.961c0,5.101,4.14,9.24,9.24,9.24s9.24-4.14,9.24-9.24V56.978
		C33.968,51.873,29.829,47.738,24.728,47.738z"/>
	<path class="st1" d="M133.272,47.738c-5.101,0-9.24,4.14-9.24,9.24v36.961c0,5.101,4.14,9.24,9.24,9.24s9.24-4.14,9.24-9.24V56.978
		C142.512,51.873,138.373,47.738,133.272,47.738z"/>
	<path class="st1" d="M42.039,121.659h9.24v23.1c0,5.101,4.14,9.24,9.24,9.24s9.24-4.14,9.24-9.24v-23.1h18.48v23.1
		c0,5.101,4.14,9.24,9.24,9.24s9.24-4.14,9.24-9.24v-23.1h9.24V52.358H42.039V121.659z"/>
	<path class="st1" d="M42.031,44.287C42.031,23.87,58.583,7.318,79,7.318s36.969,16.551,36.969,36.969H42.031z"/>
	<line class="st5" x1="104.688" y1="4" x2="98.972" y2="13.177"/>
	<line class="st5" x1="53.312" y1="4" x2="59.028" y2="13.177"/>
	<circle class="st1" cx="65.14" cy="25.807" r="4.62"/>
	<circle class="st1" cx="92.86" cy="25.807" r="4.62"/>
</g>
</svg>
