<?xml version="1.0" encoding="utf-8"?>
<!-- Generator: Adobe Illustrator 24.2.3, SVG Export Plug-In . SVG Version: 6.00 Build 0)  -->
<svg version="1.1" id="Layer_1" xmlns="http://www.w3.org/2000/svg" xmlns:xlink="http://www.w3.org/1999/xlink" x="0px" y="0px"
	 viewBox="0 0 158 158" style="enable-background:new 0 0 158 158;" xml:space="preserve">
<style type="text/css">
	.st0{fill:#2D3E50;}
</style>
<g>
	<path class="st0" d="M79,1C35.99,1,1,35.99,1,79s34.99,78,78,78s78-34.99,78-78S122.01,1,79,1z M79,151c-39.701,0-72-32.299-72-72
		S39.299,7,79,7s72,32.299,72,72S118.701,151,79,151z"/>
	<path class="st0" d="M114.021,76.551H94.764v-37.47c0-1.657-1.343-3-3-3H66.236c-1.657,0-3,1.343-3,3v37.47H43.979
		c-2.728,0-5.165,1.628-6.209,4.148c-1.043,2.52-0.472,5.394,1.457,7.322l35.021,35.021c1.27,1.27,2.957,1.969,4.752,1.969
		s3.482-0.699,4.751-1.969l35.021-35.021c1.929-1.928,2.501-4.802,1.458-7.322C119.187,78.18,116.749,76.551,114.021,76.551z
		 M114.53,83.778L114.53,83.778l-35.022,35.022c-0.174,0.175-0.372,0.211-0.508,0.211s-0.335-0.037-0.51-0.211L43.469,83.779
		c-0.226-0.226-0.277-0.489-0.155-0.784s0.346-0.444,0.665-0.444h22.258c1.657,0,3-1.343,3-3v-37.47h19.527v37.47
		c0,1.657,1.343,3,3,3h22.258c0.319,0,0.543,0.149,0.665,0.444C114.809,83.289,114.756,83.553,114.53,83.778z"/>
</g>
</svg>
