<?xml version="1.0" encoding="utf-8"?>
<!-- Generator: Adobe Illustrator 24.2.3, SVG Export Plug-In . SVG Version: 6.00 Build 0)  -->
<svg version="1.1" id="Layer_1" xmlns="http://www.w3.org/2000/svg" xmlns:xlink="http://www.w3.org/1999/xlink" x="0px" y="0px"
	 viewBox="0 0 158 158" style="enable-background:new 0 0 158 158;" xml:space="preserve">
<style type="text/css">
	.st0{fill:#2D3E50;}
</style>
<g>
	<path class="st0" d="M79,1C35.99,1,1,35.99,1,79s34.99,78,78,78s78-34.99,78-78S122.01,1,79,1z M79,151c-39.701,0-72-32.299-72-72
		S39.299,7,79,7s72,32.299,72,72S118.701,151,79,151z"/>
	<path class="st0" d="M88.021,39.227c-1.928-1.929-4.803-2.5-7.322-1.457c-2.521,1.044-4.148,3.481-4.148,6.209v19.258h-37.47
		c-1.657,0-3,1.343-3,3v25.527c0,1.657,1.343,3,3,3h37.47v19.258c0,2.728,1.629,5.165,4.148,6.209
		c0.836,0.346,1.711,0.514,2.578,0.514c1.745,0,3.456-0.683,4.744-1.972l35.022-35.021c2.619-2.619,2.62-6.882,0-9.503
		L88.021,39.227z M118.802,79.509L83.779,114.53h-0.001c-0.226,0.226-0.491,0.278-0.783,0.156c-0.295-0.122-0.444-0.346-0.444-0.665
		V91.764c0-1.657-1.343-3-3-3h-37.47V69.236h37.47c1.657,0,3-1.343,3-3V43.979c0-0.319,0.149-0.543,0.444-0.665
		c0.296-0.124,0.559-0.07,0.784,0.155l35.021,35.021C119.082,78.771,119.082,79.228,118.802,79.509z"/>
</g>
</svg>
