<?xml version="1.0" encoding="utf-8"?>
<!-- Generator: Adobe Illustrator 24.2.3, SVG Export Plug-In . SVG Version: 6.00 Build 0)  -->
<svg version="1.1" id="Layer_1" xmlns="http://www.w3.org/2000/svg" xmlns:xlink="http://www.w3.org/1999/xlink" x="0px" y="0px"
	 viewBox="0 0 158 158" style="enable-background:new 0 0 158 158;" xml:space="preserve">
<style type="text/css">
	.st0{fill:#2D3E50;}
</style>
<g>
	<path class="st0" d="M79,1C35.99,1,1,35.99,1,79s34.99,78,78,78s78-34.99,78-78S122.01,1,79,1z M79,151c-39.701,0-72-32.299-72-72
		S39.299,7,79,7s72,32.299,72,72S118.701,151,79,151z"/>
	<path class="st0" d="M118.919,63.235h-37.47V43.978c0-2.728-1.629-5.165-4.149-6.208c-2.52-1.046-5.394-0.472-7.321,1.457
		L34.957,74.248c-2.62,2.62-2.62,6.883,0,9.503l35.021,35.021c0,0,0,0,0.001,0c1.288,1.289,2.999,1.972,4.744,1.972
		c0.866,0,1.741-0.168,2.577-0.515c2.521-1.043,4.149-3.48,4.149-6.208V94.764h37.47c1.657,0,3-1.343,3-3V66.235
		C121.919,64.578,120.576,63.235,118.919,63.235z M115.919,88.764h-37.47c-1.657,0-3,1.343-3,3v22.258
		c0,0.319-0.149,0.543-0.444,0.665c-0.296,0.121-0.559,0.068-0.783-0.156h-0.001L39.199,79.509c-0.174-0.175-0.211-0.373-0.211-0.51
		c0-0.136,0.037-0.334,0.211-0.509l35.022-35.021c0.146-0.146,0.309-0.22,0.485-0.22c0.095,0,0.194,0.021,0.298,0.063
		c0.295,0.122,0.444,0.346,0.444,0.665v22.258c0,1.657,1.343,3,3,3h37.47V88.764z"/>
</g>
</svg>
