<?xml version="1.0" encoding="utf-8"?>
<!-- Generator: Adobe Illustrator 24.2.3, SVG Export Plug-In . SVG Version: 6.00 Build 0)  -->
<svg version="1.1" id="Layer_1" xmlns="http://www.w3.org/2000/svg" xmlns:xlink="http://www.w3.org/1999/xlink" x="0px" y="0px"
	 viewBox="0 0 158 158" style="enable-background:new 0 0 158 158;" xml:space="preserve">
<style type="text/css">
	.st0{fill:#2D3E50;}
</style>
<g>
	<path class="st0" d="M75.828,154.418c-2.689,0.001-5.218-1.047-7.119-2.948L4.367,87.127C2.195,84.957,1,82.07,1,79
		s1.195-5.957,3.367-8.129L68.709,6.53c1.901-1.901,4.43-2.948,7.119-2.948c2.688,0,5.217,1.047,7.118,2.948l8.676,8.676
		c1.901,1.901,2.949,4.429,2.949,7.118s-1.048,5.217-2.949,7.118L58.267,62.797h88.666c5.551,0,10.067,4.517,10.067,10.067v12.27
		c0,5.551-4.517,10.067-10.067,10.067H58.267l33.355,33.355c3.926,3.925,3.926,10.312,0,14.236l-8.676,8.676
		C81.046,153.371,78.518,154.418,75.828,154.418z M72.951,147.228c0.769,0.768,1.79,1.19,2.876,1.19
		c1.087,0,2.108-0.423,2.876-1.191l8.677-8.676c0.768-0.769,1.191-1.79,1.191-2.876s-0.424-2.107-1.191-2.876L48.903,94.323
		c-0.858-0.857-1.115-2.148-0.65-3.27c0.464-1.121,1.559-1.852,2.771-1.852h95.908c2.243,0,4.067-1.824,4.067-4.067v-12.27
		c0-2.243-1.824-4.067-4.067-4.067H51.024c-1.213,0-2.308-0.73-2.771-1.852c-0.465-1.121-0.208-2.412,0.65-3.27L87.38,25.2
		c1.586-1.586,1.586-4.166,0-5.752l-8.676-8.676c-1.586-1.585-4.167-1.587-5.753,0L8.609,75.114C7.571,76.152,7,77.532,7,79
		s0.571,2.848,1.609,3.885L72.951,147.228z"/>
</g>
</svg>
