<?xml version="1.0" encoding="utf-8"?>
<!-- Generator: Adobe Illustrator 24.2.3, SVG Export Plug-In . SVG Version: 6.00 Build 0)  -->
<svg version="1.1" id="Layer_1" xmlns="http://www.w3.org/2000/svg" xmlns:xlink="http://www.w3.org/1999/xlink" x="0px" y="0px"
	 viewBox="0 0 158 158" style="enable-background:new 0 0 158 158;" xml:space="preserve">
<style type="text/css">
	.st0{fill:#2D3E50;}
</style>
<g>
	<path class="st0" d="M82.173,154.414c-2.578,0-5.156-0.981-7.119-2.944l-8.676-8.676c-3.926-3.925-3.926-10.312,0-14.236
		l33.355-33.355H11.067C5.517,95.202,1,90.685,1,85.134v-12.27c0-5.551,4.517-10.067,10.067-10.067h88.666L66.378,29.442
		c-1.901-1.901-2.949-4.429-2.949-7.118s1.048-5.217,2.949-7.118l8.676-8.676c3.926-3.924,10.313-3.926,14.237,0l64.342,64.342
		C155.805,73.043,157,75.929,157,79s-1.195,5.957-3.367,8.129L89.291,151.47C87.329,153.433,84.751,154.414,82.173,154.414z
		 M85.049,147.228l2.121,2.121L85.049,147.228l64.342-64.343C150.429,81.847,151,80.467,151,79s-0.571-2.848-1.609-3.885
		L85.049,10.772c-1.587-1.587-4.168-1.584-5.753,0.001l-8.676,8.675c-1.586,1.586-1.586,4.166,0,5.752l38.477,38.477
		c0.858,0.857,1.115,2.148,0.65,3.27c-0.464,1.121-1.559,1.852-2.771,1.852H11.067C8.824,68.797,7,70.622,7,72.865v12.27
		c0,2.243,1.824,4.067,4.067,4.067h95.908c1.213,0,2.308,0.73,2.771,1.852c0.465,1.121,0.208,2.412-0.65,3.27L70.62,132.799
		c-0.768,0.769-1.191,1.79-1.191,2.876s0.424,2.107,1.191,2.876l8.676,8.676C80.882,148.813,83.463,148.813,85.049,147.228z"/>
</g>
</svg>
