<?xml version="1.0" encoding="utf-8"?>
<!-- Generator: Adobe Illustrator 24.2.3, SVG Export Plug-In . SVG Version: 6.00 Build 0)  -->
<svg version="1.1" id="Layer_1" xmlns="http://www.w3.org/2000/svg" xmlns:xlink="http://www.w3.org/1999/xlink" x="0px" y="0px"
	 viewBox="0 0 158 158" style="enable-background:new 0 0 158 158;" xml:space="preserve">
<style type="text/css">
	.st0{fill:#2D3E50;}
</style>
<g>
	<path class="st0" d="M79.001,156.997c-2.944,0-5.887-1.12-8.128-3.361L6.532,89.293c-1.901-1.901-2.948-4.429-2.948-7.118
		s1.047-5.217,2.948-7.118l8.676-8.676c3.924-3.926,10.312-3.925,14.237-0.001l33.354,33.355V11.07
		C62.8,5.519,67.317,1.003,72.867,1.003h12.27c5.551,0,10.067,4.517,10.067,10.067v88.665l33.355-33.354
		c1.901-1.901,4.43-2.949,7.118-2.949c2.689,0,5.218,1.048,7.119,2.949l8.676,8.676c3.926,3.925,3.926,10.312,0,14.236
		L87.13,153.636C84.889,155.877,81.945,156.997,79.001,156.997z M22.326,69.434c-1.041,0-2.083,0.396-2.876,1.189l-8.676,8.676
		c-1.586,1.586-1.586,4.166,0,5.752l64.342,64.343c2.143,2.143,5.63,2.144,7.772-0.001l64.342-64.342l0,0
		c1.586-1.586,1.586-4.166,0-5.752l-8.676-8.676c-1.587-1.587-4.168-1.586-5.753,0l-38.477,38.476
		c-0.856,0.858-2.146,1.117-3.27,0.65c-1.121-0.464-1.852-1.559-1.852-2.771V11.07c0-2.243-1.824-4.067-4.067-4.067h-12.27
		c-2.242,0-4.066,1.825-4.067,4.068v95.906c0,1.213-0.73,2.308-1.852,2.771c-1.122,0.467-2.413,0.208-3.27-0.65L25.203,70.623
		C24.41,69.83,23.368,69.434,22.326,69.434z"/>
</g>
</svg>
