<?xml version="1.0" encoding="utf-8"?>
<!-- Generator: Adobe Illustrator 24.2.3, SVG Export Plug-In . SVG Version: 6.00 Build 0)  -->
<svg version="1.1" id="Layer_1" xmlns="http://www.w3.org/2000/svg" xmlns:xlink="http://www.w3.org/1999/xlink" x="0px" y="0px"
	 viewBox="0 0 158 158" style="enable-background:new 0 0 158 158;" xml:space="preserve">
<style type="text/css">
	.st0{fill:#2D3E50;}
</style>
<g>
	<path class="st0" d="M85.135,157h-12.27c-5.551,0-10.067-4.517-10.067-10.067V58.268L29.443,91.622
		c-3.924,3.927-10.311,3.926-14.236,0L6.53,82.946c-3.925-3.925-3.925-10.312-0.001-14.237L70.873,4.367C73.043,2.196,75.93,1,79,1
		s5.957,1.196,8.128,3.367l64.342,64.342c0,0,0,0,0.001,0c3.924,3.926,3.924,10.313-0.001,14.237l-8.676,8.676
		c-3.924,3.926-10.313,3.926-14.236,0L95.203,58.267v88.666C95.203,152.483,90.686,157,85.135,157z M65.799,48.025
		c0.386,0,0.776,0.074,1.147,0.229c1.121,0.464,1.852,1.559,1.852,2.771v95.907c0,2.243,1.824,4.067,4.067,4.067h12.27
		c2.243,0,4.067-1.824,4.067-4.067V51.024c0-1.214,0.73-2.308,1.852-2.771c1.123-0.467,2.413-0.207,3.27,0.65L132.8,87.38
		c1.586,1.586,4.166,1.586,5.752,0l8.676-8.676c1.585-1.586,1.585-4.166,0-5.753L82.886,8.609c-2.143-2.143-5.629-2.143-7.771,0
		L10.772,72.951c-1.585,1.586-1.586,4.167,0,5.753l8.677,8.676c1.586,1.587,4.166,1.585,5.752,0l38.477-38.476
		C64.25,48.33,65.018,48.025,65.799,48.025z"/>
</g>
</svg>
