<?xml version="1.0" encoding="utf-8"?>
<!-- Generator: Adobe Illustrator 24.2.3, SVG Export Plug-In . SVG Version: 6.00 Build 0)  -->
<svg version="1.1" id="Layer_1" xmlns="http://www.w3.org/2000/svg" xmlns:xlink="http://www.w3.org/1999/xlink" x="0px" y="0px"
	 viewBox="0 0 158 158" style="enable-background:new 0 0 158 158;" xml:space="preserve">
<style type="text/css">
	.st0{fill:#2D3E50;}
</style>
<g>
	<path class="st0" d="M79,1C35.99,1,1,35.99,1,79s34.99,78,78,78s78-34.99,78-78S122.01,1,79,1z M79,151c-39.701,0-72-32.299-72-72
		S39.299,7,79,7s72,32.299,72,72S118.701,151,79,151z"/>
	<path class="st0" d="M118.773,69.978L83.752,34.956c-1.27-1.27-2.957-1.969-4.752-1.969s-3.482,0.699-4.751,1.969L39.228,69.978
		c-1.929,1.929-2.501,4.803-1.457,7.323c1.043,2.52,3.48,4.147,6.208,4.147h19.258v37.47c0,1.657,1.343,3,3,3h25.527
		c1.657,0,3-1.343,3-3v-37.47h19.258c2.728,0,5.164-1.628,6.208-4.147S120.702,71.907,118.773,69.978L118.773,69.978z
		 M114.687,75.004c-0.122,0.295-0.346,0.444-0.665,0.444H91.764c-1.657,0-3,1.343-3,3v37.47H69.236v-37.47c0-1.657-1.343-3-3-3
		H43.979c-0.319,0-0.543-0.149-0.665-0.444c-0.122-0.294-0.069-0.558,0.156-0.784l35.022-35.021
		c0.174-0.175,0.372-0.211,0.508-0.211s0.335,0.037,0.51,0.211l35.021,35.021C114.757,74.445,114.809,74.71,114.687,75.004z"/>
</g>
</svg>
