<?xml version="1.0" encoding="utf-8"?>
<!-- Generator: Adobe Illustrator 24.2.3, SVG Export Plug-In . SVG Version: 6.00 Build 0)  -->
<svg version="1.1" id="Layer_1" xmlns="http://www.w3.org/2000/svg" xmlns:xlink="http://www.w3.org/1999/xlink" x="0px" y="0px"
	 viewBox="0 0 158 158" style="enable-background:new 0 0 158 158;" xml:space="preserve">
<style type="text/css">
	.st0{fill:none;stroke:#2D3E50;stroke-width:6;stroke-miterlimit:10;}
	.st1{fill:none;stroke:#2D3E50;stroke-width:6;stroke-linejoin:round;stroke-miterlimit:10;}
	.st2{fill-rule:evenodd;clip-rule:evenodd;fill:none;stroke:#2D3E50;stroke-width:6;stroke-linejoin:round;stroke-miterlimit:10;}
	.st3{fill-rule:evenodd;clip-rule:evenodd;fill:none;stroke:#2D3E50;stroke-width:6;stroke-miterlimit:10;}
	.st4{fill:#FFFFFF;stroke:#2D3E50;stroke-width:6;stroke-miterlimit:10;}
	.st5{fill:none;stroke:#2D3E50;stroke-width:6;stroke-linecap:round;stroke-linejoin:round;stroke-miterlimit:10;}
	.st6{fill:#2D3E50;}
	.st7{fill:none;stroke:#2D3E50;stroke-width:6;stroke-linecap:round;stroke-miterlimit:10;}
	.st8{fill:none;stroke:#2D3E50;stroke-width:6;stroke-miterlimit:10;stroke-dasharray:9;}
</style>
<g>
	<g>
		<path class="st3" d="M22.723,154c0.395-3.818,3.727-34.973,4.251-36.47c0.523-1.491,1.213-2.927,2.065-4.274
			c3.044-4.836,7.902-8.242,13.484-9.455l15.176-3.3l4.291-0.929l1.831-12.193"/>
		<path class="st3" d="M93.928,87.378l1.825,12.193l3.228,0.701l16.239,3.528c5.582,1.213,10.446,4.619,13.484,9.455
			c0.846,1.347,1.542,2.783,2.065,4.274c0.523,1.497,4.113,32.652,4.508,36.47"/>
		<path class="st0" d="M47.314,49.613c0,3.484,0,6.968,0,10.451c0,0.312,0,0.618,0,0.929c0,3.718,1.235,7.079,3.539,9.778
			c4.341,5.07,8.748,10.685,13.145,16.54c2.015,2.682,5.053,4.285,8.259,4.285c4.018,0,8.036,0,12.054,0
			c3.178,0,6.188-1.569,8.203-4.207c4.396-5.754,8.798-11.269,13.134-16.256c2.36-2.716,3.628-6.116,3.628-9.878
			c0-0.395,0-0.785,0-1.18c0-6.673,0-13.34,0-20.007"/>
		<path class="st3" d="M52.404,34.481c0.888-1.776,1.931-3.483,3.07-5.131c0.41-0.593,0.902-1.225,1.611-1.355
			c0.649-0.119,1.284,0.219,1.857,0.545c2.629,1.497,5.126,2.971,8.006,3.928c3.857,1.281,7.933,1.876,11.993,1.85
			c5.828-0.038,11.604-1.327,17.025-3.429c4.367-1.693,8.433-0.205,10.073,4.355c0.992,2.758,0.101,6.791,3.23,8.268
			c-0.463-4.676,0.908-8.91,1.671-13.433c0.944-5.593,0.45-11.833-2.646-16.721c-3.594-5.672-10.914-7.606-17.181-8.528
			C85.95,4.07,80.673,4.018,75.464,4c-2.822-0.009-5.685,0.14-8.421,0.883c-1.378,0.374-2.761,0.89-3.982,1.639
			C61.915,7.225,60.944,8.27,59.5,8.305c-0.893,0.022-1.739-0.357-2.603-0.583c-4.849-1.267-8.646,2.646-10.413,6.75
			c-4.978,11.562-2.322,22.807,0.832,35.14c2.233-1.618,2.013-4.7,2.414-7.126C50.196,39.659,51.144,37,52.404,34.481z"/>
		<path class="st3" d="M57.699,100.501c0,0,18.702,21.469,41.282,0"/>
	</g>
</g>
</svg>
