<?xml version="1.0" encoding="utf-8"?>
<!-- Generator: Adobe Illustrator 24.2.3, SVG Export Plug-In . SVG Version: 6.00 Build 0)  -->
<svg version="1.1" id="Layer_1" xmlns="http://www.w3.org/2000/svg" xmlns:xlink="http://www.w3.org/1999/xlink" x="0px" y="0px"
	 viewBox="0 0 158 158" style="enable-background:new 0 0 158 158;" xml:space="preserve">
<style type="text/css">
	.st0{fill:#2D3E50;}
</style>
<g>
	<path class="st0" d="M149.2,63.208H8.8c-4.301,0-7.8,3.499-7.8,7.799v15.986c0,4.3,3.499,7.799,7.8,7.799h140.4
		c4.301,0,7.8-3.499,7.8-7.799V71.007C157,66.707,153.501,63.208,149.2,63.208z M151,86.993c0,0.992-0.808,1.799-1.8,1.799H8.8
		c-0.992,0-1.8-0.807-1.8-1.799V71.007c0-0.992,0.808-1.799,1.8-1.799h140.4c0.992,0,1.8,0.807,1.8,1.799V86.993z"/>
	<path class="st0" d="M149.2,113.208H8.8c-4.301,0-7.8,3.499-7.8,7.799v15.986c0,4.3,3.499,7.799,7.8,7.799h140.4
		c4.301,0,7.8-3.499,7.8-7.799v-15.986C157,116.707,153.501,113.208,149.2,113.208z M151,136.993c0,0.992-0.808,1.799-1.8,1.799H8.8
		c-0.992,0-1.8-0.807-1.8-1.799v-15.986c0-0.992,0.808-1.799,1.8-1.799h140.4c0.992,0,1.8,0.807,1.8,1.799V136.993z"/>
	<path class="st0" d="M149.2,13.208H8.8c-4.301,0-7.8,3.499-7.8,7.799v15.986c0,4.3,3.499,7.799,7.8,7.799h140.4
		c4.301,0,7.8-3.499,7.8-7.799V21.007C157,16.707,153.501,13.208,149.2,13.208z M151,36.993c0,0.992-0.808,1.799-1.8,1.799H8.8
		c-0.992,0-1.8-0.807-1.8-1.799V21.007c0-0.992,0.808-1.799,1.8-1.799h140.4c0.992,0,1.8,0.807,1.8,1.799V36.993z"/>
</g>
</svg>
