<?xml version="1.0" encoding="utf-8"?>
<!-- Generator: Adobe Illustrator 24.2.3, SVG Export Plug-In . SVG Version: 6.00 Build 0)  -->
<svg version="1.1" id="Layer_1" xmlns="http://www.w3.org/2000/svg" xmlns:xlink="http://www.w3.org/1999/xlink" x="0px" y="0px"
	 viewBox="0 0 158 158" style="enable-background:new 0 0 158 158;" xml:space="preserve">
<style type="text/css">
	.st0{fill:none;stroke:#2D3E50;stroke-width:6;stroke-miterlimit:10;}
	.st1{fill:none;stroke:#2D3E50;stroke-width:6;stroke-linejoin:round;stroke-miterlimit:10;}
	.st2{fill-rule:evenodd;clip-rule:evenodd;fill:none;stroke:#2D3E50;stroke-width:6;stroke-linejoin:round;stroke-miterlimit:10;}
	.st3{fill-rule:evenodd;clip-rule:evenodd;fill:none;stroke:#2D3E50;stroke-width:6;stroke-miterlimit:10;}
	.st4{fill:#FFFFFF;stroke:#2D3E50;stroke-width:6;stroke-miterlimit:10;}
	.st5{fill:none;stroke:#2D3E50;stroke-width:6;stroke-linecap:round;stroke-linejoin:round;stroke-miterlimit:10;}
	.st6{fill:#2D3E50;}
	.st7{fill:none;stroke:#2D3E50;stroke-width:6;stroke-linecap:round;stroke-miterlimit:10;}
	.st8{fill:none;stroke:#2D3E50;stroke-width:6;stroke-miterlimit:10;stroke-dasharray:9;}
</style>
<g id="logo_21_">
	<path class="st1" d="M80.324,96.831c-0.264-10.152-3.719-16.717-14.329-20.995c7.002-3.572,10.95-8.923,11.484-17.134
		c0.645-17.545-9.72-26.94-31.829-26.336H25.351H4v16.214v20.818v15.299v24.593v16.214h21.351H45.65
		c16.158,1.214,27.057-4.71,32.052-15.34C79.654,106.013,80.441,101.42,80.324,96.831z M25.351,48.581H45.65
		c3.313,0.249,6.966,0.757,9.766,2.688c2.912,2.012,3.699,5.478,3.359,8.867c-0.142,1.433-0.554,2.84-1.286,4.085
		c-2.403,4.075-7.485,4.985-11.839,5.178H25.351V48.581z M60.518,97.716c-0.193,3.11-1.093,6.27-3.47,8.42
		c-2.068,1.86-4.832,2.683-7.546,2.993c-1.275,0.152-2.566,0.188-3.852,0.163H25.351V84.698H45.65
		c5.447,0,12.017,1.118,14.141,6.915C60.498,93.549,60.645,95.658,60.518,97.716z"/>
	<path class="st1" d="M127.906,55.156c-4.385-0.788-8.877-0.915-13.282-0.264c-14.883,2.19-23.627,11.738-26.005,24.11
		c-1.59,9.954-1.885,21.056,2.973,30.228c11.077,20.924,50.085,22.2,59.501-0.864c0.046-0.117,0.097-0.234,0.142-0.351
		c0.6-1.54,1.016-3.16,1.164-4.812h-17.947c-2.673,9.365-19.222,10.422-25.965,1.921c-2.221-2.668-3.308-6.285-3.313-10.808h48.794
		C154.598,71.293,146.046,58.428,127.906,55.156z M105.93,82.548c0-3.765,1.524-7.175,3.994-9.639
		c2.464-2.469,5.874-3.994,9.639-3.994h2.17c7.525,0,13.628,6.102,13.628,13.633H105.93z"/>
	<rect x="102.198" y="36.69" class="st1" width="37.182" height="8.779"/>
</g>
</svg>
