<?xml version="1.0" encoding="utf-8"?>
<!-- Generator: Adobe Illustrator 24.2.3, SVG Export Plug-In . SVG Version: 6.00 Build 0)  -->
<svg version="1.1" id="Layer_1" xmlns="http://www.w3.org/2000/svg" xmlns:xlink="http://www.w3.org/1999/xlink" x="0px" y="0px"
	 viewBox="0 0 158 158" style="enable-background:new 0 0 158 158;" xml:space="preserve">
<style type="text/css">
	.st0{fill:none;stroke:#2D3E50;stroke-width:6;stroke-miterlimit:10;}
	.st1{fill:none;stroke:#2D3E50;stroke-width:6;stroke-linejoin:round;stroke-miterlimit:10;}
	.st2{fill-rule:evenodd;clip-rule:evenodd;fill:none;stroke:#2D3E50;stroke-width:6;stroke-linejoin:round;stroke-miterlimit:10;}
	.st3{fill-rule:evenodd;clip-rule:evenodd;fill:none;stroke:#2D3E50;stroke-width:6;stroke-miterlimit:10;}
	.st4{fill:#FFFFFF;stroke:#2D3E50;stroke-width:6;stroke-miterlimit:10;}
	.st5{fill:none;stroke:#2D3E50;stroke-width:6;stroke-linecap:round;stroke-linejoin:round;stroke-miterlimit:10;}
	.st6{fill:#2D3E50;}
	.st7{fill:none;stroke:#2D3E50;stroke-width:6;stroke-linecap:round;stroke-miterlimit:10;}
	.st8{fill:none;stroke:#2D3E50;stroke-width:6;stroke-miterlimit:10;stroke-dasharray:9;}
</style>
<path id="logo_4_" class="st0" d="M145.739,61.078H135.69c-5.11,0-9.253-5.15-9.253-10.26l0,0C126.438,24.405,104.522,4,78.109,4
	H52.535C26.122,4,4.71,25.412,4.71,51.825v54.35C4.71,132.588,26.122,154,52.535,154h52.93c26.413,0,47.825-21.412,47.825-47.825
	V68.629C153.29,64.459,149.909,61.078,145.739,61.078z M43.75,51.996c0-5.016,4.066-9.082,9.082-9.082h25.78
	c5.016,0,9.082,4.066,9.082,9.082l0,0c0,5.016-4.066,9.082-9.082,9.082h-25.78C47.816,61.078,43.75,57.012,43.75,51.996
	L43.75,51.996z M114.627,105.847c0,5.016-4.066,9.082-9.082,9.082H52.832c-5.016,0-9.082-4.066-9.082-9.082l0,0
	c0-5.016,4.066-9.082,9.082-9.082h52.713C110.561,96.766,114.627,100.832,114.627,105.847L114.627,105.847z"/>
</svg>
