<?xml version="1.0" encoding="utf-8"?>
<!-- Generator: Adobe Illustrator 24.2.3, SVG Export Plug-In . SVG Version: 6.00 Build 0)  -->
<svg version="1.1" id="Layer_1" xmlns="http://www.w3.org/2000/svg" xmlns:xlink="http://www.w3.org/1999/xlink" x="0px" y="0px"
	 viewBox="0 0 158 158" style="enable-background:new 0 0 158 158;" xml:space="preserve">
<style type="text/css">
	.st0{fill:#2D3E50;}
</style>
<path class="st0" d="M157,78.999c0-1.2-0.71-2.28-1.81-2.75l-36.04-15.65l36.04-15.66c1.1-0.47,1.81-1.55,1.81-2.75
	c0-1.19-0.71-2.27-1.81-2.75l-75-32.57c-0.76-0.33-1.63-0.33-2.39,0l-75,32.57c-1.1,0.48-1.8,1.56-1.8,2.75c0,1.2,0.7,2.28,1.8,2.75
	l36.04,15.66L2.8,76.249c-1.1,0.47-1.8,1.55-1.8,2.75c0,1.19,0.7,2.27,1.8,2.75l36.04,15.65L2.8,113.049
	c-1.1,0.48-1.8,1.56-1.8,2.75c0,1.2,0.7,2.28,1.8,2.75l75,32.58c0.38,0.16,0.79,0.25,1.2,0.25c0.4,0,0.81-0.09,1.19-0.25l75-32.58
	c1.1-0.47,1.81-1.55,1.81-2.75c0-1.19-0.71-2.27-1.81-2.75l-36.04-15.65l36.04-15.65C156.29,81.269,157,80.189,157,78.999z
	 M104.1,97.399l-25.1,10.9l-25.1-10.9l-7.53-3.27l-34.84-15.13l34.84-15.13l31.43,13.65c0.38,0.16,0.79,0.25,1.2,0.25
	c0.4,0,0.81-0.09,1.19-0.25l31.43-13.66l34.84,15.14l-34.84,15.13L104.1,97.399z M79,12.889l67.46,29.3l-34.84,15.14l-3.76,1.63
	l-3.76,1.64L79,71.499l-25.1-10.9l-3.77-1.64l-3.76-1.64l-34.84-15.13L79,12.889z M146.46,115.799L79,145.109l-67.47-29.31
	l34.84-15.13l31.43,13.65c0.38,0.17,0.79,0.25,1.2,0.25c0.4,0,0.81-0.08,1.19-0.25l31.43-13.65L146.46,115.799z"/>
</svg>
