<?xml version="1.0" encoding="utf-8"?>
<!-- Generator: Adobe Illustrator 24.2.3, SVG Export Plug-In . SVG Version: 6.00 Build 0)  -->
<svg version="1.1" id="Layer_1" xmlns="http://www.w3.org/2000/svg" xmlns:xlink="http://www.w3.org/1999/xlink" x="0px" y="0px"
	 viewBox="0 0 158 158" style="enable-background:new 0 0 158 158;" xml:space="preserve">
<style type="text/css">
	.st0{fill:#2D3E50;}
</style>
<g>
	<path class="st0" d="M147.285,122.842H10.715c-3.999,0-7.434-2.295-8.964-5.989c-1.529-3.694-0.724-7.745,2.104-10.572
		L72.14,37.995c3.781-3.784,9.938-3.782,13.72,0l68.285,68.285c2.827,2.827,3.633,6.878,2.104,10.572
		C154.718,120.547,151.284,122.842,147.285,122.842z M78.999,41.156c-0.947,0-1.896,0.36-2.617,1.082L8.098,110.523
		c-1.623,1.623-1.024,3.498-0.803,4.034s1.125,2.285,3.42,2.285h136.569c2.295,0,3.198-1.749,3.42-2.285
		c0.223-0.536,0.82-2.411-0.802-4.034L81.618,42.238C80.896,41.516,79.948,41.156,78.999,41.156z"/>
</g>
</svg>
