<?xml version="1.0" encoding="utf-8"?>
<!-- Generator: Adobe Illustrator 24.2.3, SVG Export Plug-In . SVG Version: 6.00 Build 0)  -->
<svg version="1.1" id="Layer_1" xmlns="http://www.w3.org/2000/svg" xmlns:xlink="http://www.w3.org/1999/xlink" x="0px" y="0px"
	 viewBox="0 0 158 158" style="enable-background:new 0 0 158 158;" xml:space="preserve">
<style type="text/css">
	.st0{fill:#2D3E50;}
</style>
<g>
	<path class="st0" d="M83.965,53.55c-1.326-1.326-3.089-2.057-4.965-2.057c-1.875,0-3.638,0.73-4.964,2.057L33.063,94.521
		c-2.015,2.016-2.611,5.019-1.521,7.651s3.637,4.334,6.486,4.334h81.941c2.851,0,5.396-1.701,6.487-4.334s0.493-5.637-1.522-7.651
		L83.965,53.55z M120.915,99.877c-0.098,0.235-0.351,0.63-0.944,0.63H38.029c-0.594,0-0.846-0.395-0.943-0.63
		c-0.098-0.236-0.198-0.693,0.221-1.113l40.972-40.972c0.199-0.199,0.461-0.299,0.722-0.299c0.262,0,0.523,0.1,0.723,0.299
		l40.971,40.972C121.113,99.184,121.012,99.642,120.915,99.877z"/>
	<path class="st0" d="M144,1H14C6.832,1,1,6.832,1,14v130c0,7.168,5.832,13,13,13h130c7.168,0,13-5.832,13-13V14
		C157,6.832,151.168,1,144,1z M151,144c0,3.859-3.141,7-7,7H14c-3.859,0-7-3.141-7-7V14c0-3.859,3.141-7,7-7h130
		c3.859,0,7,3.141,7,7V144z"/>
</g>
</svg>
