<?xml version="1.0" encoding="utf-8"?>
<!-- Generator: Adobe Illustrator 24.2.3, SVG Export Plug-In . SVG Version: 6.00 Build 0)  -->
<svg version="1.1" id="Layer_1" xmlns="http://www.w3.org/2000/svg" xmlns:xlink="http://www.w3.org/1999/xlink" x="0px" y="0px"
	 viewBox="0 0 158 158" style="enable-background:new 0 0 158 158;" xml:space="preserve">
<style type="text/css">
	.st0{fill:#2D3E50;}
</style>
<g>
	<path class="st0" d="M63.479,33.065c-2.017-2.016-5.019-2.61-7.651-1.522c-2.633,1.091-4.334,3.637-4.334,6.486v81.941
		c0,2.851,1.701,5.396,4.334,6.487c0.874,0.361,1.788,0.538,2.694,0.538c1.823,0,3.61-0.714,4.957-2.061l40.971-40.971
		c1.326-1.326,2.057-3.089,2.057-4.964c0-1.876-0.73-3.639-2.057-4.965L63.479,33.065z M100.207,79.723l-40.971,40.971
		c-0.42,0.418-0.877,0.317-1.113,0.222c-0.235-0.098-0.63-0.351-0.63-0.944V38.029c0-0.594,0.395-0.846,0.63-0.943
		C58.227,37.044,58.372,37,58.538,37c0.214,0,0.462,0.072,0.698,0.308l40.971,40.971C100.604,78.677,100.604,79.324,100.207,79.723z
		"/>
	<path class="st0" d="M144,1H14C6.832,1,1,6.832,1,14v130c0,7.168,5.832,13,13,13h130c7.168,0,13-5.832,13-13V14
		C157,6.832,151.168,1,144,1z M151,144c0,3.859-3.141,7-7,7H14c-3.859,0-7-3.141-7-7V14c0-3.859,3.141-7,7-7h130
		c3.859,0,7,3.141,7,7V144z"/>
</g>
</svg>
