<?xml version="1.0" encoding="utf-8"?>
<!-- Generator: Adobe Illustrator 24.2.3, SVG Export Plug-In . SVG Version: 6.00 Build 0)  -->
<svg version="1.1" id="Layer_1" xmlns="http://www.w3.org/2000/svg" xmlns:xlink="http://www.w3.org/1999/xlink" x="0px" y="0px"
	 viewBox="0 0 158 158" style="enable-background:new 0 0 158 158;" xml:space="preserve">
<style type="text/css">
	.st0{fill:#2D3E50;}
</style>
<g>
	<path class="st0" d="M44.92,157.011c-1.26,0-2.537-0.25-3.775-0.763c-3.694-1.53-5.989-4.966-5.989-8.964V10.716
		c0-3.998,2.295-7.434,5.989-8.964s7.746-0.724,10.573,2.104l0,0l68.284,68.285c1.833,1.832,2.843,4.269,2.843,6.859
		c0,2.592-1.01,5.028-2.843,6.861l-68.284,68.284C49.838,156.025,47.417,157.011,44.92,157.011z M44.925,7.003
		c-0.682,0-1.231,0.188-1.484,0.293c-0.536,0.222-2.285,1.125-2.285,3.42v136.569c0,2.295,1.749,3.198,2.285,3.42
		s2.411,0.82,4.035-0.802l68.284-68.285c0.699-0.7,1.085-1.629,1.085-2.618c0-0.988-0.386-1.917-1.085-2.616L47.476,8.097
		C46.617,7.24,45.688,7.003,44.925,7.003z"/>
</g>
</svg>
