<?xml version="1.0" encoding="utf-8"?>
<!-- Generator: Adobe Illustrator 24.2.3, SVG Export Plug-In . SVG Version: 6.00 Build 0)  -->
<svg version="1.1" id="Layer_1" xmlns="http://www.w3.org/2000/svg" xmlns:xlink="http://www.w3.org/1999/xlink" x="0px" y="0px"
	 viewBox="0 0 158 158" style="enable-background:new 0 0 158 158;" xml:space="preserve">
<style type="text/css">
	.st0{fill:#2D3E50;}
</style>
<g>
	<path class="st0" d="M119.971,51.493H38.029c-2.85,0-5.396,1.701-6.487,4.335c-1.091,2.633-0.493,5.637,1.522,7.651l40.971,40.971
		c1.326,1.326,3.089,2.057,4.964,2.057c1.876,0,3.639-0.73,4.965-2.057l40.972-40.971h0.001c2.015-2.016,2.611-5.02,1.521-7.652
		S122.82,51.493,119.971,51.493z M120.693,59.237l-40.972,40.971c-0.397,0.396-1.045,0.398-1.444,0L37.307,59.237
		c-0.42-0.42-0.318-0.878-0.221-1.113c0.097-0.235,0.35-0.631,0.943-0.631h81.941c0.593,0,0.846,0.396,0.943,0.631
		S121.112,58.817,120.693,59.237z"/>
	<path class="st0" d="M144,1H14C6.832,1,1,6.832,1,14v130c0,7.168,5.832,13,13,13h130c7.168,0,13-5.832,13-13V14
		C157,6.832,151.168,1,144,1z M151,144c0,3.859-3.141,7-7,7H14c-3.859,0-7-3.141-7-7V14c0-3.859,3.141-7,7-7h130
		c3.859,0,7,3.141,7,7V144z"/>
</g>
</svg>
