<?xml version="1.0" encoding="utf-8"?>
<!-- Generator: Adobe Illustrator 24.2.3, SVG Export Plug-In . SVG Version: 6.00 Build 0)  -->
<svg version="1.1" id="Layer_1" xmlns="http://www.w3.org/2000/svg" xmlns:xlink="http://www.w3.org/1999/xlink" x="0px" y="0px"
	 viewBox="0 0 158 158" style="enable-background:new 0 0 158 158;" xml:space="preserve">
<style type="text/css">
	.st0{fill:#2D3E50;}
</style>
<g>
	<path class="st0" d="M79,122.844c-2.592,0-5.028-1.009-6.86-2.842L3.855,51.718c-2.828-2.828-3.634-6.88-2.103-10.574
		c1.53-3.693,4.965-5.988,8.963-5.988h136.569c3.998,0,7.433,2.295,8.963,5.988c1.531,3.694,0.726,7.746-2.103,10.574l0,0
		L85.86,120.002C84.028,121.835,81.591,122.844,79,122.844z M10.715,41.156c-2.295,0-3.198,1.749-3.42,2.285
		c-0.223,0.536-0.821,2.412,0.802,4.035l68.285,68.284c1.443,1.442,3.792,1.444,5.235,0l68.285-68.284
		c1.623-1.623,1.024-3.499,0.802-4.035c-0.222-0.536-1.125-2.285-3.42-2.285H10.715z"/>
</g>
</svg>
