<?xml version="1.0" encoding="utf-8"?>
<!-- Generator: Adobe Illustrator 24.2.3, SVG Export Plug-In . SVG Version: 6.00 Build 0)  -->
<svg version="1.1" id="Layer_1" xmlns="http://www.w3.org/2000/svg" xmlns:xlink="http://www.w3.org/1999/xlink" x="0px" y="0px"
	 viewBox="0 0 158 158" style="enable-background:new 0 0 158 158;" xml:space="preserve">
<style type="text/css">
	.st0{fill:#2D3E50;}
</style>
<g>
	<path class="st0" d="M102.172,31.542c-2.631-1.088-5.637-0.492-7.65,1.522L53.55,74.035c-2.736,2.738-2.736,7.193,0.001,9.93
		l40.971,40.971c1.347,1.347,3.134,2.061,4.957,2.061c0.905,0,1.82-0.177,2.694-0.538c2.633-1.091,4.334-3.637,4.334-6.487V38.029
		C106.507,35.18,104.806,32.633,102.172,31.542z M100.507,119.971c0,0.594-0.395,0.847-0.63,0.944
		c-0.237,0.097-0.693,0.196-1.113-0.222L57.793,79.723c-0.398-0.398-0.397-1.047,0-1.445l40.971-40.971
		C99,37.071,99.247,37,99.461,37c0.167,0,0.313,0.043,0.415,0.086c0.235,0.098,0.631,0.35,0.631,0.943V119.971z"/>
	<path class="st0" d="M144,1H14C6.832,1,1,6.832,1,14v130c0,7.168,5.832,13,13,13h130c7.168,0,13-5.832,13-13V14
		C157,6.832,151.168,1,144,1z M151,144c0,3.859-3.141,7-7,7H14c-3.859,0-7-3.141-7-7V14c0-3.859,3.141-7,7-7h130
		c3.859,0,7,3.141,7,7V144z"/>
</g>
</svg>
