<?xml version="1.0" encoding="utf-8"?>
<!-- Generator: Adobe Illustrator 24.2.3, SVG Export Plug-In . SVG Version: 6.00 Build 0)  -->
<svg version="1.1" id="Layer_1" xmlns="http://www.w3.org/2000/svg" xmlns:xlink="http://www.w3.org/1999/xlink" x="0px" y="0px"
	 viewBox="0 0 158 158" style="enable-background:new 0 0 158 158;" xml:space="preserve">
<style type="text/css">
	.st0{fill:#2D3E50;}
</style>
<g>
	<path class="st0" d="M113.078,157.011c-2.497,0-4.918-0.986-6.798-2.866L37.995,85.86c-3.783-3.782-3.783-9.938,0-13.72
		l68.285-68.285c2.827-2.827,6.881-3.634,10.572-2.104c3.694,1.53,5.989,4.965,5.989,8.964v136.569c0,3.999-2.295,7.434-5.989,8.964
		C115.615,156.761,114.337,157.011,113.078,157.011z M113.073,7.003c-0.764,0-1.692,0.237-2.551,1.095L42.238,76.382
		c-1.443,1.443-1.443,3.792,0,5.235l68.285,68.285c1.624,1.622,3.497,1.023,4.034,0.802c0.536-0.222,2.285-1.125,2.285-3.42V10.716
		c0-2.295-1.749-3.198-2.285-3.42C114.304,7.191,113.754,7.003,113.073,7.003z"/>
</g>
</svg>
