<?xml version="1.0" encoding="utf-8"?>
<!-- Generator: Adobe Illustrator 24.2.3, SVG Export Plug-In . SVG Version: 6.00 Build 0)  -->
<svg version="1.1" id="Layer_1" xmlns="http://www.w3.org/2000/svg" xmlns:xlink="http://www.w3.org/1999/xlink" x="0px" y="0px"
	 viewBox="0 0 158 158" style="enable-background:new 0 0 158 158;" xml:space="preserve">
<style type="text/css">
	.st0{fill:none;stroke:#2D3E50;stroke-width:6;stroke-miterlimit:10;}
	.st1{fill:none;stroke:#2D3E50;stroke-width:6;stroke-linejoin:round;stroke-miterlimit:10;}
	.st2{fill-rule:evenodd;clip-rule:evenodd;fill:none;stroke:#2D3E50;stroke-width:6;stroke-linejoin:round;stroke-miterlimit:10;}
	.st3{fill-rule:evenodd;clip-rule:evenodd;fill:none;stroke:#2D3E50;stroke-width:6;stroke-miterlimit:10;}
	.st4{fill:#FFFFFF;stroke:#2D3E50;stroke-width:6;stroke-miterlimit:10;}
	.st5{fill:none;stroke:#2D3E50;stroke-width:6;stroke-linecap:round;stroke-linejoin:round;stroke-miterlimit:10;}
	.st6{fill:#2D3E50;}
	.st7{fill:none;stroke:#2D3E50;stroke-width:6;stroke-linecap:round;stroke-miterlimit:10;}
	.st8{fill:none;stroke:#2D3E50;stroke-width:6;stroke-miterlimit:10;stroke-dasharray:9;}
</style>
<g>
	<g>
		<circle class="st0" cx="45.093" cy="141.043" r="11.384"/>
		<circle class="st0" cx="110.726" cy="141.043" r="11.384"/>
		<path class="st0" d="M132.356,130.797c0-6.287-5.097-11.384-11.384-11.384h-82.82c-6.287,0-11.384-5.097-11.384-11.384v0
			c0-6.287,5.097-11.384,11.384-11.384h92.966c5.518,0,10.268-3.896,11.348-9.307l11.412-52.59c0.715-3.294-1.795-6.407-5.166-6.407
			H30.048"/>
		<path class="st0" d="M38.152,96.645L28.023,15.61c-0.717-5.734-5.591-10.037-11.37-10.037H4"/>
	</g>
	<line class="st0" x1="45.093" y1="47.914" x2="134.582" y2="47.914"/>
	<line class="st0" x1="45.093" y1="72.301" x2="134.582" y2="72.301"/>
	<line class="st0" x1="90.384" y1="37.075" x2="90.384" y2="86.43"/>
	<line class="st0" x1="117.743" y1="37.075" x2="114.259" y2="86.43"/>
	<line class="st0" x1="63.025" y1="37.075" x2="66.509" y2="86.43"/>
</g>
</svg>
