<?xml version="1.0" encoding="utf-8"?>
<!-- Generator: Adobe Illustrator 24.2.3, SVG Export Plug-In . SVG Version: 6.00 Build 0)  -->
<svg version="1.1" id="Layer_1" xmlns="http://www.w3.org/2000/svg" xmlns:xlink="http://www.w3.org/1999/xlink" x="0px" y="0px"
	 viewBox="0 0 158 158" style="enable-background:new 0 0 158 158;" xml:space="preserve">
<style type="text/css">
	.st0{fill:none;stroke:#2D3E50;stroke-width:6;stroke-miterlimit:10;}
	.st1{fill:none;stroke:#2D3E50;stroke-width:6;stroke-linejoin:round;stroke-miterlimit:10;}
	.st2{fill-rule:evenodd;clip-rule:evenodd;fill:none;stroke:#2D3E50;stroke-width:6;stroke-linejoin:round;stroke-miterlimit:10;}
	.st3{fill-rule:evenodd;clip-rule:evenodd;fill:none;stroke:#2D3E50;stroke-width:6;stroke-miterlimit:10;}
	.st4{fill:#FFFFFF;stroke:#2D3E50;stroke-width:6;stroke-miterlimit:10;}
	.st5{fill:none;stroke:#2D3E50;stroke-width:6;stroke-linecap:round;stroke-linejoin:round;stroke-miterlimit:10;}
	.st6{fill:#2D3E50;}
	.st7{fill:none;stroke:#2D3E50;stroke-width:6;stroke-linecap:round;stroke-miterlimit:10;}
	.st8{fill:none;stroke:#2D3E50;stroke-width:6;stroke-miterlimit:10;stroke-dasharray:9;}
</style>
<g>
	<path class="st0" d="M139,74H19l12.853,71.631c0.869,4.843,5.083,8.369,10.004,8.369h74.286c4.921,0,9.135-3.525,10.004-8.369
		L139,74z"/>
	<path class="st0" d="M143.435,74H14.565C11.491,74,9,71.509,9,68.435V56.952c0-3.073,2.491-5.565,5.565-5.565h128.871
		c3.073,0,5.565,2.491,5.565,5.565v11.484C149,71.509,146.509,74,143.435,74z"/>
	<line class="st0" x1="79" y1="88.634" x2="79" y2="139.29"/>
	<line class="st0" x1="109" y1="88.634" x2="103.419" y2="139.29"/>
	<line class="st0" x1="49" y1="88.634" x2="54.581" y2="139.29"/>
	<line class="st7" x1="22" y1="51.387" x2="62" y2="4"/>
	<line class="st7" x1="136" y1="51.387" x2="96" y2="4"/>
</g>
</svg>
