<?xml version="1.0" encoding="utf-8"?>
<!-- Generator: Adobe Illustrator 24.2.3, SVG Export Plug-In . SVG Version: 6.00 Build 0)  -->
<svg version="1.1" id="Layer_1" xmlns="http://www.w3.org/2000/svg" xmlns:xlink="http://www.w3.org/1999/xlink" x="0px" y="0px"
	 viewBox="0 0 158 158" style="enable-background:new 0 0 158 158;" xml:space="preserve">
<style type="text/css">
	.st0{fill:#2D3E50;}
</style>
<g>
	<g>
		<g>
			<path class="st0" d="M108.045,156.995c-2.644,0-5.285-1.006-7.297-3.018L34.112,87.342c-2.229-2.228-3.455-5.19-3.455-8.342
				c0-3.152,1.227-6.115,3.455-8.343l66.636-66.635c4.022-4.025,10.57-4.021,14.593,0l8.985,8.985
				c4.022,4.022,4.023,10.568,0.001,14.593L72.926,79l51.399,51.398c4.022,4.023,4.022,10.57,0.001,14.594l-8.986,8.984
				C113.329,155.989,110.686,156.995,108.045,156.995z M108.044,7.002c-1.105,0-2.212,0.421-3.054,1.263L38.354,74.9
				c-1.095,1.095-1.697,2.551-1.697,4.101c0,1.549,0.603,3.005,1.697,4.1l66.636,66.635c0.816,0.815,1.9,1.265,3.054,1.265
				c1.154,0,2.238-0.449,3.055-1.265l8.985-8.984c1.684-1.685,1.684-4.425-0.001-6.109l-53.52-53.52
				c-0.563-0.563-0.879-1.325-0.879-2.121s0.316-1.559,0.879-2.121l53.521-53.521c1.684-1.685,1.684-4.425,0-6.108l-8.985-8.985
				C110.256,7.423,109.15,7.002,108.044,7.002z"/>
		</g>
	</g>
</g>
</svg>
