<?xml version="1.0" encoding="utf-8"?>
<!-- Generator: Adobe Illustrator 24.2.3, SVG Export Plug-In . SVG Version: 6.00 Build 0)  -->
<svg version="1.1" id="Layer_1" xmlns="http://www.w3.org/2000/svg" xmlns:xlink="http://www.w3.org/1999/xlink" x="0px" y="0px"
	 viewBox="0 0 158 158" style="enable-background:new 0 0 158 158;" xml:space="preserve">
<style type="text/css">
	.st0{fill:#2D3E50;}
</style>
<g>
	<g>
		<g>
			<path class="st0" d="M20.304,127.346c-2.757,0-5.348-1.073-7.297-3.022l-8.984-8.985C0,111.314,0,104.769,4.023,100.745
				l66.635-66.636c2.228-2.229,5.19-3.455,8.342-3.455c3.152,0,6.115,1.227,8.343,3.455l66.635,66.636
				c4.023,4.023,4.023,10.569,0,14.593l-8.984,8.985c-4.023,4.023-10.57,4.023-14.594,0L79,72.924l-51.399,51.399
				C25.652,126.272,23.061,127.346,20.304,127.346z M79,36.654c-1.549,0-3.005,0.603-4.1,1.697L8.265,104.987
				C7.45,105.804,7,106.888,7,108.041c0,1.154,0.449,2.238,1.265,3.055l8.985,8.985c0.815,0.815,1.9,1.265,3.054,1.265
				c1.154,0,2.238-0.449,3.055-1.265l53.521-53.521c1.125-1.125,3.117-1.125,4.242,0l53.52,53.521c1.686,1.684,4.424,1.684,6.109,0
				l8.984-8.985l0,0c1.684-1.685,1.684-4.424,0-6.108L83.1,38.352C82.005,37.257,80.549,36.654,79,36.654z"/>
		</g>
	</g>
</g>
</svg>
