<?xml version="1.0" encoding="utf-8"?>
<!-- Generator: Adobe Illustrator 24.2.3, SVG Export Plug-In . SVG Version: 6.00 Build 0)  -->
<svg version="1.1" id="Layer_1" xmlns="http://www.w3.org/2000/svg" xmlns:xlink="http://www.w3.org/1999/xlink" x="0px" y="0px"
	 viewBox="0 0 158 158" style="enable-background:new 0 0 158 158;" xml:space="preserve">
<style type="text/css">
	.st0{fill:#2D3E50;}
</style>
<g>
	<g>
		<g>
			<path class="st0" d="M49.958,156.997c-2.757,0-5.348-1.073-7.297-3.022l-8.984-8.984c-4.023-4.023-4.023-10.57,0-14.594
				l51.398-51.398L33.677,27.599c-1.949-1.949-3.022-4.54-3.022-7.297s1.073-5.348,3.022-7.297l8.984-8.984l0,0
				c4.023-4.023,10.57-4.023,14.594,0l66.635,66.635c2.229,2.228,3.456,5.19,3.456,8.343c0,3.151-1.228,6.114-3.456,8.343
				l-66.635,66.634C55.306,155.924,52.715,156.997,49.958,156.997z M46.903,8.263l-8.984,8.985c-0.815,0.815-1.265,1.9-1.265,3.054
				c0,1.154,0.449,2.238,1.265,3.055l53.52,53.521c1.172,1.171,1.172,3.071,0,4.242l-53.52,53.52c-1.684,1.685-1.684,4.425,0,6.109
				l8.984,8.984c1.686,1.684,4.424,1.684,6.109,0l66.635-66.635c1.096-1.096,1.698-2.552,1.698-4.1c0-1.549-0.603-3.005-1.698-4.1
				L53.013,8.263c-0.816-0.815-1.9-1.265-3.055-1.265S47.72,7.447,46.903,8.263L46.903,8.263z"/>
		</g>
	</g>
</g>
</svg>
