<?xml version="1.0" encoding="utf-8"?>
<!-- Generator: Adobe Illustrator 24.2.3, SVG Export Plug-In . SVG Version: 6.00 Build 0)  -->
<svg version="1.1" id="Layer_1" xmlns="http://www.w3.org/2000/svg" xmlns:xlink="http://www.w3.org/1999/xlink" x="0px" y="0px"
	 viewBox="0 0 158 158" style="enable-background:new 0 0 158 158;" xml:space="preserve">
<style type="text/css">
	.st0{fill:#2D3E50;}
</style>
<g>
	<g>
		<g>
			<path class="st0" d="M79,127.343c-3.151,0-6.114-1.228-8.343-3.456L4.022,57.252C2.073,55.303,1,52.713,1,49.956
				s1.073-5.348,3.022-7.297l8.985-8.985c4.023-4.022,10.569-4.022,14.593-0.001L79,85.073l51.399-51.399
				c4.023-4.022,10.569-4.022,14.593-0.001l8.985,8.986c1.949,1.949,3.022,4.54,3.022,7.297s-1.073,5.348-3.022,7.297
				l-66.635,66.635C85.114,126.116,82.151,127.343,79,127.343z M20.305,36.654c-1.106,0-2.213,0.421-3.055,1.263l-8.985,8.984
				C7.449,47.717,7,48.801,7,49.956c0,1.153,0.449,2.238,1.265,3.053L74.9,119.645c1.096,1.096,2.551,1.698,4.1,1.698
				s3.005-0.604,4.101-1.698l66.635-66.636c0.815-0.815,1.265-1.9,1.265-3.054c0-1.154-0.449-2.238-1.265-3.055l-8.985-8.985
				c-1.686-1.683-4.427-1.683-6.108,0.001l-53.521,53.52c-1.172,1.172-3.07,1.172-4.242,0L23.358,37.916
				C22.517,37.075,21.41,36.654,20.305,36.654z"/>
		</g>
	</g>
</g>
</svg>
