<?xml version="1.0" encoding="utf-8"?>
<!-- Generator: Adobe Illustrator 24.2.3, SVG Export Plug-In . SVG Version: 6.00 Build 0)  -->
<svg version="1.1" id="Layer_1" xmlns="http://www.w3.org/2000/svg" xmlns:xlink="http://www.w3.org/1999/xlink" x="0px" y="0px"
	 viewBox="0 0 158 158" style="enable-background:new 0 0 158 158;" xml:space="preserve">
<style type="text/css">
	.st0{fill:#2D3E50;}
</style>
<g>
	<path class="st0" d="M79,1C35.99,1,1,35.99,1,79s34.99,78,78,78c43.01,0,78-34.99,78-78S122.01,1,79,1z M79,151
		c-39.7,0-72-32.3-72-72C7,39.3,39.3,7,79,7c39.7,0,72,32.3,72,72C151,118.7,118.7,151,79,151z"/>
	<path class="st0" d="M89.5,79c0-4.75-3.17-8.77-7.5-10.06V14h-6v54.94c-4.33,1.29-7.5,5.31-7.5,10.06c0,5.79,4.71,10.5,10.5,10.5
		c1.62,0,3.15-0.37,4.53-1.03l18.73,17.71l4.13-4.36l-18.4-17.39C88.94,82.85,89.5,80.99,89.5,79z M79,83.5
		c-0.27,0-0.54-0.02-0.8-0.07c-2.1-0.38-3.7-2.22-3.7-4.43c0-1.33,0.58-2.52,1.5-3.34c0.79-0.73,1.85-1.16,3-1.16
		c1.15,0,2.21,0.43,3,1.16c0.92,0.82,1.5,2.01,1.5,3.34c0,0.37-0.04,0.72-0.13,1.06C82.89,82.03,81.11,83.5,79,83.5z"/>
	<rect x="14.003" y="75.997" class="st0" width="9.807" height="6"/>
	<rect x="76.003" y="134.191" class="st0" width="6" height="9.807"/>
	<rect x="134.196" y="75.997" class="st0" width="9.807" height="6"/>
</g>
</svg>
