<?xml version="1.0" encoding="utf-8"?>
<!-- Generator: Adobe Illustrator 24.2.3, SVG Export Plug-In . SVG Version: 6.00 Build 0)  -->
<svg version="1.1" id="Layer_1" xmlns="http://www.w3.org/2000/svg" xmlns:xlink="http://www.w3.org/1999/xlink" x="0px" y="0px"
	 viewBox="0 0 158 158" style="enable-background:new 0 0 158 158;" xml:space="preserve">
<style type="text/css">
	.st0{fill:none;stroke:#2D3E50;stroke-width:6;stroke-miterlimit:10;}
	.st1{fill:none;stroke:#2D3E50;stroke-width:6;stroke-linejoin:round;stroke-miterlimit:10;}
	.st2{fill-rule:evenodd;clip-rule:evenodd;fill:none;stroke:#2D3E50;stroke-width:6;stroke-linejoin:round;stroke-miterlimit:10;}
	.st3{fill-rule:evenodd;clip-rule:evenodd;fill:none;stroke:#2D3E50;stroke-width:6;stroke-miterlimit:10;}
	.st4{fill:#FFFFFF;stroke:#2D3E50;stroke-width:6;stroke-miterlimit:10;}
	.st5{fill:none;stroke:#2D3E50;stroke-width:6;stroke-linecap:round;stroke-linejoin:round;stroke-miterlimit:10;}
	.st6{fill:#2D3E50;}
	.st7{fill:none;stroke:#2D3E50;stroke-width:6;stroke-linecap:round;stroke-miterlimit:10;}
	.st8{fill:none;stroke:#2D3E50;stroke-width:6;stroke-miterlimit:10;stroke-dasharray:9;}
</style>
<g>
	<path class="st1" d="M39.807,55.562v-36.33c0-7.345,5.952-13.297,13.297-13.297h87.599c7.345,0,13.297,5.952,13.297,13.297v50.506
		c0,3.668-1.49,6.997-3.89,9.406c-2.41,2.4-5.729,3.89-9.406,3.89l0.3,19.403l-22.814-13.923"/>
	<path class="st1" d="M104.894,132.656H48.791L16.99,152.065l0.305-19.409h0C9.952,132.656,4,126.704,4,119.361V68.857
		c0-7.343,5.952-13.295,13.295-13.295h87.599c7.343,0,13.295,5.952,13.295,13.295v50.504
		C118.189,126.704,112.237,132.656,104.894,132.656z"/>
</g>
</svg>
