<?xml version="1.0" encoding="utf-8"?>
<!-- Generator: Adobe Illustrator 24.2.3, SVG Export Plug-In . SVG Version: 6.00 Build 0)  -->
<svg version="1.1" id="Layer_1" xmlns="http://www.w3.org/2000/svg" xmlns:xlink="http://www.w3.org/1999/xlink" x="0px" y="0px"
	 viewBox="0 0 158 158" style="enable-background:new 0 0 158 158;" xml:space="preserve">
<style type="text/css">
	.st0{fill:none;stroke:#2D3E50;stroke-width:6;stroke-miterlimit:10;}
	.st1{fill:none;stroke:#2D3E50;stroke-width:6;stroke-linejoin:round;stroke-miterlimit:10;}
	.st2{fill-rule:evenodd;clip-rule:evenodd;fill:none;stroke:#2D3E50;stroke-width:6;stroke-linejoin:round;stroke-miterlimit:10;}
	.st3{fill-rule:evenodd;clip-rule:evenodd;fill:none;stroke:#2D3E50;stroke-width:6;stroke-miterlimit:10;}
	.st4{fill:#FFFFFF;stroke:#2D3E50;stroke-width:6;stroke-miterlimit:10;}
	.st5{fill:none;stroke:#2D3E50;stroke-width:6;stroke-linecap:round;stroke-linejoin:round;stroke-miterlimit:10;}
	.st6{fill:#2D3E50;}
	.st7{fill:none;stroke:#2D3E50;stroke-width:6;stroke-linecap:round;stroke-miterlimit:10;}
	.st8{fill:none;stroke:#2D3E50;stroke-width:6;stroke-miterlimit:10;stroke-dasharray:9;}
</style>
<g>
	<path class="st1" d="M129.418,45.327c-0.06-1.336-0.015-2.655,0.106-3.957c-3.82,0.946-7.741,1.461-11.69,1.461
		c-24.366,0-43.462-16.559-49.947-38.418C31.737,9.783,4,40.943,4,78.588c0,41.421,33.579,75,75,75s75-33.579,75-75
		c0-0.133-0.007-0.264-0.008-0.396C139.86,73.929,130.103,60.607,129.418,45.327z"/>
	<circle class="st0" cx="92.901" cy="70.593" r="11.593"/>
	<circle class="st0" cx="48.987" cy="108.86" r="11.593"/>
	<circle class="st0" cx="40.732" cy="53.39" r="6.759"/>
	<circle class="st0" cx="125.81" cy="97.508" r="5.01"/>
	<circle class="st0" cx="89" cy="129" r="5.01"/>
</g>
</svg>
