<?xml version="1.0" encoding="utf-8"?>
<!-- Generator: Adobe Illustrator 24.2.3, SVG Export Plug-In . SVG Version: 6.00 Build 0)  -->
<svg version="1.1" id="Layer_1" xmlns="http://www.w3.org/2000/svg" xmlns:xlink="http://www.w3.org/1999/xlink" x="0px" y="0px"
	 viewBox="0 0 158 158" style="enable-background:new 0 0 158 158;" xml:space="preserve">
<style type="text/css">
	.st0{fill:#2D3E50;}
</style>
<g>
	<path class="st0" d="M79,1C35.99,1,1,35.99,1,79c0,43.01,34.99,78,78,78s78-34.991,78-78C157,35.99,122.01,1,79,1z M79,151
		c-39.701,0-72-32.299-72-72S39.299,7,79,7s72,32.299,72,72S118.701,151,79,151z"/>
	<path class="st0" d="M78.449,114.677c-19.673,0-35.678-16.005-35.678-35.677s16.005-35.677,35.678-35.677
		c11.483,0,22.334,5.582,29.026,14.93l4.879-3.492c-7.815-10.919-20.491-17.438-33.905-17.438
		c-22.981,0-41.678,18.696-41.678,41.677s18.696,41.677,41.678,41.677c13.76,0,26.625-6.789,34.413-18.159l-4.949-3.391
		C101.243,108.864,90.229,114.677,78.449,114.677z"/>
</g>
</svg>
