<?xml version="1.0" encoding="utf-8"?>
<!-- Generator: Adobe Illustrator 24.2.3, SVG Export Plug-In . SVG Version: 6.00 Build 0)  -->
<svg version="1.1" id="Layer_1" xmlns="http://www.w3.org/2000/svg" xmlns:xlink="http://www.w3.org/1999/xlink" x="0px" y="0px"
	 viewBox="0 0 158 158" style="enable-background:new 0 0 158 158;" xml:space="preserve">
<style type="text/css">
	.st0{fill:none;stroke:#2D3E50;stroke-width:6;stroke-miterlimit:10;}
	.st1{fill:none;stroke:#2D3E50;stroke-width:6;stroke-linejoin:round;stroke-miterlimit:10;}
	.st2{fill-rule:evenodd;clip-rule:evenodd;fill:none;stroke:#2D3E50;stroke-width:6;stroke-linejoin:round;stroke-miterlimit:10;}
	.st3{fill-rule:evenodd;clip-rule:evenodd;fill:none;stroke:#2D3E50;stroke-width:6;stroke-miterlimit:10;}
	.st4{fill:#FFFFFF;stroke:#2D3E50;stroke-width:6;stroke-miterlimit:10;}
	.st5{fill:none;stroke:#2D3E50;stroke-width:6;stroke-linecap:round;stroke-linejoin:round;stroke-miterlimit:10;}
	.st6{fill:#2D3E50;}
	.st7{fill:none;stroke:#2D3E50;stroke-width:6;stroke-linecap:round;stroke-miterlimit:10;}
	.st8{fill:none;stroke:#2D3E50;stroke-width:6;stroke-miterlimit:10;stroke-dasharray:9;}
</style>
<g>
	<g>
		<path class="st1" d="M60.734,119.636c-3.573,0.512-7.013,2.138-9.759,4.883c-6.742,6.742-6.742,17.68,0,24.422
			c6.742,6.742,17.68,6.742,24.422,0c6.742-6.742,6.742-17.68,0-24.422c-0.988-0.988-2.072-1.838-3.221-2.533
			c-0.11-0.11,2.043-9.319,5.19-22.497c54.467-4.334,74.167-41.37,74.167-41.37S115.23,66.97,83.334,74.664
			C91.035,42.775,99.886,6.471,99.886,6.471S62.843,26.164,58.509,80.63c-13.177,3.148-22.387,5.3-22.497,5.19v0.015v-0.015
			c-0.695-1.149-1.545-2.233-2.533-3.221c-6.742-6.742-17.68-6.742-24.422,0s-6.742,17.68,0,24.422
			c6.742,6.742,17.68,6.742,24.422,0c2.745-2.745,4.371-6.186,4.883-9.759v-0.015v0.015c7.043,1.259,13.697,2.028,19.978,2.394
			C58.707,105.938,59.475,112.593,60.734,119.636z"/>
		<circle class="st0" cx="70.591" cy="87.411" r="5.191"/>
	</g>
	<line class="st8" x1="95.434" y1="62.569" x2="154" y2="4.002"/>
	<line class="st8" x1="4.564" y1="153.438" x2="49.422" y2="108.581"/>
</g>
</svg>
