<?xml version="1.0" encoding="utf-8"?>
<!-- Generator: Adobe Illustrator 24.2.3, SVG Export Plug-In . SVG Version: 6.00 Build 0)  -->
<svg version="1.1" id="Layer_1" xmlns="http://www.w3.org/2000/svg" xmlns:xlink="http://www.w3.org/1999/xlink" x="0px" y="0px"
	 viewBox="0 0 158 158" style="enable-background:new 0 0 158 158;" xml:space="preserve">
<style type="text/css">
	.st0{fill:none;stroke:#2D3E50;stroke-width:6;stroke-miterlimit:10;}
	.st1{fill:none;stroke:#2D3E50;stroke-width:6;stroke-linejoin:round;stroke-miterlimit:10;}
	.st2{fill-rule:evenodd;clip-rule:evenodd;fill:none;stroke:#2D3E50;stroke-width:6;stroke-linejoin:round;stroke-miterlimit:10;}
	.st3{fill-rule:evenodd;clip-rule:evenodd;fill:none;stroke:#2D3E50;stroke-width:6;stroke-miterlimit:10;}
	.st4{fill:#FFFFFF;stroke:#2D3E50;stroke-width:6;stroke-miterlimit:10;}
	.st5{fill:none;stroke:#2D3E50;stroke-width:6;stroke-linecap:round;stroke-linejoin:round;stroke-miterlimit:10;}
	.st6{fill:#2D3E50;}
	.st7{fill:none;stroke:#2D3E50;stroke-width:6;stroke-linecap:round;stroke-miterlimit:10;}
	.st8{fill:none;stroke:#2D3E50;stroke-width:6;stroke-miterlimit:10;stroke-dasharray:9;}
</style>
<g>
	<line class="st0" x1="120.25" y1="24.623" x2="37.75" y2="24.623"/>
	<path class="st0" d="M131.5,24.623h7.5c8.28,0,15,6.72,15,15v90c0,8.29-6.72,15-15,15H19c-8.28,0-15-6.71-15-15v-90
		c0-8.28,6.72-15,15-15h7.5"/>
	<path class="st0" d="M32.125,35.877L32.125,35.877c-3.107,0-5.625-2.518-5.625-5.625v-11.25c0-3.107,2.518-5.625,5.625-5.625h0
		c3.107,0,5.625,2.518,5.625,5.625v11.25C37.75,33.359,35.231,35.877,32.125,35.877z"/>
	<path class="st0" d="M125.875,35.877L125.875,35.877c3.107,0,5.625-2.518,5.625-5.625v-11.25c0-3.107-2.518-5.625-5.625-5.625h0
		c-3.107,0-5.625,2.518-5.625,5.625v11.25C120.25,33.359,122.768,35.877,125.875,35.877z"/>
	<line class="st4" x1="4" y1="54.627" x2="153.999" y2="54.627"/>
	<rect x="17.375" y="71.752" class="st0" width="17" height="17"/>
	<rect x="17.375" y="107.169" class="st0" width="17" height="17"/>
	<rect x="52.791" y="71.752" class="st0" width="17" height="17"/>
	<rect x="52.791" y="107.169" class="st0" width="17" height="17"/>
	<rect x="88.208" y="71.752" class="st0" width="17" height="17"/>
	<rect x="88.208" y="107.169" class="st0" width="17" height="17"/>
	<rect x="123.625" y="71.752" class="st0" width="17" height="17"/>
	<rect x="123.625" y="107.169" class="st0" width="17" height="17"/>
</g>
</svg>
