<?xml version="1.0" encoding="utf-8"?>
<!-- Generator: Adobe Illustrator 24.2.3, SVG Export Plug-In . SVG Version: 6.00 Build 0)  -->
<svg version="1.1" id="Layer_1" xmlns="http://www.w3.org/2000/svg" xmlns:xlink="http://www.w3.org/1999/xlink" x="0px" y="0px"
	 viewBox="0 0 158 158" style="enable-background:new 0 0 158 158;" xml:space="preserve">
<style type="text/css">
	.st0{fill:none;stroke:#2D3E50;stroke-width:6;stroke-miterlimit:10;}
	.st1{fill:none;stroke:#2D3E50;stroke-width:6;stroke-linejoin:round;stroke-miterlimit:10;}
	.st2{fill-rule:evenodd;clip-rule:evenodd;fill:none;stroke:#2D3E50;stroke-width:6;stroke-linejoin:round;stroke-miterlimit:10;}
	.st3{fill-rule:evenodd;clip-rule:evenodd;fill:none;stroke:#2D3E50;stroke-width:6;stroke-miterlimit:10;}
	.st4{fill:#FFFFFF;stroke:#2D3E50;stroke-width:6;stroke-miterlimit:10;}
	.st5{fill:none;stroke:#2D3E50;stroke-width:6;stroke-linecap:round;stroke-linejoin:round;stroke-miterlimit:10;}
	.st6{fill:#2D3E50;}
	.st7{fill:none;stroke:#2D3E50;stroke-width:6;stroke-linecap:round;stroke-miterlimit:10;}
	.st8{fill:none;stroke:#2D3E50;stroke-width:6;stroke-miterlimit:10;stroke-dasharray:9;}
</style>
<g>
	<path class="st0" d="M131.496,24.625h7.5c8.29,0,15,6.72,15,15v89.997c0,8.29-6.71,15-15,15H19c-8.28,0-15-6.71-15-15V39.624
		c0-8.28,6.72-15,15-15h7.5"/>
	<line class="st0" x1="120.246" y1="24.625" x2="37.749" y2="24.625"/>
	<path class="st0" d="M32.129,35.878L32.129,35.878c-3.107,0-5.625-2.518-5.625-5.625v-11.25c0-3.107,2.518-5.625,5.625-5.625h0
		c3.107,0,5.625,2.518,5.625,5.625v11.25C37.754,33.36,35.235,35.878,32.129,35.878z"/>
	<path class="st0" d="M125.876,35.878L125.876,35.878c3.107,0,5.625-2.518,5.625-5.625v-11.25c0-3.107-2.518-5.625-5.625-5.625h0
		c-3.107,0-5.625,2.518-5.625,5.625v11.25C120.251,33.36,122.769,35.878,125.876,35.878z"/>
	<line class="st0" x1="4.005" y1="54.628" x2="154" y2="54.628"/>
	<g>
		<g>
			<g>
				<path class="st0" d="M54.06,110.448c-1-2.793-1.549-5.803-1.549-8.944c0-14.634,11.862-26.491,26.491-26.491
					c0.971,0,1.93,0.052,2.874,0.154"/>
				<g>
					<polygon class="st6" points="76.429,83.367 93.989,79.66 82,66.304 					"/>
				</g>
			</g>
		</g>
		<g>
			<g>
				<path class="st0" d="M104.026,92.799c0.951,2.722,1.467,5.657,1.467,8.705c0,14.628-11.862,26.485-26.491,26.485
					c-0.919,0-1.828-0.047-2.723-0.139"/>
				<g>
					<polygon class="st6" points="81.679,119.622 64.141,123.429 76.206,136.716 					"/>
				</g>
			</g>
		</g>
	</g>
</g>
</svg>
