<?xml version="1.0" encoding="utf-8"?>
<!-- Generator: Adobe Illustrator 24.2.3, SVG Export Plug-In . SVG Version: 6.00 Build 0)  -->
<svg version="1.1" id="Layer_1" xmlns="http://www.w3.org/2000/svg" xmlns:xlink="http://www.w3.org/1999/xlink" x="0px" y="0px"
	 viewBox="0 0 158 158" style="enable-background:new 0 0 158 158;" xml:space="preserve">
<style type="text/css">
	.st0{fill:none;stroke:#2D3E50;stroke-width:6;stroke-miterlimit:10;}
	.st1{fill:none;stroke:#2D3E50;stroke-width:6;stroke-linejoin:round;stroke-miterlimit:10;}
	.st2{fill-rule:evenodd;clip-rule:evenodd;fill:none;stroke:#2D3E50;stroke-width:6;stroke-linejoin:round;stroke-miterlimit:10;}
	.st3{fill-rule:evenodd;clip-rule:evenodd;fill:none;stroke:#2D3E50;stroke-width:6;stroke-miterlimit:10;}
	.st4{fill:#FFFFFF;stroke:#2D3E50;stroke-width:6;stroke-miterlimit:10;}
	.st5{fill:none;stroke:#2D3E50;stroke-width:6;stroke-linecap:round;stroke-linejoin:round;stroke-miterlimit:10;}
	.st6{fill:#2D3E50;}
	.st7{fill:none;stroke:#2D3E50;stroke-width:6;stroke-linecap:round;stroke-miterlimit:10;}
	.st8{fill:none;stroke:#2D3E50;stroke-width:6;stroke-miterlimit:10;stroke-dasharray:9;}
</style>
<g id="_x39_1-discord_1_">
	<g>
		<path class="st1" d="M144.625,19.45V154c-18.895-16.698-12.852-11.17-34.801-31.575l1.431,13.875H28.75
			c-8.475,0-15.375-6.899-15.375-15.45V19.45C13.375,10.9,20.274,4,28.75,4h100.5C137.725,4,144.625,10.9,144.625,19.45z"/>
		<path class="st1" d="M104.938,50.209c-15.422-9.212-33.537-9.213-48.496-2.052c-2.402,1.203-3.83,2.052-3.83,2.052 M93.545,93.67
			c2.251,2.85,6.755,8.28,6.755,8.28c16.575-0.525,22.95-11.4,22.95-11.4c0-24.149-10.8-43.725-10.8-43.725
			c-10.8-8.1-21.075-7.875-21.075-7.875v4.999 M50.425,86.875c1.103,0.771,2.923,1.773,3.075,1.875
			c12.659,7.09,30.641,9.412,46.8,2.625c2.624-0.975,5.55-2.4,8.625-4.425 M67.525,44.329V38.95c0,0-10.275-0.225-21.075,7.875
			c0,0-10.8,19.575-10.8,43.725c0,0,6.3,10.875,22.875,11.4c0,0,4.651-5.558,6.901-8.408 M65.425,83.575
			c-4.2,0-7.65-3.75-7.65-8.325c0-4.575,3.375-8.325,7.65-8.325c4.275,0,7.725,3.75,7.65,8.325
			C73.075,79.825,69.7,83.575,65.425,83.575z M92.8,83.575c-4.2,0-7.65-3.75-7.65-8.325c0-4.575,3.375-8.325,7.65-8.325
			c4.275,0,7.65,3.75,7.65,8.325C100.45,79.825,97.075,83.575,92.8,83.575z"/>
	</g>
</g>
</svg>
