<?xml version="1.0" encoding="utf-8"?>
<!-- Generator: Adobe Illustrator 24.2.3, SVG Export Plug-In . SVG Version: 6.00 Build 0)  -->
<svg version="1.1" id="Layer_1" xmlns="http://www.w3.org/2000/svg" xmlns:xlink="http://www.w3.org/1999/xlink" x="0px" y="0px"
	 viewBox="0 0 158 158" style="enable-background:new 0 0 158 158;" xml:space="preserve">
<style type="text/css">
	.st0{fill:none;stroke:#2D3E50;stroke-width:6;stroke-miterlimit:10;}
	.st1{fill:none;stroke:#2D3E50;stroke-width:6;stroke-linejoin:round;stroke-miterlimit:10;}
	.st2{fill-rule:evenodd;clip-rule:evenodd;fill:none;stroke:#2D3E50;stroke-width:6;stroke-linejoin:round;stroke-miterlimit:10;}
	.st3{fill-rule:evenodd;clip-rule:evenodd;fill:none;stroke:#2D3E50;stroke-width:6;stroke-miterlimit:10;}
	.st4{fill:#FFFFFF;stroke:#2D3E50;stroke-width:6;stroke-miterlimit:10;}
	.st5{fill:none;stroke:#2D3E50;stroke-width:6;stroke-linecap:round;stroke-linejoin:round;stroke-miterlimit:10;}
	.st6{fill:#2D3E50;}
	.st7{fill:none;stroke:#2D3E50;stroke-width:6;stroke-linecap:round;stroke-miterlimit:10;}
	.st8{fill:none;stroke:#2D3E50;stroke-width:6;stroke-miterlimit:10;stroke-dasharray:9;}
</style>
<g>
	<path id="DRIBBBLE_2_" class="st2" d="M87.743,54.698C77.447,35.775,66.001,20.246,64.276,17.945
		c4.716-1.093,9.663-1.726,14.724-1.726c15.99,0,30.599,5.982,41.7,15.817C119.55,33.647,110.117,46.301,87.743,54.698z
		 M75.607,58.494c-10.411-18.521-21.684-34.05-23.295-36.293C34.654,30.484,21.54,46.703,17.457,66.144
		C20.275,66.202,46.158,66.317,75.607,58.494z M83.429,79.546c0.805-0.288,1.668-0.518,2.473-0.748
		c-1.553-3.566-3.278-7.132-5.119-10.641c-31.404,9.375-61.888,8.973-64.649,8.915c0,0.633-0.058,1.265-0.058,1.898
		c0.058,16.162,6.154,30.887,16.22,42.045C33.734,118.6,50.989,90.071,83.429,79.546z M89.756,89.324
		c-35.488,12.366-48.199,36.926-49.35,39.227c10.641,8.282,24.042,13.229,38.594,13.229c8.685,0.058,17.025-1.726,24.56-4.946
		c-0.92-5.522-4.601-24.732-13.402-47.624C90.043,89.266,89.871,89.324,89.756,89.324z M101.892,86.275
		c8.225,22.547,11.561,40.952,12.194,44.748c14.149-9.49,24.215-24.56,26.976-42.045C138.933,88.288,121.62,83.169,101.892,86.275z
		 M92.574,64.074c1.438,2.991,2.876,6.039,4.199,9.088c0.46,1.093,0.92,2.186,1.38,3.221c20.936-2.646,41.7,1.61,43.771,2.013
		c-0.173-14.782-5.464-28.413-14.264-39.112C126.337,41.067,115.811,54.583,92.574,64.074z"/>
	<circle class="st2" cx="79" cy="79" r="75"/>
</g>
</svg>
