<?xml version="1.0" encoding="utf-8"?>
<!-- Generator: Adobe Illustrator 24.2.3, SVG Export Plug-In . SVG Version: 6.00 Build 0)  -->
<svg version="1.1" id="Layer_1" xmlns="http://www.w3.org/2000/svg" xmlns:xlink="http://www.w3.org/1999/xlink" x="0px" y="0px"
	 viewBox="0 0 158 158" style="enable-background:new 0 0 158 158;" xml:space="preserve">
<style type="text/css">
	.st0{fill:#2D3E50;}
</style>
<path class="st0" d="M152.712,59.738l-48.156-48.148C97.728,4.76,88.65,1,78.993,1c-9.656,0-18.735,3.76-25.563,10.589L5.287,59.728
	c-2.181,2.181-3.382,5.08-3.382,8.165v81.443c0,4.226,3.563,7.663,7.94,7.663h138.31c4.378,0,7.94-3.438,7.94-7.663V67.903
	C156.095,64.864,154.862,61.887,152.712,59.738z M57.671,15.832C63.367,10.136,70.939,7,78.993,7c8.055,0,15.626,3.136,21.321,8.831
	L148.47,63.98c0.428,0.429,0.76,0.937,1.026,1.476l-37.336,26.61c-2.207,1.573-4.403,3.157-6.599,4.741
	c-4.28,3.088-8.706,6.28-13.146,9.331c-8.281,5.69-19.208,5.408-27.843-0.721C51.675,96.262,38.812,87.083,25.95,77.903
	C20.132,73.751,14.315,69.6,8.494,65.451c0.265-0.538,0.599-1.044,1.035-1.48L57.671,15.832z M148.155,151H9.845
	c-1.052,0-1.94-0.762-1.94-1.663V72.401c4.854,3.461,9.707,6.923,14.56,10.386c12.866,9.183,25.733,18.366,38.636,27.523
	c5.551,3.94,11.883,5.919,18.143,5.919c5.817,0,11.572-1.71,16.571-5.146c4.496-3.09,8.95-6.303,13.258-9.41
	c2.187-1.577,4.373-3.154,6.571-4.721l34.452-24.554v76.938C150.095,150.238,149.207,151,148.155,151z"/>
</svg>
