<?xml version="1.0" encoding="utf-8"?>
<!-- Generator: Adobe Illustrator 24.2.3, SVG Export Plug-In . SVG Version: 6.00 Build 0)  -->
<svg version="1.1" id="Layer_1" xmlns="http://www.w3.org/2000/svg" xmlns:xlink="http://www.w3.org/1999/xlink" x="0px" y="0px"
	 viewBox="0 0 158 158" style="enable-background:new 0 0 158 158;" xml:space="preserve">
<style type="text/css">
	.st0{fill:none;stroke:#2D3E50;stroke-width:6;stroke-miterlimit:10;}
	.st1{fill:none;stroke:#2D3E50;stroke-width:6;stroke-linejoin:round;stroke-miterlimit:10;}
	.st2{fill-rule:evenodd;clip-rule:evenodd;fill:none;stroke:#2D3E50;stroke-width:6;stroke-linejoin:round;stroke-miterlimit:10;}
	.st3{fill-rule:evenodd;clip-rule:evenodd;fill:none;stroke:#2D3E50;stroke-width:6;stroke-miterlimit:10;}
	.st4{fill:#FFFFFF;stroke:#2D3E50;stroke-width:6;stroke-miterlimit:10;}
	.st5{fill:none;stroke:#2D3E50;stroke-width:6;stroke-linecap:round;stroke-linejoin:round;stroke-miterlimit:10;}
	.st6{fill:#2D3E50;}
	.st7{fill:none;stroke:#2D3E50;stroke-width:6;stroke-linecap:round;stroke-miterlimit:10;}
	.st8{fill:none;stroke:#2D3E50;stroke-width:6;stroke-miterlimit:10;stroke-dasharray:9;}
</style>
<g>
	<g>
		<line class="st0" x1="89.17" y1="124.529" x2="95.17" y2="124.529"/>
		<line class="st0" x1="89.17" y1="99.401" x2="95.17" y2="99.401"/>
		<line class="st0" x1="89.17" y1="111.103" x2="95.17" y2="111.103"/>
	</g>
	<g>
		<line class="st0" x1="105.217" y1="124.529" x2="111.217" y2="124.529"/>
		<line class="st0" x1="105.217" y1="99.401" x2="111.217" y2="99.401"/>
		<line class="st0" x1="105.217" y1="111.103" x2="111.217" y2="111.103"/>
	</g>
	<g>
		<line class="st0" x1="121.264" y1="124.529" x2="127.264" y2="124.529"/>
		<line class="st0" x1="121.264" y1="99.401" x2="127.264" y2="99.401"/>
		<line class="st0" x1="121.264" y1="111.103" x2="127.264" y2="111.103"/>
	</g>
	<g>
		<line class="st0" x1="73.123" y1="124.529" x2="79.123" y2="124.529"/>
		<line class="st0" x1="73.123" y1="99.401" x2="79.123" y2="99.401"/>
		<line class="st0" x1="73.123" y1="111.103" x2="79.123" y2="111.103"/>
	</g>
	<path class="st0" d="M131.13,53.028h16.63c3.45,0,6.24,2.79,6.24,6.24v70.55c0,3.45-2.79,6.24-6.24,6.24H47.66"/>
	<line class="st0" x1="68.92" y1="53.028" x2="47.66" y2="53.028"/>
	<path class="st0" d="M16.52,136.058h-6.28c-3.45,0-6.24-2.79-6.24-6.24v-70.55c0-3.45,2.79-6.24,6.24-6.24h6.28"/>
	<path class="st0" d="M42.437,146.439H21.745c-2.885,0-5.223-2.339-5.223-5.223V47.868c0-2.885,2.339-5.223,5.223-5.223h20.692
		c2.885,0,5.223,2.339,5.223,5.223v93.348C47.66,144.101,45.322,146.439,42.437,146.439z"/>
	<polygon class="st0" points="131.131,84.552 131.131,25.307 118.689,11.561 68.921,11.561 68.921,84.552 	"/>
	<line class="st0" x1="81.363" y1="28.92" x2="118.689" y2="28.92"/>
	<line class="st0" x1="81.363" y1="53.357" x2="118.689" y2="53.357"/>
	<line class="st0" x1="81.363" y1="41.139" x2="118.689" y2="41.139"/>
</g>
</svg>
