<?xml version="1.0" encoding="utf-8"?>
<!-- Generator: Adobe Illustrator 24.2.3, SVG Export Plug-In . SVG Version: 6.00 Build 0)  -->
<svg version="1.1" id="Layer_1" xmlns="http://www.w3.org/2000/svg" xmlns:xlink="http://www.w3.org/1999/xlink" x="0px" y="0px"
	 viewBox="0 0 158 158" style="enable-background:new 0 0 158 158;" xml:space="preserve">
<style type="text/css">
	.st0{fill:none;stroke:#2D3E50;stroke-width:6;stroke-miterlimit:10;}
	.st1{fill:none;stroke:#2D3E50;stroke-width:6;stroke-linejoin:round;stroke-miterlimit:10;}
	.st2{fill-rule:evenodd;clip-rule:evenodd;fill:none;stroke:#2D3E50;stroke-width:6;stroke-linejoin:round;stroke-miterlimit:10;}
	.st3{fill-rule:evenodd;clip-rule:evenodd;fill:none;stroke:#2D3E50;stroke-width:6;stroke-miterlimit:10;}
	.st4{fill:#FFFFFF;stroke:#2D3E50;stroke-width:6;stroke-miterlimit:10;}
	.st5{fill:none;stroke:#2D3E50;stroke-width:6;stroke-linecap:round;stroke-linejoin:round;stroke-miterlimit:10;}
	.st6{fill:#2D3E50;}
	.st7{fill:none;stroke:#2D3E50;stroke-width:6;stroke-linecap:round;stroke-miterlimit:10;}
	.st8{fill:none;stroke:#2D3E50;stroke-width:6;stroke-miterlimit:10;stroke-dasharray:9;}
</style>
<g id="comp_x5F_136-foursquare">
	<g>
		<path class="st1" d="M120.419,4H39.063c-11.167,0-14.86,8.427-14.86,13.728v126.727c0,6.045,3.604,8.249,5.42,8.964
			c1.846,0.745,6.789,1.37,9.797-2.113c38.385-44.491,39.04-45.235,39.04-45.235c0.923-1.013,1.012-0.923,2.025-0.923h24.836
			c10.453,0,12.09-7.505,13.193-11.822l14.473-69.909C135.518,10.789,132.331,4,120.419,4z M115.565,25.977l-3.394,17.778
			c-0.357,1.935-2.829,3.931-5.033,3.931H75.453c-3.573,0-6.134,2.472-6.134,6.045v3.871c0,3.573,2.561,6.134,6.134,6.134h26.92
			c2.472,0,4.943,2.74,4.408,5.42c-0.536,2.651-3.127,13.567-3.395,15.056c-0.268,1.46-2.024,4.02-5.033,4.02H76.465
			c-4.02,0-5.122,0.537-7.891,3.752c0,0-2.65,3.394-26.652,32.251c-0.268,0.268-0.536,0.179-0.536-0.09V25.709
			c0-2.292,2.025-4.943,4.943-4.943h65.216C113.987,20.766,116.191,23.059,115.565,25.977L115.565,25.977z"/>
	</g>
</g>
</svg>
