<?xml version="1.0" encoding="utf-8"?>
<!-- Generator: Adobe Illustrator 24.2.3, SVG Export Plug-In . SVG Version: 6.00 Build 0)  -->
<svg version="1.1" id="Layer_1" xmlns="http://www.w3.org/2000/svg" xmlns:xlink="http://www.w3.org/1999/xlink" x="0px" y="0px"
	 viewBox="0 0 158 158" style="enable-background:new 0 0 158 158;" xml:space="preserve">
<style type="text/css">
	.st0{fill:none;stroke:#2D3E50;stroke-width:6;stroke-miterlimit:10;}
	.st1{fill:none;stroke:#2D3E50;stroke-width:6;stroke-linejoin:round;stroke-miterlimit:10;}
	.st2{fill-rule:evenodd;clip-rule:evenodd;fill:none;stroke:#2D3E50;stroke-width:6;stroke-linejoin:round;stroke-miterlimit:10;}
	.st3{fill-rule:evenodd;clip-rule:evenodd;fill:none;stroke:#2D3E50;stroke-width:6;stroke-miterlimit:10;}
	.st4{fill:#FFFFFF;stroke:#2D3E50;stroke-width:6;stroke-miterlimit:10;}
	.st5{fill:none;stroke:#2D3E50;stroke-width:6;stroke-linecap:round;stroke-linejoin:round;stroke-miterlimit:10;}
	.st6{fill:#2D3E50;}
	.st7{fill:none;stroke:#2D3E50;stroke-width:6;stroke-linecap:round;stroke-miterlimit:10;}
	.st8{fill:none;stroke:#2D3E50;stroke-width:6;stroke-miterlimit:10;stroke-dasharray:9;}
</style>
<g>
	<g>
		<path class="st2" d="M78.989,5.857C37.582,5.857,4,39.438,4,80.846c0,33.142,21.488,61.243,51.284,71.16
			c3.766,0.69,5.126-1.632,5.126-3.599c0-1.8-0.063-7.7-0.105-13.977c-20.861,4.54-25.254-8.829-25.254-8.829
			c-3.411-8.683-8.328-10.985-8.328-10.985c-6.8-4.645,0.523-4.562,0.523-4.562c7.511,0.544,11.487,7.742,11.487,7.742
			c6.696,11.466,17.534,8.139,21.823,6.235c0.669-4.854,2.615-8.16,4.75-10.043c-16.655-1.883-34.147-8.327-34.147-37.055
			c0-8.181,2.93-14.876,7.721-20.128c-0.774-1.883-3.348-9.52,0.732-19.835c0,0,6.298-2.03,20.61,7.679
			c5.984-1.653,12.408-2.49,18.768-2.532c6.382,0.042,12.805,0.879,18.789,2.532c14.311-9.708,20.609-7.679,20.609-7.679
			c4.08,10.315,1.507,17.952,0.732,19.835c4.812,5.252,7.72,11.947,7.72,20.128c0,28.812-17.533,35.151-34.252,37.013
			c2.7,2.323,5.106,6.884,5.106,13.872c0,10.043-0.105,18.12-0.105,20.589c0,1.987,1.36,4.331,5.168,3.599
			C132.532,142.067,154,113.968,154,80.846C154,39.438,120.418,5.857,78.989,5.857z"/>
	</g>
</g>
</svg>
