<?xml version="1.0" encoding="utf-8"?>
<!-- Generator: Adobe Illustrator 24.2.3, SVG Export Plug-In . SVG Version: 6.00 Build 0)  -->
<svg version="1.1" id="Layer_1" xmlns="http://www.w3.org/2000/svg" xmlns:xlink="http://www.w3.org/1999/xlink" x="0px" y="0px"
	 viewBox="0 0 158 158" style="enable-background:new 0 0 158 158;" xml:space="preserve">
<style type="text/css">
	.st0{fill:none;stroke:#2D3E50;stroke-width:6;stroke-miterlimit:10;}
	.st1{fill:none;stroke:#2D3E50;stroke-width:6;stroke-linejoin:round;stroke-miterlimit:10;}
	.st2{fill-rule:evenodd;clip-rule:evenodd;fill:none;stroke:#2D3E50;stroke-width:6;stroke-linejoin:round;stroke-miterlimit:10;}
	.st3{fill-rule:evenodd;clip-rule:evenodd;fill:none;stroke:#2D3E50;stroke-width:6;stroke-miterlimit:10;}
	.st4{fill:#FFFFFF;stroke:#2D3E50;stroke-width:6;stroke-miterlimit:10;}
	.st5{fill:none;stroke:#2D3E50;stroke-width:6;stroke-linecap:round;stroke-linejoin:round;stroke-miterlimit:10;}
	.st6{fill:#2D3E50;}
	.st7{fill:none;stroke:#2D3E50;stroke-width:6;stroke-linecap:round;stroke-miterlimit:10;}
	.st8{fill:none;stroke:#2D3E50;stroke-width:6;stroke-miterlimit:10;stroke-dasharray:9;}
</style>
<g>
	<path id="GMAIL" class="st3" d="M153.994,32.97c0.185-4.987-4.025-8.965-9.002-8.55c-0.799-0.058-131.317-0.048-131.984,0
		c-4.982-0.416-9.187,3.568-9.002,8.55c0,0.05-0.001,0.418-0.001,0.479c0,0-0.005,79.539-0.005,90.452
		c0,5.276,4.241,9.637,9.582,9.712c0.513,0.007,129.763,0.015,130.836,0c5.187-0.073,9.381-4.205,9.564-9.364
		c0.027-0.785,0.014-68.238,0.018-90.804C154,33.444,153.994,33.03,153.994,32.97z M143.106,24.379L79,68.752L14.893,24.379
		 M20.606,133.145V48.528L79,88.946l58.394-40.418v84.617"/>
</g>
</svg>
