<?xml version="1.0" encoding="utf-8"?>
<!-- Generator: Adobe Illustrator 24.2.3, SVG Export Plug-In . SVG Version: 6.00 Build 0)  -->
<svg version="1.1" id="Layer_1" xmlns="http://www.w3.org/2000/svg" xmlns:xlink="http://www.w3.org/1999/xlink" x="0px" y="0px"
	 viewBox="0 0 158 158" style="enable-background:new 0 0 158 158;" xml:space="preserve">
<style type="text/css">
	.st0{fill:none;stroke:#2D3E50;stroke-width:6;stroke-miterlimit:10;}
	.st1{fill:none;stroke:#2D3E50;stroke-width:6;stroke-linejoin:round;stroke-miterlimit:10;}
	.st2{fill-rule:evenodd;clip-rule:evenodd;fill:none;stroke:#2D3E50;stroke-width:6;stroke-linejoin:round;stroke-miterlimit:10;}
	.st3{fill-rule:evenodd;clip-rule:evenodd;fill:none;stroke:#2D3E50;stroke-width:6;stroke-miterlimit:10;}
	.st4{fill:#FFFFFF;stroke:#2D3E50;stroke-width:6;stroke-miterlimit:10;}
	.st5{fill:none;stroke:#2D3E50;stroke-width:6;stroke-linecap:round;stroke-linejoin:round;stroke-miterlimit:10;}
	.st6{fill:#2D3E50;}
	.st7{fill:none;stroke:#2D3E50;stroke-width:6;stroke-linecap:round;stroke-miterlimit:10;}
	.st8{fill:none;stroke:#2D3E50;stroke-width:6;stroke-miterlimit:10;stroke-dasharray:9;}
</style>
<g>
	<g>
		<path class="st0" d="M121.523,154H36.48c-17.615,0-31.944-14.002-31.944-31.214V35.212C4.536,18.002,18.865,4,36.48,4h85.043
			c17.612,0,31.94,14.002,31.94,31.212v87.574C153.464,139.998,139.135,154,121.523,154z"/>
	</g>
	<g>
		<path class="st0" d="M79,47.057c-17.616,0-31.94,14.328-31.94,31.943c0,17.613,14.324,31.941,31.94,31.941
			c17.616,0,31.944-14.328,31.944-31.941C110.944,61.385,96.616,47.057,79,47.057z"/>
	</g>
	<path class="st0" d="M133.677,35.069c0,5.404-4.377,9.784-9.784,9.784c-5.403,0-9.781-4.381-9.781-9.784
		c0-5.403,4.378-9.784,9.781-9.784C129.299,25.285,133.677,29.666,133.677,35.069z"/>
</g>
</svg>
