<?xml version="1.0" encoding="utf-8"?>
<!-- Generator: Adobe Illustrator 24.2.3, SVG Export Plug-In . SVG Version: 6.00 Build 0)  -->
<svg version="1.1" id="Layer_1" xmlns="http://www.w3.org/2000/svg" xmlns:xlink="http://www.w3.org/1999/xlink" x="0px" y="0px"
	 viewBox="0 0 158 158" style="enable-background:new 0 0 158 158;" xml:space="preserve">
<style type="text/css">
	.st0{fill:none;stroke:#2D3E50;stroke-width:6;stroke-miterlimit:10;}
	.st1{fill:none;stroke:#2D3E50;stroke-width:6;stroke-linejoin:round;stroke-miterlimit:10;}
	.st2{fill-rule:evenodd;clip-rule:evenodd;fill:none;stroke:#2D3E50;stroke-width:6;stroke-linejoin:round;stroke-miterlimit:10;}
	.st3{fill-rule:evenodd;clip-rule:evenodd;fill:none;stroke:#2D3E50;stroke-width:6;stroke-miterlimit:10;}
	.st4{fill:#FFFFFF;stroke:#2D3E50;stroke-width:6;stroke-miterlimit:10;}
	.st5{fill:none;stroke:#2D3E50;stroke-width:6;stroke-linecap:round;stroke-linejoin:round;stroke-miterlimit:10;}
	.st6{fill:#2D3E50;}
	.st7{fill:none;stroke:#2D3E50;stroke-width:6;stroke-linecap:round;stroke-miterlimit:10;}
	.st8{fill:none;stroke:#2D3E50;stroke-width:6;stroke-miterlimit:10;stroke-dasharray:9;}
</style>
<g id="XMLID_228_">
	<path id="XMLID_229_" class="st1" d="M24.035,59.14c-12.681,22.006-4.62,55.401,9.404,75.649c7,10.123,14.087,19.21,23.793,19.21
		c0.183,0,0.366-0.003,0.554-0.011c4.56-0.182,7.856-1.586,11.042-2.943c3.577-1.525,7.277-3.101,13.08-3.101
		c5.521,0,9.044,1.525,12.451,3c3.358,1.453,6.817,2.956,11.928,2.86c10.934-0.204,17.647-10.009,23.57-18.66
		c6.18-9.032,9.281-17.801,10.327-21.152l0.042-0.133c0.199-0.596-0.082-1.246-0.653-1.508c-0.016-0.007-0.074-0.031-0.09-0.038
		c-1.925-0.787-18.815-8.28-18.992-28.702c-0.165-16.591,12.67-25.378,15.244-26.97l0.12-0.075c0.279-0.18,0.473-0.464,0.539-0.79
		c0.066-0.325-0.003-0.663-0.19-0.937c-8.859-12.965-22.438-14.919-27.905-15.154c-0.793-0.079-1.612-0.119-2.434-0.119
		c-6.421,0-12.572,2.425-17.514,4.374c-3.411,1.345-6.358,2.507-8.39,2.507c-2.283,0-5.247-1.176-8.678-2.537
		c-4.589-1.821-9.789-3.885-15.295-3.885c-0.131,0-0.261,0.001-0.388,0.004C42.8,40.218,30.704,47.542,24.035,59.14z"/>
	<path id="XMLID_230_" class="st1" d="M108.312,4.001c-7.752,0.316-17.052,5.088-22.61,11.598
		c-4.724,5.472-9.338,14.596-8.123,23.793c0.076,0.575,0.544,1.02,1.123,1.064c0.523,0.041,1.057,0.061,1.59,0.062
		c7.58,0,15.757-4.194,21.342-10.946c5.878-7.13,8.85-16.281,7.951-24.477C109.513,4.453,108.948,3.976,108.312,4.001z"/>
</g>
</svg>
