<?xml version="1.0" encoding="utf-8"?>
<!-- Generator: Adobe Illustrator 24.2.3, SVG Export Plug-In . SVG Version: 6.00 Build 0)  -->
<svg version="1.1" id="Layer_1" xmlns="http://www.w3.org/2000/svg" xmlns:xlink="http://www.w3.org/1999/xlink" x="0px" y="0px"
	 viewBox="0 0 158 158" style="enable-background:new 0 0 158 158;" xml:space="preserve">
<style type="text/css">
	.st0{fill:#2D3E50;}
</style>
<g>
	<path class="st0" d="M98.655,157H29.976c-2.382,0-4.529-1.414-5.471-3.602c-0.941-2.188-0.491-4.72,1.147-6.448l21.691-22.911
		c0.566-0.599,1.354-0.938,2.179-0.938l0,0l23.487,0.001V51.683H52.608c-2.705,0-5.123-1.615-6.158-4.115s-0.468-5.352,1.445-7.265
		L85.247,2.953C86.506,1.694,88.18,1,89.96,1s3.454,0.693,4.713,1.952l37.352,37.351l0,0c1.913,1.913,2.48,4.765,1.445,7.265
		s-3.453,4.115-6.158,4.115h-20.402v97.063C106.909,153.297,103.206,157,98.655,157z M50.814,129.101L30.01,151.075L76.011,151
		h22.645c1.243,0,2.254-1.011,2.254-2.253V48.683c0-1.657,1.343-3,3-3h23.402c0.295,0,0.502-0.139,0.615-0.411
		c0.112-0.273,0.064-0.518-0.145-0.727L90.431,7.195c-0.26-0.26-0.682-0.26-0.941,0L52.138,44.545
		c-0.209,0.209-0.257,0.453-0.145,0.727c0.113,0.272,0.32,0.411,0.615,0.411h23.402c1.657,0,3,1.343,3,3v77.419
		c0,0.796-0.316,1.559-0.879,2.121s-1.325,0.879-2.121,0.879l0,0L50.814,129.101z"/>
</g>
</svg>
