<?xml version="1.0" encoding="utf-8"?>
<!-- Generator: Adobe Illustrator 24.2.3, SVG Export Plug-In . SVG Version: 6.00 Build 0)  -->
<svg version="1.1" id="Layer_1" xmlns="http://www.w3.org/2000/svg" xmlns:xlink="http://www.w3.org/1999/xlink" x="0px" y="0px"
	 viewBox="0 0 158 158" style="enable-background:new 0 0 158 158;" xml:space="preserve">
<style type="text/css">
	.st0{fill:#2D3E50;}
</style>
<g>
	<path class="st0" d="M89.96,157c-1.781,0-3.455-0.694-4.714-1.953l-37.352-37.352c-1.913-1.914-2.479-4.765-1.444-7.265
		c1.035-2.499,3.453-4.114,6.158-4.114h20.402V34.898H49.523c-0.824,0-1.612-0.339-2.179-0.938L25.652,11.049
		c-1.638-1.729-2.087-4.261-1.146-6.448C25.447,2.413,27.595,1,29.977,1h68.679c4.551,0,8.253,3.702,8.253,8.253v97.064h20.402
		c2.706,0,5.123,1.615,6.158,4.114c1.036,2.499,0.469,5.351-1.443,7.265h-0.001l-37.352,37.352C93.414,156.306,91.74,157,89.96,157z
		 M52.609,112.317c-0.295,0-0.502,0.139-0.615,0.411s-0.064,0.517,0.145,0.726l37.351,37.352c0.26,0.261,0.683,0.259,0.942,0
		l37.352-37.352h-0.001c0.209-0.209,0.258-0.453,0.145-0.726c-0.112-0.272-0.319-0.411-0.615-0.411h-23.402c-1.657,0-3-1.343-3-3
		V9.252C100.908,8.01,99.898,7,98.655,7H29.977L50.81,28.898h25.201c1.657,0,3,1.343,3,3v77.419c0,1.657-1.343,3-3,3H52.609z"/>
</g>
</svg>
