<?xml version="1.0" encoding="utf-8"?>
<!-- Generator: Adobe Illustrator 24.2.3, SVG Export Plug-In . SVG Version: 6.00 Build 0)  -->
<svg version="1.1" id="Layer_1" xmlns="http://www.w3.org/2000/svg" xmlns:xlink="http://www.w3.org/1999/xlink" x="0px" y="0px"
	 viewBox="0 0 158 158" style="enable-background:new 0 0 158 158;" xml:space="preserve">
<style type="text/css">
	.st0{fill:#2D3E50;}
</style>
<g>
	<g>
		<rect x="56.13" y="76" class="st0" width="99.37" height="6"/>
	</g>
	<g>
		<path class="st0" d="M56.131,129.933c-0.753,0-1.495-0.283-2.063-0.821L3.438,81.179C2.839,80.613,2.5,79.825,2.5,79
			s0.339-1.612,0.938-2.179l50.63-47.934c0.87-0.823,2.146-1.05,3.248-0.577c1.102,0.474,1.814,1.558,1.814,2.756v95.866
			c0,1.198-0.713,2.282-1.814,2.756C56.934,129.853,56.53,129.933,56.131,129.933z M9.863,79l43.267,40.961V38.038L9.863,79z"/>
	</g>
</g>
</svg>
