<?xml version="1.0" encoding="utf-8"?>
<!-- Generator: Adobe Illustrator 24.2.3, SVG Export Plug-In . SVG Version: 6.00 Build 0)  -->
<svg version="1.1" id="Layer_1" xmlns="http://www.w3.org/2000/svg" xmlns:xlink="http://www.w3.org/1999/xlink" x="0px" y="0px"
	 viewBox="0 0 158 158" style="enable-background:new 0 0 158 158;" xml:space="preserve">
<style type="text/css">
	.st0{fill:#2D3E50;}
</style>
<path class="st0" d="M154.563,76.821l-50.63-47.933c-0.869-0.824-2.146-1.05-3.248-0.577c-1.102,0.474-1.814,1.558-1.814,2.756V76
	H2.5v6h96.37v44.933c0,1.198,0.713,2.282,1.814,2.756c0.382,0.164,0.785,0.244,1.185,0.244c0.753,0,1.495-0.283,2.063-0.821
	l50.63-47.933c0.599-0.567,0.938-1.354,0.938-2.179S155.161,77.388,154.563,76.821z M104.87,119.962V38.038L148.137,79
	L104.87,119.962z"/>
</svg>
