<?xml version="1.0" encoding="utf-8"?>
<!-- Generator: Adobe Illustrator 24.2.3, SVG Export Plug-In . SVG Version: 6.00 Build 0)  -->
<svg version="1.1" id="Layer_1" xmlns="http://www.w3.org/2000/svg" xmlns:xlink="http://www.w3.org/1999/xlink" x="0px" y="0px"
	 viewBox="0 0 158 158" style="enable-background:new 0 0 158 158;" xml:space="preserve">
<style type="text/css">
	.st0{fill:none;stroke:#2D3E50;stroke-width:6;stroke-miterlimit:10;}
	.st1{fill:none;stroke:#2D3E50;stroke-width:6;stroke-linejoin:round;stroke-miterlimit:10;}
	.st2{fill-rule:evenodd;clip-rule:evenodd;fill:none;stroke:#2D3E50;stroke-width:6;stroke-linejoin:round;stroke-miterlimit:10;}
	.st3{fill-rule:evenodd;clip-rule:evenodd;fill:none;stroke:#2D3E50;stroke-width:6;stroke-miterlimit:10;}
	.st4{fill:#FFFFFF;stroke:#2D3E50;stroke-width:6;stroke-miterlimit:10;}
	.st5{fill:none;stroke:#2D3E50;stroke-width:6;stroke-linecap:round;stroke-linejoin:round;stroke-miterlimit:10;}
	.st6{fill:#2D3E50;}
	.st7{fill:none;stroke:#2D3E50;stroke-width:6;stroke-linecap:round;stroke-miterlimit:10;}
	.st8{fill:none;stroke:#2D3E50;stroke-width:6;stroke-miterlimit:10;stroke-dasharray:9;}
</style>
<g>
	<path class="st1" d="M4,78.954c0.039-23.49,19.069-42.461,42.555-42.422c23.5,0.039,42.513,19.102,42.396,42.65
		c-0.117,23.491-19.064,42.297-42.552,42.286C22.956,121.457,3.961,102.369,4,78.954z"/>
	<path class="st1" d="M135.768,79.977c-0.041,6.628-1.067,14.055-3.588,21.236c-1.369,3.898-3.166,7.581-5.688,10.879
		c-1.571,2.055-3.379,3.861-5.588,5.235c-2.274,1.414-4.731,2.19-7.433,2.072c-2.031-0.089-3.921-0.675-5.691-1.662
		c-2.362-1.317-4.292-3.129-5.961-5.233c-2.658-3.351-4.525-7.129-5.956-11.134c-1.629-4.561-2.621-9.269-3.173-14.076
		c-0.443-3.857-0.567-7.726-0.388-11.6c0.35-7.554,1.696-14.904,4.675-21.899c1.337-3.14,2.997-6.095,5.186-8.731
		c1.467-1.767,3.121-3.329,5.106-4.506c4.693-2.783,9.342-2.637,13.909,0.291c2.814,1.804,4.938,4.288,6.732,7.071
		c2.691,4.177,4.456,8.748,5.695,13.535C135.096,67.214,135.756,73.077,135.768,79.977z"/>
	<path class="st1" d="M154,79.014c-0.022,5.515-0.262,11.02-0.874,16.503c-0.486,4.346-1.132,8.669-2.406,12.866
		c-0.399,1.313-0.918,2.595-1.462,3.857c-0.278,0.646-0.679,1.258-1.117,1.813c-1.319,1.674-2.73,1.686-4.049,0.025
		c-0.468-0.59-0.858-1.257-1.192-1.934c-1.014-2.057-1.622-4.255-2.141-6.478c-0.941-4.032-1.497-8.124-1.882-12.242
		c-0.535-5.731-0.741-11.474-0.636-17.227c0.097-5.348,0.413-10.682,1.118-15.987c0.536-4.029,1.221-8.031,2.54-11.892
		c0.291-0.852,0.649-1.683,1.015-2.507c0.201-0.453,0.459-0.887,0.732-1.303c1.591-2.425,3.312-2.437,4.898-0.026
		c0.351,0.533,0.682,1.096,0.915,1.687c0.512,1.302,1.017,2.612,1.412,3.952c0.976,3.31,1.542,6.708,1.986,10.125
		C153.667,66.476,153.975,72.736,154,79.014z"/>
</g>
</svg>
