<?xml version="1.0" encoding="utf-8"?>
<!-- Generator: Adobe Illustrator 24.2.3, SVG Export Plug-In . SVG Version: 6.00 Build 0)  -->
<svg version="1.1" id="Layer_1" xmlns="http://www.w3.org/2000/svg" xmlns:xlink="http://www.w3.org/1999/xlink" x="0px" y="0px"
	 viewBox="0 0 158 158" style="enable-background:new 0 0 158 158;" xml:space="preserve">
<style type="text/css">
	.st0{fill:none;stroke:#2D3E50;stroke-width:6;stroke-miterlimit:10;}
	.st1{fill:none;stroke:#2D3E50;stroke-width:6;stroke-linejoin:round;stroke-miterlimit:10;}
	.st2{fill-rule:evenodd;clip-rule:evenodd;fill:none;stroke:#2D3E50;stroke-width:6;stroke-linejoin:round;stroke-miterlimit:10;}
	.st3{fill-rule:evenodd;clip-rule:evenodd;fill:none;stroke:#2D3E50;stroke-width:6;stroke-miterlimit:10;}
	.st4{fill:#FFFFFF;stroke:#2D3E50;stroke-width:6;stroke-miterlimit:10;}
	.st5{fill:none;stroke:#2D3E50;stroke-width:6;stroke-linecap:round;stroke-linejoin:round;stroke-miterlimit:10;}
	.st6{fill:#2D3E50;}
	.st7{fill:none;stroke:#2D3E50;stroke-width:6;stroke-linecap:round;stroke-miterlimit:10;}
	.st8{fill:none;stroke:#2D3E50;stroke-width:6;stroke-miterlimit:10;stroke-dasharray:9;}
</style>
<path id="MESSENGER_2_" class="st2" d="M79,5.196c-41.421,0-75,31.284-75,69.876c0,21.99,10.906,41.605,27.95,54.413v18.516
	c0,3.651,3.918,5.963,7.114,4.198l18.423-10.174c6.815,1.898,14.035,2.922,21.513,2.922c41.421,0,75-31.284,75-69.876
	S120.421,5.196,79,5.196z M82.911,95.494L69.189,80.768c-1.079-1.158-2.807-1.435-4.193-0.672L33.8,97.253
	c-0.672,0.37-1.341-0.491-0.817-1.051l34.589-36.947c1.905-2.035,5.129-2.051,7.054-0.034L88.8,74.07
	c1.087,1.139,2.806,1.399,4.181,0.633l30.699-17.098c0.672-0.374,1.346,0.488,0.82,1.05L90.005,95.502
	C88.084,97.554,84.827,97.55,82.911,95.494z"/>
</svg>
