<?xml version="1.0" encoding="utf-8"?>
<!-- Generator: Adobe Illustrator 24.2.3, SVG Export Plug-In . SVG Version: 6.00 Build 0)  -->
<svg version="1.1" id="Layer_1" xmlns="http://www.w3.org/2000/svg" xmlns:xlink="http://www.w3.org/1999/xlink" x="0px" y="0px"
	 viewBox="0 0 158 158" style="enable-background:new 0 0 158 158;" xml:space="preserve">
<style type="text/css">
	.st0{fill:none;stroke:#2D3E50;stroke-width:6;stroke-miterlimit:10;}
	.st1{fill:none;stroke:#2D3E50;stroke-width:6;stroke-linejoin:round;stroke-miterlimit:10;}
	.st2{fill-rule:evenodd;clip-rule:evenodd;fill:none;stroke:#2D3E50;stroke-width:6;stroke-linejoin:round;stroke-miterlimit:10;}
	.st3{fill-rule:evenodd;clip-rule:evenodd;fill:none;stroke:#2D3E50;stroke-width:6;stroke-miterlimit:10;}
	.st4{fill:#FFFFFF;stroke:#2D3E50;stroke-width:6;stroke-miterlimit:10;}
	.st5{fill:none;stroke:#2D3E50;stroke-width:6;stroke-linecap:round;stroke-linejoin:round;stroke-miterlimit:10;}
	.st6{fill:#2D3E50;}
	.st7{fill:none;stroke:#2D3E50;stroke-width:6;stroke-linecap:round;stroke-miterlimit:10;}
	.st8{fill:none;stroke:#2D3E50;stroke-width:6;stroke-miterlimit:10;stroke-dasharray:9;}
</style>
<g>
	<line class="st0" x1="34.725" y1="8.879" x2="48.073" y2="51.427"/>
	<path class="st0" d="M52.008,5.51c0.029,0.03,0.058,0.06,0.084,0.092c0.173,0.206,0.281,0.457,0.388,0.704
		c1.049,2.434,1.912,4.944,2.935,7.378c2.098,7.042,4.181,14.104,5.808,21.264c0.529,2.328,0.44,5.542-0.812,7.352
		c-1.846,2.67-4.587,4.817-7.373,6.443c-2.7,1.576-5.739,2.693-7.975,4.958c-4.435,4.493-3.725,11.39,0.001,16.045
		c11.62,14.516,23.482,28.848,35.592,42.957c2.996,3.491,7.715,5.426,12.299,5.044c5.909-0.492,9.033-4.742,11.958-9.427
		c1.082-1.733,2.308-3.157,4.141-4.141c2.139-1.148,5.163-2.167,7.543-1.16c7.71,3.263,15.285,6.889,23.139,9.754
		c2.477,0.904,4.659,2.469,5.689,4.967c3.866,9.38-3.752,19.259-9.668,25.839c-9.138,10.162-21.683,12.982-34.212,8.066
		c-17.715-6.951-34.518-16.625-48.7-29.382C40.589,111.238,30.402,97.775,22.97,83.07c-9.516-18.83-18.179-41.564-3.873-60.311
		c2.006-2.629,4.773-4.865,7.137-7.159c3.112-3.019,6.542-5.73,10.353-7.814c4.485-2.453,9.669-5.392,14.74-2.74
		C51.571,5.174,51.814,5.316,52.008,5.51z"/>
	<line class="st0" x1="143.711" y1="133.201" x2="100.212" y2="114.452"/>
</g>
</svg>
