<?xml version="1.0" encoding="utf-8"?>
<!-- Generator: Adobe Illustrator 24.2.3, SVG Export Plug-In . SVG Version: 6.00 Build 0)  -->
<svg version="1.1" id="Layer_1" xmlns="http://www.w3.org/2000/svg" xmlns:xlink="http://www.w3.org/1999/xlink" x="0px" y="0px"
	 viewBox="0 0 158 158" style="enable-background:new 0 0 158 158;" xml:space="preserve">
<style type="text/css">
	.st0{fill:none;stroke:#2D3E50;stroke-width:6;stroke-miterlimit:10;}
	.st1{fill:none;stroke:#2D3E50;stroke-width:6;stroke-linejoin:round;stroke-miterlimit:10;}
	.st2{fill-rule:evenodd;clip-rule:evenodd;fill:none;stroke:#2D3E50;stroke-width:6;stroke-linejoin:round;stroke-miterlimit:10;}
	.st3{fill-rule:evenodd;clip-rule:evenodd;fill:none;stroke:#2D3E50;stroke-width:6;stroke-miterlimit:10;}
	.st4{fill:#FFFFFF;stroke:#2D3E50;stroke-width:6;stroke-miterlimit:10;}
	.st5{fill:none;stroke:#2D3E50;stroke-width:6;stroke-linecap:round;stroke-linejoin:round;stroke-miterlimit:10;}
	.st6{fill:#2D3E50;}
	.st7{fill:none;stroke:#2D3E50;stroke-width:6;stroke-linecap:round;stroke-miterlimit:10;}
	.st8{fill:none;stroke:#2D3E50;stroke-width:6;stroke-miterlimit:10;stroke-dasharray:9;}
</style>
<path class="st2" d="M137.05,53.361c0,33.788-18.774,59.04-46.465,59.04c-9.324,0-18.062-5.03-21.061-10.746
	c0,0-5.005,19.867-6.072,23.702c-3.709,13.515-14.684,27.056-15.548,28.199c-0.584,0.762-1.905,0.508-2.032-0.508
	c-0.254-1.728-3.049-18.799,0.254-32.746c1.651-6.986,11.076-46.948,11.076-46.948s-2.744-5.512-2.744-13.642
	c0-12.753,7.392-22.28,16.614-22.28c7.825,0,11.61,5.868,11.61,12.931c0,7.876-5.005,19.663-7.596,30.562
	c-2.159,9.146,4.573,16.614,13.592,16.614c16.335,0,27.31-20.984,27.31-45.83c0-18.876-12.702-33.001-35.846-33.001
	c-26.116,0-42.4,19.486-42.4,41.257c0,7.494,2.21,12.804,5.665,16.894c1.601,1.88,1.829,2.642,1.245,4.801
	c-0.432,1.6-1.346,5.411-1.753,6.91c-0.584,2.185-2.337,2.972-4.319,2.159C26.54,85.828,20.95,72.643,20.95,57.807
	C20.95,33.342,41.579,4,82.506,4C115.43,4,137.05,27.804,137.05,53.361z"/>
</svg>
