<?xml version="1.0" encoding="utf-8"?>
<!-- Generator: Adobe Illustrator 24.2.3, SVG Export Plug-In . SVG Version: 6.00 Build 0)  -->
<svg version="1.1" id="Layer_1" xmlns="http://www.w3.org/2000/svg" xmlns:xlink="http://www.w3.org/1999/xlink" x="0px" y="0px"
	 viewBox="0 0 158 158" style="enable-background:new 0 0 158 158;" xml:space="preserve">
<style type="text/css">
	.st0{fill:none;stroke:#2D3E50;stroke-width:6;stroke-miterlimit:10;}
	.st1{fill:none;stroke:#2D3E50;stroke-width:6;stroke-linejoin:round;stroke-miterlimit:10;}
	.st2{fill-rule:evenodd;clip-rule:evenodd;fill:none;stroke:#2D3E50;stroke-width:6;stroke-linejoin:round;stroke-miterlimit:10;}
	.st3{fill-rule:evenodd;clip-rule:evenodd;fill:none;stroke:#2D3E50;stroke-width:6;stroke-miterlimit:10;}
	.st4{fill:#FFFFFF;stroke:#2D3E50;stroke-width:6;stroke-miterlimit:10;}
	.st5{fill:none;stroke:#2D3E50;stroke-width:6;stroke-linecap:round;stroke-linejoin:round;stroke-miterlimit:10;}
	.st6{fill:#2D3E50;}
	.st7{fill:none;stroke:#2D3E50;stroke-width:6;stroke-linecap:round;stroke-miterlimit:10;}
	.st8{fill:none;stroke:#2D3E50;stroke-width:6;stroke-miterlimit:10;stroke-dasharray:9;}
</style>
<g>
	<path class="st1" d="M52.646,67.114c0,0,6.992,0.348,6.269-0.818c16.382,11.866,32.686,10.943,49.338-0.51
		c-0.958,2.091,5.012,1.307,5.012,1.307s2.477-2.094,0.033-3.691c-3.946-2.57-8.336-4.142-12.867-5.303
		c-11.163-2.859-22.37-2.556-33.545-0.124c-5.084,1.106-9.973,2.836-14.319,5.825C50.624,65.134,52.646,67.114,52.646,67.114z"/>
	<path class="st1" d="M75.737,45.42c2.741-3.044,3.517-6.803,3.632-10.448c-0.06-4.127-0.783-7.739-3.167-10.841
		c-3.149-4.096-7.786-4.078-10.959,0.023c-4.15,5.366-4.067,15.614,0.171,20.916C68.351,48.744,72.577,48.928,75.737,45.42z
		 M79.002,30.742c-0.15-0.349-0.339-0.698-0.549-1.037c-1.317-2.165-3.501-2.264-5.007-0.299c-1.197,1.556-1.506,3.391-1.466,5.307
		c0.03,1.357,0.14,2.713,0.728,3.97c0.608,1.307,1.426,2.384,2.972,2.504c1.616,0.12,2.534-0.958,3.132-2.214
		c0.06-0.13,0.13-0.269,0.18-0.399"/>
	<path class="st1" d="M99.191,47.047c2.494-1.275,3.53-3.535,4.242-6.049c1.468-5.202,1.389-11.096-1.486-15.807
		c-3.326-5.434-8.969-5.317-12.3,0.124c-1.722,2.815-2.381,5.892-2.291,9.061c-0.137,3.946,0.702,7.521,3.034,10.65
		C92.669,48.097,95.798,48.78,99.191,47.047z M87.41,36.866c0.06,0.03,0.13,0.06,0.209,0.07c0.788,0.16,0.888-0.608,1.047-1.187
		c0.289-1.087,0.459-2.504,1.805-2.524c1.247-0.02,1.297,1.386,1.446,2.314c0.13,0.728,0.569,1.496,1.367,1.386
		c1.027-0.14,0.908-5.307-1.716-6.204c-1.696-0.638-3.371,0.319-4.199,2.095"/>
	<path class="st1" d="M150.682,115.09c-1.649,4.232-4.507,7.852-8.072,3.59c-2.065-2.465-3.618-5.27-5.214-8.227
		c-2.92,7.208-6.328,12.9-11.141,18.876c1.401,1.569,4.402,2.312,6.234,3.447c2.879,1.784,6.626,3.969,7.254,7.587
		c0.548,3.158-1.47,5.865-4.058,7.436c-10.129,6.148-23.412,5.239-34.627,3.43c-4.525-0.73-8.854-2.261-13.285-3.381
		c-5.096-1.289-8.234-1.592-12.983,0.88c-7.105,3.698-15.175,5.501-23.177,5.248c-7.548-0.239-16.577-0.959-23.255-4.739
		c-1.713-0.969-3.262-2.327-4.132-4.093c-2.835-5.757,0.605-11.354,6.118-13.255c1.795-0.619,4.124-0.422,5.712-1.156
		c-0.833-1.322-2.304-2.244-3.506-3.237c-3.439-2.843-6.262-6.422-8.248-10.416c-0.92-1.85-1.556-3.782-2.247-5.719
		c-0.232-0.649-1.188-3.996-2.053-2.037c-1.419,3.215-6.272,10.025-10.225,10.039c-3.504,0.012-3.653-5.74-3.888-8.178
		c-0.909-9.431,2.509-18.909,7.689-26.679c3.27-4.911,7.164-9.157,11.873-12.681c0.797-0.597,1.042-1.196,0.804-2.343
		c-0.55-2.671-0.188-5.399,1.157-7.78c1.518-2.687,2.296-6.582,3.146-9.557c1.34-4.689,1.661-9.691,3.353-14.238
		c1.684-4.524,3.685-8.774,6.454-12.749C47.284,15.23,56.219,8.07,68.362,5.495c7.342-1.555,14.714-1.878,22.17-1.057
		c7.241,0.795,14.115,2.768,20.512,6.231c7.903,4.278,13.877,11.107,17.676,19.197c1.903,4.053,3.279,8.338,4.303,12.692
		c1.118,4.755,1.447,8.951,3.841,13.262c2.563,4.621,3.218,9.436,1.208,14.405c-0.413,1.023,0.05,1.51,0.498,2.13
		c4.175,5.793,7.559,12.037,10.194,18.651c2.199,5.518,3.733,11.648,3.464,17.623C152.162,110.098,151.616,112.693,150.682,115.09z"
		/>
	<path class="st1" d="M118.526,85.034c-2.55,1.702-5.227,3.178-8,4.495c-13.287,6.307-28.184,8.559-42.589,5.076
		c-0.018,0.74,0.005,1.467,0.035,2.206c0.133,3.228,0.106,6.447,0.284,9.669c0.077,1.392-0.036,2.871-0.821,4.022
		c-2.177,3.194-7.71,2.626-10.958,2.077c-4.028-0.681-7.833-3.11-8.317-7.438c-0.609-5.46-0.045-10.87,0.646-16.29
		c0.097-0.764-0.057-1.025-0.657-1.342c-1.56-0.829-3.195-1.571-4.59-2.629c-2.76-2.092-4.581,5.566-4.951,7.015
		c-1.361,5.322-1.501,10.778-0.418,16.175c2.289,11.404,11.095,19.556,21.376,24.163c11.584,5.19,24.392,7.143,36.794,3.737
		c9.962-2.736,19.527-9.257,25.026-18.195c6.453-10.487,5.272-22.49-1.515-32.507C119.399,84.571,119.156,84.611,118.526,85.034z"/>
	<path class="st1" d="M138.249,58.809c-10.093,12.241-22.78,19.806-37.418,23.099c-14.391,3.234-28.976,2.971-43.418-1.061
		c-11.422-3.184-21.591-8.865-29.327-19.083"/>
</g>
</svg>
