<?xml version="1.0" encoding="utf-8"?>
<!-- Generator: Adobe Illustrator 24.2.3, SVG Export Plug-In . SVG Version: 6.00 Build 0)  -->
<svg version="1.1" id="Layer_1" xmlns="http://www.w3.org/2000/svg" xmlns:xlink="http://www.w3.org/1999/xlink" x="0px" y="0px"
	 viewBox="0 0 158 158" style="enable-background:new 0 0 158 158;" xml:space="preserve">
<style type="text/css">
	.st0{fill:#2D3E50;}
</style>
<g>
	<path class="st0" d="M60.639,77.636H35.571V60.499c0-8.409,6.841-15.251,15.25-15.251h5.79c4.152,0,7.531-3.379,7.531-7.531V16.32
		c0-4.5-3.66-8.161-8.16-8.161C25.665,8.159,1,32.824,1,63.141v74.135c0,6.929,5.637,12.565,12.565,12.565h47.073
		c6.929,0,12.566-5.637,12.566-12.565V90.203C73.205,83.274,67.567,77.636,60.639,77.636z M67.205,137.276
		c0,3.62-2.945,6.565-6.566,6.565H13.565c-3.62,0-6.565-2.945-6.565-6.565V63.141c0-27.009,21.974-48.982,48.982-48.982
		c1.191,0,2.16,0.97,2.16,2.161v21.396c0,0.845-0.687,1.531-1.531,1.531h-5.79c-11.718,0-21.25,9.533-21.25,21.251v23.138h31.067
		c3.621,0,6.566,2.945,6.566,6.566V137.276z"/>
	<path class="st0" d="M144.434,77.636h-25.067V60.499c0-8.409,6.841-15.251,15.25-15.251h5.79c4.152,0,7.531-3.379,7.531-7.531
		V16.32c0-4.5-3.661-8.161-8.161-8.161c-30.317,0-54.982,24.665-54.982,54.982v74.135c0,6.929,5.638,12.565,12.566,12.565h47.073
		c6.929,0,12.566-5.637,12.566-12.565V90.203C157,83.274,151.362,77.636,144.434,77.636z M151,137.276
		c0,3.62-2.945,6.565-6.566,6.565H97.36c-3.621,0-6.566-2.945-6.566-6.565V63.141c0-27.009,21.974-48.982,48.982-48.982
		c1.191,0,2.161,0.97,2.161,2.161v21.396c0,0.845-0.687,1.531-1.531,1.531h-5.79c-11.718,0-21.25,9.533-21.25,21.251v23.138h31.067
		c3.621,0,6.566,2.945,6.566,6.566V137.276z"/>
</g>
</svg>
