<?xml version="1.0" encoding="utf-8"?>
<!-- Generator: Adobe Illustrator 24.2.3, SVG Export Plug-In . SVG Version: 6.00 Build 0)  -->
<svg version="1.1" id="Layer_1" xmlns="http://www.w3.org/2000/svg" xmlns:xlink="http://www.w3.org/1999/xlink" x="0px" y="0px"
	 viewBox="0 0 158 158" style="enable-background:new 0 0 158 158;" xml:space="preserve">
<style type="text/css">
	.st0{fill:#2D3E50;}
</style>
<g>
	<path class="st0" d="M144.435,8.159H97.36c-6.929,0-12.565,5.638-12.565,12.566v47.073c0,6.929,5.637,12.565,12.565,12.565h25.068
		v17.139c0,8.409-6.841,15.251-15.25,15.251h-5.79c-4.152,0-7.531,3.378-7.531,7.53v21.397c0,4.5,3.66,8.16,8.16,8.16
		c30.317,0,54.982-24.665,54.982-54.981V20.725C157,13.796,151.363,8.159,144.435,8.159z M151,94.86
		c0,27.009-21.974,48.981-48.982,48.981c-1.191,0-2.16-0.969-2.16-2.16v-21.397c0-0.844,0.687-1.53,1.531-1.53h5.79
		c11.718,0,21.25-9.533,21.25-21.251V74.364H97.36c-3.62,0-6.565-2.945-6.565-6.565V20.725c0-3.621,2.945-6.566,6.565-6.566h47.074
		c3.62,0,6.565,2.945,6.565,6.566V94.86z"/>
	<path class="st0" d="M60.64,8.159H13.566C6.638,8.159,1,13.796,1,20.725v47.073c0,6.929,5.638,12.565,12.566,12.565h25.067v17.139
		c0,8.409-6.841,15.251-15.25,15.251h-5.79c-4.152,0-7.531,3.378-7.531,7.53v21.397c0,4.5,3.66,8.16,8.16,8.16
		c30.317,0,54.982-24.665,54.982-54.981V20.725C73.205,13.796,67.568,8.159,60.64,8.159z M67.205,94.86
		c0,27.009-21.974,48.981-48.982,48.981c-1.191,0-2.16-0.969-2.16-2.16v-21.397c0-0.844,0.687-1.53,1.531-1.53h5.79
		c11.718,0,21.25-9.533,21.25-21.251V74.364H13.566C9.945,74.364,7,71.418,7,67.798V20.725c0-3.621,2.945-6.566,6.566-6.566H60.64
		c3.62,0,6.565,2.945,6.565,6.566V94.86z"/>
</g>
</svg>
