<?xml version="1.0" encoding="utf-8"?>
<!-- Generator: Adobe Illustrator 24.2.3, SVG Export Plug-In . SVG Version: 6.00 Build 0)  -->
<svg version="1.1" id="Layer_1" xmlns="http://www.w3.org/2000/svg" xmlns:xlink="http://www.w3.org/1999/xlink" x="0px" y="0px"
	 viewBox="0 0 158 158" style="enable-background:new 0 0 158 158;" xml:space="preserve">
<style type="text/css">
	.st0{fill:none;stroke:#2D3E50;stroke-width:6;stroke-miterlimit:10;}
	.st1{fill:none;stroke:#2D3E50;stroke-width:6;stroke-linejoin:round;stroke-miterlimit:10;}
	.st2{fill-rule:evenodd;clip-rule:evenodd;fill:none;stroke:#2D3E50;stroke-width:6;stroke-linejoin:round;stroke-miterlimit:10;}
	.st3{fill-rule:evenodd;clip-rule:evenodd;fill:none;stroke:#2D3E50;stroke-width:6;stroke-miterlimit:10;}
	.st4{fill:#FFFFFF;stroke:#2D3E50;stroke-width:6;stroke-miterlimit:10;}
	.st5{fill:none;stroke:#2D3E50;stroke-width:6;stroke-linecap:round;stroke-linejoin:round;stroke-miterlimit:10;}
	.st6{fill:#2D3E50;}
	.st7{fill:none;stroke:#2D3E50;stroke-width:6;stroke-linecap:round;stroke-miterlimit:10;}
	.st8{fill:none;stroke:#2D3E50;stroke-width:6;stroke-miterlimit:10;stroke-dasharray:9;}
</style>
<g>
	<line class="st0" x1="110.697" y1="58.868" x2="84.289" y2="85.266"/>
	<path class="st0" d="M119.252,39.548l2.201-2.201c1.293-1.293,3-1.944,4.707-1.944c1.697,0,3.395,0.651,4.697,1.944
		c2.595,2.605,2.595,6.809,0,9.415l-2.201,2.201"/>
	<line class="st0" x1="69.132" y1="27.438" x2="69.132" y2="14.569"/>
	<line class="st0" x1="88.868" y1="27.438" x2="88.868" y2="14.569"/>
	<line class="st0" x1="124.144" y1="90.255" x2="110.693" y2="90.255"/>
	<line class="st0" x1="79" y1="45.416" x2="79" y2="58.867"/>
	<line class="st0" x1="33.856" y1="90.866" x2="47.307" y2="90.866"/>
	<line class="st0" x1="79" y1="135.704" x2="79" y2="122.253"/>
	<circle class="st0" cx="79" cy="90.56" r="63.44"/>
	<circle class="st0" cx="79" cy="90.56" r="52.589"/>
	<circle class="st0" cx="79" cy="90.56" r="7.483"/>
	<path class="st0" d="M95.41,14.573H62.59c-1.222,0-2.212-0.991-2.212-2.212V6.212C60.377,4.991,61.368,4,62.59,4h32.82
		c1.222,0,2.212,0.991,2.212,2.212v6.148C97.623,13.583,96.632,14.573,95.41,14.573z"/>
</g>
</svg>
