<?xml version="1.0" encoding="utf-8"?>
<!-- Generator: Adobe Illustrator 24.2.3, SVG Export Plug-In . SVG Version: 6.00 Build 0)  -->
<svg version="1.1" id="Layer_1" xmlns="http://www.w3.org/2000/svg" xmlns:xlink="http://www.w3.org/1999/xlink" x="0px" y="0px"
	 viewBox="0 0 158 158" style="enable-background:new 0 0 158 158;" xml:space="preserve">
<style type="text/css">
	.st0{fill:none;stroke:#2D3E50;stroke-width:6;stroke-miterlimit:10;}
	.st1{fill:none;stroke:#2D3E50;stroke-width:6;stroke-linejoin:round;stroke-miterlimit:10;}
	.st2{fill-rule:evenodd;clip-rule:evenodd;fill:none;stroke:#2D3E50;stroke-width:6;stroke-linejoin:round;stroke-miterlimit:10;}
	.st3{fill-rule:evenodd;clip-rule:evenodd;fill:none;stroke:#2D3E50;stroke-width:6;stroke-miterlimit:10;}
	.st4{fill:#FFFFFF;stroke:#2D3E50;stroke-width:6;stroke-miterlimit:10;}
	.st5{fill:none;stroke:#2D3E50;stroke-width:6;stroke-linecap:round;stroke-linejoin:round;stroke-miterlimit:10;}
	.st6{fill:#2D3E50;}
	.st7{fill:none;stroke:#2D3E50;stroke-width:6;stroke-linecap:round;stroke-miterlimit:10;}
	.st8{fill:none;stroke:#2D3E50;stroke-width:6;stroke-miterlimit:10;stroke-dasharray:9;}
</style>
<g>
	<path class="st1" d="M115.713,18.955c0.637,9.773-0.525,38.348-32.115,59.827c32.07,21.81,32.782,50.925,32.085,60.262"/>
	<path class="st1" d="M42.318,139.045c-0.698-9.337,0.015-38.452,32.085-60.262c-31.59-21.48-32.752-50.055-32.115-59.827"/>
	<path class="st1" d="M119.889,4H38.111c-4.13,0-7.478,3.348-7.478,7.478v0c0,4.13,3.348,7.478,7.478,7.478h81.779
		c4.13,0,7.478-3.348,7.478-7.478v0C127.368,7.348,124.02,4,119.889,4z"/>
	<path class="st1" d="M119.889,154H38.111c-4.13,0-7.478-3.348-7.478-7.478v0c0-4.13,3.348-7.478,7.478-7.478h81.779
		c4.13,0,7.478,3.348,7.478,7.478v0C127.368,150.652,124.02,154,119.889,154z"/>
</g>
</svg>
