<?xml version="1.0" encoding="utf-8"?>
<!-- Generator: Adobe Illustrator 24.2.3, SVG Export Plug-In . SVG Version: 6.00 Build 0)  -->
<svg version="1.1" id="Layer_1" xmlns="http://www.w3.org/2000/svg" xmlns:xlink="http://www.w3.org/1999/xlink" x="0px" y="0px"
	 viewBox="0 0 158 158" style="enable-background:new 0 0 158 158;" xml:space="preserve">
<style type="text/css">
	.st0{fill:none;stroke:#2D3E50;stroke-width:6;stroke-miterlimit:10;}
	.st1{fill:none;stroke:#2D3E50;stroke-width:6;stroke-linejoin:round;stroke-miterlimit:10;}
	.st2{fill-rule:evenodd;clip-rule:evenodd;fill:none;stroke:#2D3E50;stroke-width:6;stroke-linejoin:round;stroke-miterlimit:10;}
	.st3{fill-rule:evenodd;clip-rule:evenodd;fill:none;stroke:#2D3E50;stroke-width:6;stroke-miterlimit:10;}
	.st4{fill:#FFFFFF;stroke:#2D3E50;stroke-width:6;stroke-miterlimit:10;}
	.st5{fill:none;stroke:#2D3E50;stroke-width:6;stroke-linecap:round;stroke-linejoin:round;stroke-miterlimit:10;}
	.st6{fill:#2D3E50;}
	.st7{fill:none;stroke:#2D3E50;stroke-width:6;stroke-linecap:round;stroke-miterlimit:10;}
	.st8{fill:none;stroke:#2D3E50;stroke-width:6;stroke-miterlimit:10;stroke-dasharray:9;}
</style>
<g>
	<path id="logo_6_" class="st0" d="M154,80.075c0-8.867-7.19-16.069-16.069-16.069c-4.396,0-8.382,1.776-11.288,4.644
		c-10.982-7.942-26.033-13.133-42.831-13.973l7.091-34.164l23.901,5.152c0.82,5.326,5.411,9.409,10.967,9.409
		c6.136,0,11.11-4.974,11.11-11.11c0-6.136-4.974-11.11-11.11-11.11c-3.894,0-7.315,2.007-9.299,5.04l-27.809-5.995
		c-0.274-0.058-0.555-0.089-0.836-0.089c-0.773,0-1.523,0.222-2.168,0.643c-0.882,0.574-1.51,1.493-1.724,2.524l-8.225,39.626
		c-17.408,0.595-33.041,5.868-44.351,14.048c-2.894-2.868-6.88-4.644-11.288-4.644C11.19,64.006,4,71.208,4,80.075
		c0,6.532,3.9,12.133,9.475,14.653c-0.323,1.851-0.509,3.725-0.509,5.638c0,25.309,29.568,45.824,66.04,45.824
		c36.473,0,66.04-20.515,66.04-45.824c0-1.912-0.199-3.787-0.521-5.638C150.113,92.207,154,86.606,154,80.075z M41.726,92.269
		c0-6.135,4.967-11.102,11.102-11.102c6.135,0,11.114,4.967,11.114,11.102s-4.98,11.115-11.114,11.115
		C46.694,103.384,41.726,98.404,41.726,92.269z M105.171,103.384c-6.135,0-11.102-4.98-11.102-11.115s4.967-11.102,11.102-11.102
		c6.135,0,11.114,4.967,11.114,11.102S111.306,103.384,105.171,103.384z"/>
	<path class="st7" d="M52.835,119.95c0,0,26.242,19.175,52.343,0"/>
</g>
</svg>
