<?xml version="1.0" encoding="utf-8"?>
<!-- Generator: Adobe Illustrator 24.2.3, SVG Export Plug-In . SVG Version: 6.00 Build 0)  -->
<svg version="1.1" id="Layer_1" xmlns="http://www.w3.org/2000/svg" xmlns:xlink="http://www.w3.org/1999/xlink" x="0px" y="0px"
	 viewBox="0 0 158 158" style="enable-background:new 0 0 158 158;" xml:space="preserve">
<style type="text/css">
	.st0{fill:none;stroke:#2D3E50;stroke-width:6;stroke-miterlimit:10;}
	.st1{fill:none;stroke:#2D3E50;stroke-width:6;stroke-linejoin:round;stroke-miterlimit:10;}
	.st2{fill-rule:evenodd;clip-rule:evenodd;fill:none;stroke:#2D3E50;stroke-width:6;stroke-linejoin:round;stroke-miterlimit:10;}
	.st3{fill-rule:evenodd;clip-rule:evenodd;fill:none;stroke:#2D3E50;stroke-width:6;stroke-miterlimit:10;}
	.st4{fill:#FFFFFF;stroke:#2D3E50;stroke-width:6;stroke-miterlimit:10;}
	.st5{fill:none;stroke:#2D3E50;stroke-width:6;stroke-linecap:round;stroke-linejoin:round;stroke-miterlimit:10;}
	.st6{fill:#2D3E50;}
	.st7{fill:none;stroke:#2D3E50;stroke-width:6;stroke-linecap:round;stroke-miterlimit:10;}
	.st8{fill:none;stroke:#2D3E50;stroke-width:6;stroke-miterlimit:10;stroke-dasharray:9;}
</style>
<path class="st1" d="M43.306,134.724c0,10.596-8.617,19.213-19.217,19.213S4.873,145.32,4.873,134.724
	c0-10.6,8.617-19.217,19.217-19.217S43.306,124.128,43.306,134.724L43.306,134.724z M153.124,153.94
	c0.291-44.195-20.145-87.985-54.385-115.934C72.653,16.229,38.879,3.885,4.873,4.001v34.3c40.237-0.466,79.893,21.427,100.56,56.018
	c10.935,17.945,16.737,38.548,16.772,59.563h30.92V153.94z M100.721,153.94c0.172-28.415-13.335-56.364-35.403-74.183
	C48.431,65.9,26.713,58.095,4.876,58.214v28.881c23.756-0.291,47.05,13.335,58.403,34.237c5.532,10,8.437,21.24,8.445,32.668h28.997
	L100.721,153.94L100.721,153.94z"/>
</svg>
