<?xml version="1.0" encoding="utf-8"?>
<!-- Generator: Adobe Illustrator 24.2.3, SVG Export Plug-In . SVG Version: 6.00 Build 0)  -->
<svg version="1.1" id="Layer_1" xmlns="http://www.w3.org/2000/svg" xmlns:xlink="http://www.w3.org/1999/xlink" x="0px" y="0px"
	 viewBox="0 0 158 158" style="enable-background:new 0 0 158 158;" xml:space="preserve">
<style type="text/css">
	.st0{fill:none;stroke:#2D3E50;stroke-width:6;stroke-miterlimit:10;}
	.st1{fill:none;stroke:#2D3E50;stroke-width:6;stroke-linejoin:round;stroke-miterlimit:10;}
	.st2{fill-rule:evenodd;clip-rule:evenodd;fill:none;stroke:#2D3E50;stroke-width:6;stroke-linejoin:round;stroke-miterlimit:10;}
	.st3{fill-rule:evenodd;clip-rule:evenodd;fill:none;stroke:#2D3E50;stroke-width:6;stroke-miterlimit:10;}
	.st4{fill:#FFFFFF;stroke:#2D3E50;stroke-width:6;stroke-miterlimit:10;}
	.st5{fill:none;stroke:#2D3E50;stroke-width:6;stroke-linecap:round;stroke-linejoin:round;stroke-miterlimit:10;}
	.st6{fill:#2D3E50;}
	.st7{fill:none;stroke:#2D3E50;stroke-width:6;stroke-linecap:round;stroke-miterlimit:10;}
	.st8{fill:none;stroke:#2D3E50;stroke-width:6;stroke-miterlimit:10;stroke-dasharray:9;}
</style>
<g id="logo_5_">
	<g>
		<path class="st0" d="M59.967,121.528c-13.597,0.001-26.352-5.273-35.942-14.863C14.383,97.024,9.105,84.18,9.164,70.5
			c0.058-13.64,5.419-26.482,15.096-36.159L51.024,7.576c4.768-4.768,12.5-4.768,17.268,0c4.768,4.768,4.768,12.5,0,17.268
			L41.528,51.608c-5.093,5.092-7.914,11.838-7.944,18.995c-0.03,7.118,2.707,13.792,7.709,18.794
			c4.974,4.975,11.604,7.709,18.677,7.71c0.039,0,0.078,0,0.117-0.001c7.157-0.03,13.903-2.852,18.995-7.944l10.661-10.661
			c4.768-4.768,12.5-4.768,17.268,0c4.768,4.768,4.768,12.5,0,17.268l-10.661,10.661c-9.677,9.677-22.519,15.038-36.159,15.096
			C60.117,121.528,60.041,121.528,59.967,121.528z"/>
	</g>
	<g>
		<path class="st0" d="M98.366,154c-3.125,0-6.25-1.192-8.634-3.576c-4.768-4.768-4.768-12.5,0-17.268l26.764-26.764
			c10.484-10.483,10.589-27.436,0.235-37.789c-4.973-4.975-11.603-7.71-18.676-7.71c-0.039,0-0.078,0-0.117,0.001
			c-7.157,0.03-13.903,2.852-18.995,7.944L68.281,79.498c-4.768,4.768-12.5,4.768-17.268,0s-4.768-12.5,0-17.268l10.661-10.661
			c9.677-9.677,22.519-15.038,36.159-15.096c0.075,0,0.151-0.001,0.225-0.001c13.597,0,26.352,5.273,35.942,14.863
			c19.875,19.875,19.77,52.32-0.235,72.325L107,150.424C104.616,152.808,101.491,154,98.366,154z"/>
	</g>
</g>
</svg>
