<?xml version="1.0" encoding="utf-8"?>
<!-- Generator: Adobe Illustrator 24.2.3, SVG Export Plug-In . SVG Version: 6.00 Build 0)  -->
<svg version="1.1" id="Layer_1" xmlns="http://www.w3.org/2000/svg" xmlns:xlink="http://www.w3.org/1999/xlink" x="0px" y="0px"
	 viewBox="0 0 158 158" style="enable-background:new 0 0 158 158;" xml:space="preserve">
<style type="text/css">
	.st0{fill:#2D3E50;}
</style>
<path class="st0" d="M153.807,32.157c-1.451-1.795-3.608-2.825-5.917-2.825H35.618L33.117,17c-0.732-3.608-3.936-6.228-7.618-6.228
	H2.5v6h22.999c0.84,0,1.57,0.598,1.737,1.421l20.408,100.602c-3.2,3.003-5.213,7.256-5.213,11.98c0,9.071,7.38,16.451,16.451,16.451
	c9.07,0,16.45-7.38,16.45-16.451c0-3.965-1.411-7.606-3.756-10.45h39.383c-2.345,2.844-3.756,6.485-3.756,10.45
	c0,9.071,7.38,16.451,16.45,16.451c9.071,0,16.451-7.38,16.451-16.451c0-3.965-1.41-7.606-3.756-10.45h4.785v-6H52.859
	l-4.165-20.533h88.623c3.574,0,6.712-2.537,7.462-6.032l10.55-49.225C155.813,36.278,155.258,33.953,153.807,32.157z
	 M69.333,130.776c0,5.763-4.688,10.451-10.45,10.451s-10.451-4.688-10.451-10.451s4.688-10.45,10.451-10.45
	S69.333,125.013,69.333,130.776z M134.106,130.776c0,5.763-4.688,10.451-10.451,10.451c-5.763,0-10.45-4.688-10.45-10.451
	s4.688-10.45,10.45-10.45C129.418,120.326,134.106,125.013,134.106,130.776z M149.462,37.278l-10.55,49.225
	c-0.16,0.747-0.831,1.29-1.595,1.29h-89.84L36.835,35.332H147.89c0.668,0,1.07,0.374,1.251,0.598
	C149.32,36.152,149.602,36.624,149.462,37.278z"/>
</svg>
