<?xml version="1.0" encoding="utf-8"?>
<!-- Generator: Adobe Illustrator 24.2.3, SVG Export Plug-In . SVG Version: 6.00 Build 0)  -->
<svg version="1.1" id="Layer_1" xmlns="http://www.w3.org/2000/svg" xmlns:xlink="http://www.w3.org/1999/xlink" x="0px" y="0px"
	 viewBox="0 0 158 158" style="enable-background:new 0 0 158 158;" xml:space="preserve">
<style type="text/css">
	.st0{fill:#2D3E50;}
</style>
<g>
	<path class="st0" d="M145.743,46.118h-26.157v-4.532C119.585,19.207,101.378,1,79,1S38.414,19.207,38.414,41.586v4.532H12.257
		c-1.657,0-3,1.343-3,3v81.255C9.257,145.056,21.202,157,35.884,157h86.231c14.683,0,26.627-11.944,26.627-26.627V49.118
		C148.743,47.461,147.4,46.118,145.743,46.118z M142.743,130.373c0,11.374-9.253,20.627-20.627,20.627H35.884
		c-11.374,0-20.627-9.253-20.627-20.627V52.118h26.156c1.657,0,3-1.343,3-3v-7.532C44.414,22.516,59.929,7,79,7
		s34.586,15.516,34.586,34.586v7.532c0,1.657,1.343,3,3,3h26.157V130.373z"/>
	<path class="st0" d="M50.396,59.959c-5.589,0-10.136,4.547-10.136,10.136S44.807,80.23,50.396,80.23s10.136-4.547,10.136-10.136
		S55.985,59.959,50.396,59.959z M50.396,74.23c-2.28,0-4.136-1.855-4.136-4.136s1.855-4.136,4.136-4.136s4.136,1.855,4.136,4.136
		S52.676,74.23,50.396,74.23z"/>
	<path class="st0" d="M107.604,59.959c-5.589,0-10.136,4.547-10.136,10.136s4.547,10.136,10.136,10.136s10.136-4.547,10.136-10.136
		S113.193,59.959,107.604,59.959z M107.604,74.23c-2.28,0-4.136-1.855-4.136-4.136s1.855-4.136,4.136-4.136s4.136,1.855,4.136,4.136
		S109.884,74.23,107.604,74.23z"/>
	<path class="st0" d="M60.484,52.118h37.032c1.657,0,3-1.343,3-3v-7.532c0-11.864-9.652-21.517-21.517-21.517
		c-11.863,0-21.516,9.652-21.516,21.517v7.532C57.484,50.775,58.827,52.118,60.484,52.118z M63.484,41.586
		c0-8.556,6.96-15.517,15.516-15.517s15.517,6.961,15.517,15.517v4.532H63.484V41.586z"/>
</g>
</svg>
