<?xml version="1.0" encoding="utf-8"?>
<!-- Generator: Adobe Illustrator 24.2.3, SVG Export Plug-In . SVG Version: 6.00 Build 0)  -->
<svg version="1.1" id="Layer_1" xmlns="http://www.w3.org/2000/svg" xmlns:xlink="http://www.w3.org/1999/xlink" x="0px" y="0px"
	 viewBox="0 0 158 158" style="enable-background:new 0 0 158 158;" xml:space="preserve">
<style type="text/css">
	.st0{fill:none;stroke:#2D3E50;stroke-width:6;stroke-miterlimit:10;}
	.st1{fill:none;stroke:#2D3E50;stroke-width:6;stroke-linejoin:round;stroke-miterlimit:10;}
	.st2{fill-rule:evenodd;clip-rule:evenodd;fill:none;stroke:#2D3E50;stroke-width:6;stroke-linejoin:round;stroke-miterlimit:10;}
	.st3{fill-rule:evenodd;clip-rule:evenodd;fill:none;stroke:#2D3E50;stroke-width:6;stroke-miterlimit:10;}
	.st4{fill:#FFFFFF;stroke:#2D3E50;stroke-width:6;stroke-miterlimit:10;}
	.st5{fill:none;stroke:#2D3E50;stroke-width:6;stroke-linecap:round;stroke-linejoin:round;stroke-miterlimit:10;}
	.st6{fill:#2D3E50;}
	.st7{fill:none;stroke:#2D3E50;stroke-width:6;stroke-linecap:round;stroke-miterlimit:10;}
	.st8{fill:none;stroke:#2D3E50;stroke-width:6;stroke-miterlimit:10;stroke-dasharray:9;}
</style>
<g>
	<path class="st1" d="M29.882,107.989h1.974c5.947,0,11.764,1.746,16.728,5.023l3.586,2.367c4.964,3.276,10.78,5.023,16.728,5.023
		c0.352,0,0.703,0,1.055,0c5.525,0,11.051,0,16.577,0c5.266,0,10.534,0.238,15.798-0.019c0.189-0.009,0.378-0.018,0.567-0.028
		c4.258-0.215,8.489-0.876,10.471-5.117c1.495-3.2,1.364-7.231-0.138-10.404l0.075-0.02c5.127-3.153,7.083-9.892,4.455-15.353
		l0.016,0c5.127-3.153,7.083-9.892,4.455-15.353"/>
	<path class="st0" d="M29.882,53.829h5.209c3.787,0,7.441-1.402,10.256-3.935c2.215-1.993,4.429-3.986,6.644-5.978
		c2.628-2.365,5.604-4.541,9.045-5.626c4.007-1.264,20.572-0.634,24.646-0.634c0.051,0,0.103,0,0.154,0
		c7.725,0,13.987,6.262,13.987,13.987v3.126"/>
	<path class="st0" d="M83.03,54.769h61.567c5.193,0,9.403,4.21,9.403,9.403l0,0c0,5.193-4.21,9.403-9.403,9.403H99.822"/>
	<line class="st0" x1="117.313" y1="89.46" x2="95.243" y2="89.46"/>
	<line class="st0" x1="90.644" y1="104.792" x2="112.709" y2="104.792"/>
	<polyline class="st1" points="4,115.259 29.882,115.259 29.882,46.134 4,46.134 	"/>
</g>
</svg>
