<?xml version="1.0" encoding="utf-8"?>
<!-- Generator: Adobe Illustrator 24.2.3, SVG Export Plug-In . SVG Version: 6.00 Build 0)  -->
<svg version="1.1" id="Layer_1" xmlns="http://www.w3.org/2000/svg" xmlns:xlink="http://www.w3.org/1999/xlink" x="0px" y="0px"
	 viewBox="0 0 158 158" style="enable-background:new 0 0 158 158;" xml:space="preserve">
<style type="text/css">
	.st0{fill:none;stroke:#2D3E50;stroke-width:6;stroke-miterlimit:10;}
	.st1{fill:none;stroke:#2D3E50;stroke-width:6;stroke-linejoin:round;stroke-miterlimit:10;}
	.st2{fill-rule:evenodd;clip-rule:evenodd;fill:none;stroke:#2D3E50;stroke-width:6;stroke-linejoin:round;stroke-miterlimit:10;}
	.st3{fill-rule:evenodd;clip-rule:evenodd;fill:none;stroke:#2D3E50;stroke-width:6;stroke-miterlimit:10;}
	.st4{fill:#FFFFFF;stroke:#2D3E50;stroke-width:6;stroke-miterlimit:10;}
	.st5{fill:none;stroke:#2D3E50;stroke-width:6;stroke-linecap:round;stroke-linejoin:round;stroke-miterlimit:10;}
	.st6{fill:#2D3E50;}
	.st7{fill:none;stroke:#2D3E50;stroke-width:6;stroke-linecap:round;stroke-miterlimit:10;}
	.st8{fill:none;stroke:#2D3E50;stroke-width:6;stroke-miterlimit:10;stroke-dasharray:9;}
</style>
<path id="SKYPE_4_" class="st2" d="M149.014,93.345c1.694-8.376,1.754-16.775,0.365-25.217
	c-6.124-37.208-41.182-63.293-78.435-58.256c-2.184,0.294-3.99-0.048-5.949-1.093c-15.745-8.408-35-5.519-47.801,7.054
	C4.585,28.215,1.413,47.566,9.491,63.325c0.851,1.661,1.114,3.157,0.733,5.001c-0.779,3.778-0.85,7.648-1.025,11.677
	c0.131,2.249,0.172,4.683,0.424,7.098c4.216,40.323,41.15,68.61,81.371,62.321c1.231-0.193,2.262,0.014,3.357,0.565
	c7.602,3.831,15.762,4.765,23.987,3.453c26.89-4.286,41.87-31.923,31.085-56.961C148.977,95.447,148.782,94.493,149.014,93.345z
	 M114.367,115.277c-4.514,5.139-10.199,8.428-16.657,10.288c-12.109,3.486-24.353,3.602-36.413-0.027
	c-10.978-3.305-19.072-10.101-22.295-21.502c-2.286-8.085,2.927-14.127,10.984-13.179c3.48,0.409,5.768,2.512,7.4,5.413
	c1.022,1.82,1.876,3.736,2.792,5.615c2.99,6.133,7.805,9.602,14.654,10.353c5.603,0.616,11.023,0.216,16.207-2.132
	c2.007-0.908,3.78-2.161,5.228-3.832c3.877-4.477,3.178-10.817-1.581-14.342c-4.598-3.406-10.117-4.316-15.486-5.513
	c-7.684-1.714-15.394-3.338-22.619-6.558c-7.469-3.329-13.535-8.164-15.492-16.611c-2.271-9.803,0.455-18.088,8.299-24.444
	c6.92-5.606,15.246-7.418,23.866-8.168c1.993-0.175,4.014-0.027,6.022-0.027c7.958-0.216,15.709,0.838,22.899,4.504
	c5.5,2.806,10.056,6.635,12.705,12.379c1.296,2.811,1.916,5.813,1.081,8.806c-1.012,3.637-3.49,6.17-7.246,6.933
	c-3.913,0.796-7.555,0.175-10.018-3.459c-1.173-1.731-2.302-3.494-3.361-5.296c-3.361-5.721-8.153-8.912-14.959-8.889
	c-3.106,0.012-6.197-0.088-9.24,0.647c-2.729,0.661-5.231,1.8-7.305,3.722c-3.698,3.43-3.555,8.146,0.389,11.283
	c2.598,2.066,5.672,3.218,8.849,4.028c7.454,1.902,14.945,3.666,22.389,5.614c4.052,1.059,7.923,2.651,11.679,4.533
	C124.587,84.167,123.343,105.059,114.367,115.277z"/>
</svg>
