<?xml version="1.0" encoding="utf-8"?>
<!-- Generator: Adobe Illustrator 24.2.3, SVG Export Plug-In . SVG Version: 6.00 Build 0)  -->
<svg version="1.1" id="Layer_1" xmlns="http://www.w3.org/2000/svg" xmlns:xlink="http://www.w3.org/1999/xlink" x="0px" y="0px"
	 viewBox="0 0 158 158" style="enable-background:new 0 0 158 158;" xml:space="preserve">
<style type="text/css">
	.st0{fill:none;stroke:#2D3E50;stroke-width:6;stroke-miterlimit:10;}
	.st1{fill:none;stroke:#2D3E50;stroke-width:6;stroke-linejoin:round;stroke-miterlimit:10;}
	.st2{fill-rule:evenodd;clip-rule:evenodd;fill:none;stroke:#2D3E50;stroke-width:6;stroke-linejoin:round;stroke-miterlimit:10;}
	.st3{fill-rule:evenodd;clip-rule:evenodd;fill:none;stroke:#2D3E50;stroke-width:6;stroke-miterlimit:10;}
	.st4{fill:#FFFFFF;stroke:#2D3E50;stroke-width:6;stroke-miterlimit:10;}
	.st5{fill:none;stroke:#2D3E50;stroke-width:6;stroke-linecap:round;stroke-linejoin:round;stroke-miterlimit:10;}
	.st6{fill:#2D3E50;}
	.st7{fill:none;stroke:#2D3E50;stroke-width:6;stroke-linecap:round;stroke-miterlimit:10;}
	.st8{fill:none;stroke:#2D3E50;stroke-width:6;stroke-miterlimit:10;stroke-dasharray:9;}
</style>
<g>
	<path class="st2" d="M59.037,4c-8.275,0.006-14.972,6.722-14.966,14.997c-0.006,8.275,6.697,14.991,14.972,14.997h14.972V19.003
		C74.021,10.728,67.318,4.012,59.037,4C59.043,4,59.043,4,59.037,4 M59.037,44H19.122C10.847,44.006,4.144,50.722,4.15,58.997
		C4.138,67.272,10.841,73.988,19.116,74h39.92c8.275-0.006,14.979-6.722,14.972-14.997C74.015,50.722,67.312,44.006,59.037,44
		L59.037,44z"/>
	<path class="st2" d="M153.85,58.997c0.006-8.275-6.697-14.991-14.972-14.997c-8.275,0.006-14.979,6.722-14.972,14.997V74h14.972
		C147.153,73.994,153.856,67.278,153.85,58.997z M113.93,58.997v-40C113.936,10.728,107.239,4.012,98.963,4
		c-8.275,0.006-14.979,6.722-14.972,14.997v40C83.979,67.272,90.682,73.988,98.957,74C107.232,73.994,113.936,67.278,113.93,58.997z
		"/>
	<path class="st2" d="M98.957,154c8.275-0.006,14.979-6.722,14.972-14.997c0.006-8.275-6.697-14.991-14.972-14.997H83.985v14.997
		C83.979,147.272,90.682,153.988,98.957,154z M98.957,113.994h39.92c8.275-0.006,14.979-6.722,14.972-14.997
		c0.012-8.275-6.691-14.991-14.966-15.003h-39.92C90.688,84,83.985,90.716,83.991,98.991
		C83.985,107.272,90.682,113.988,98.957,113.994L98.957,113.994z"/>
	<path class="st2" d="M4.15,98.997c-0.006,8.275,6.697,14.991,14.972,14.997c8.275-0.006,14.979-6.722,14.972-14.997V84H19.122
		C10.847,84.006,4.144,90.722,4.15,98.997z M44.07,98.997v40c-0.012,8.275,6.691,14.991,14.966,15.003
		c8.275-0.006,14.979-6.722,14.972-14.997V99.009c0.012-8.275-6.691-14.991-14.966-15.003C50.761,84.006,44.064,90.722,44.07,98.997
		C44.07,98.997,44.07,99.003,44.07,98.997"/>
</g>
</svg>
