<?xml version="1.0" encoding="utf-8"?>
<!-- Generator: Adobe Illustrator 24.2.3, SVG Export Plug-In . SVG Version: 6.00 Build 0)  -->
<svg version="1.1" id="Layer_1" xmlns="http://www.w3.org/2000/svg" xmlns:xlink="http://www.w3.org/1999/xlink" x="0px" y="0px"
	 viewBox="0 0 158 158" style="enable-background:new 0 0 158 158;" xml:space="preserve">
<style type="text/css">
	.st0{fill:none;stroke:#2D3E50;stroke-width:6;stroke-miterlimit:10;}
	.st1{fill:none;stroke:#2D3E50;stroke-width:6;stroke-linejoin:round;stroke-miterlimit:10;}
	.st2{fill-rule:evenodd;clip-rule:evenodd;fill:none;stroke:#2D3E50;stroke-width:6;stroke-linejoin:round;stroke-miterlimit:10;}
	.st3{fill-rule:evenodd;clip-rule:evenodd;fill:none;stroke:#2D3E50;stroke-width:6;stroke-miterlimit:10;}
	.st4{fill:#FFFFFF;stroke:#2D3E50;stroke-width:6;stroke-miterlimit:10;}
	.st5{fill:none;stroke:#2D3E50;stroke-width:6;stroke-linecap:round;stroke-linejoin:round;stroke-miterlimit:10;}
	.st6{fill:#2D3E50;}
	.st7{fill:none;stroke:#2D3E50;stroke-width:6;stroke-linecap:round;stroke-miterlimit:10;}
	.st8{fill:none;stroke:#2D3E50;stroke-width:6;stroke-miterlimit:10;stroke-dasharray:9;}
</style>
<g>
	<g>
		<path class="st0" d="M97.6,37.5V17.54v-6.22C97.6,7.28,94.32,4,90.28,4H26.79c-4.04,0-7.32,3.28-7.32,7.32v6.22v117.82v11.32
			c0,4.05,3.28,7.32,7.32,7.32h63.49c4.04,0,7.32-3.27,7.32-7.32v-11.32V83.32"/>
		<line class="st0" x1="97.601" y1="135.359" x2="19.466" y2="135.359"/>
		<line class="st0" x1="19.466" y1="17.535" x2="97.601" y2="17.535"/>
		<path class="st6" d="M58.799,140.618L58.799,140.618c2.081,0,3.769,1.687,3.769,3.769v0c0,2.081-1.687,3.769-3.769,3.769h0
			c-2.081,0-3.769-1.687-3.769-3.769v0C55.031,142.306,56.718,140.618,58.799,140.618z"/>
	</g>
	<polygon class="st1" points="138.534,83.322 88.288,83.322 65.25,97.377 65.471,83.322 55.844,83.322 55.844,37.504 
		138.534,37.504 	"/>
</g>
</svg>
