<?xml version="1.0" encoding="utf-8"?>
<!-- Generator: Adobe Illustrator 24.2.3, SVG Export Plug-In . SVG Version: 6.00 Build 0)  -->
<svg version="1.1" id="Layer_1" xmlns="http://www.w3.org/2000/svg" xmlns:xlink="http://www.w3.org/1999/xlink" x="0px" y="0px"
	 viewBox="0 0 158 158" style="enable-background:new 0 0 158 158;" xml:space="preserve">
<style type="text/css">
	.st0{fill:none;stroke:#2D3E50;stroke-width:6;stroke-miterlimit:10;}
	.st1{fill:none;stroke:#2D3E50;stroke-width:6;stroke-linejoin:round;stroke-miterlimit:10;}
	.st2{fill-rule:evenodd;clip-rule:evenodd;fill:none;stroke:#2D3E50;stroke-width:6;stroke-linejoin:round;stroke-miterlimit:10;}
	.st3{fill-rule:evenodd;clip-rule:evenodd;fill:none;stroke:#2D3E50;stroke-width:6;stroke-miterlimit:10;}
	.st4{fill:#FFFFFF;stroke:#2D3E50;stroke-width:6;stroke-miterlimit:10;}
	.st5{fill:none;stroke:#2D3E50;stroke-width:6;stroke-linecap:round;stroke-linejoin:round;stroke-miterlimit:10;}
	.st6{fill:#2D3E50;}
	.st7{fill:none;stroke:#2D3E50;stroke-width:6;stroke-linecap:round;stroke-miterlimit:10;}
	.st8{fill:none;stroke:#2D3E50;stroke-width:6;stroke-miterlimit:10;stroke-dasharray:9;}
</style>
<path class="st0" d="M153.23,116.182c-3.666-3.821-13.922,6.193-33.465-28.494c0,0-1.467-2.931,1.222-5.861
	c2.686-2.933,7.325-4.4,10.017-5.374c2.686-0.977,7.818-3.176,6.596-7.325c0,0-1.959-5.132-9.772-1.959
	c0,0-6.596,3.298-10.014-1.037c0,0,11.883-46.037-27.623-55.142c-0.667-0.152-1.352-0.294-2.049-0.424
	c-6.242-0.8-13.571-1.535-20.327,0.424c-0.672,0.155-1.325,0.318-1.97,0.493c-37.139,10.161-25.653,54.65-25.653,54.65
	c-3.421,4.335-10.019,1.037-10.019,1.037c-7.815-3.173-9.766,1.959-9.766,1.959c-1.222,4.15,3.908,6.348,6.593,7.325
	c2.686,0.974,7.328,2.441,10.014,5.374c2.686,2.931,1.225,5.861,1.225,5.861c-19.544,34.687-29.805,24.673-33.468,28.494
	c-3.205,3.344,4.436,7.263,7.704,8.027c0.471,0.106,0.844,0.152,1.089,0.122c7.576-0.977,11.239,4.153,14.172,10.017
	c0.729,0.726,2.199,1.464,3.317,1.325c0.618,0.054,1.263,0.06,1.927,0.035c2.648-0.106,5.568-0.737,7.886-0.805
	c0.569-0.005,1.124,0,1.663,0.025c1.222,0.052,2.373,0.18,3.456,0.365c1.083,0.188,2.104,0.43,3.048,0.71
	c6.553,2.005,11.682,7.867,18.54,10.468c0.958,0.318,1.91,0.601,2.835,0.849c4.634,1.254,12.558,1.254,17.193,0
	c0.925-0.248,1.88-0.531,2.833-0.849c6.86-2.601,11.992-8.463,18.548-10.468c0.944-0.28,1.957-0.522,3.04-0.71
	c1.089-0.185,2.24-0.313,3.459-0.365c0.542-0.025,1.094-0.03,1.66-0.025c2.321,0.068,5.238,0.699,7.889,0.805
	c0.664,0.025,1.309,0.019,1.924-0.035c1.121,0.139,2.588-0.599,3.323-1.325c2.928-5.864,6.591-10.994,14.164-10.017
	c0.245,0.03,0.626-0.016,1.091-0.122C148.794,123.445,156.438,119.526,153.23,116.182z"/>
</svg>
