<?xml version="1.0" encoding="utf-8"?>
<!-- Generator: Adobe Illustrator 24.2.3, SVG Export Plug-In . SVG Version: 6.00 Build 0)  -->
<svg version="1.1" id="Layer_1" xmlns="http://www.w3.org/2000/svg" xmlns:xlink="http://www.w3.org/1999/xlink" x="0px" y="0px"
	 viewBox="0 0 158 158" style="enable-background:new 0 0 158 158;" xml:space="preserve">
<style type="text/css">
	.st0{fill:none;stroke:#2D3E50;stroke-width:6;stroke-miterlimit:10;}
	.st1{fill:none;stroke:#2D3E50;stroke-width:6;stroke-linejoin:round;stroke-miterlimit:10;}
	.st2{fill-rule:evenodd;clip-rule:evenodd;fill:none;stroke:#2D3E50;stroke-width:6;stroke-linejoin:round;stroke-miterlimit:10;}
	.st3{fill-rule:evenodd;clip-rule:evenodd;fill:none;stroke:#2D3E50;stroke-width:6;stroke-miterlimit:10;}
	.st4{fill:#FFFFFF;stroke:#2D3E50;stroke-width:6;stroke-miterlimit:10;}
	.st5{fill:none;stroke:#2D3E50;stroke-width:6;stroke-linecap:round;stroke-linejoin:round;stroke-miterlimit:10;}
	.st6{fill:#2D3E50;}
	.st7{fill:none;stroke:#2D3E50;stroke-width:6;stroke-linecap:round;stroke-miterlimit:10;}
	.st8{fill:none;stroke:#2D3E50;stroke-width:6;stroke-miterlimit:10;stroke-dasharray:9;}
</style>
<g>
	<g id="logo_7_">
		<path class="st1" d="M154,93.832c0,12.385-9.783,22.434-21.848,22.434H76.593V46.819c0.76-0.55,1.539-1.044,2.345-1.493
			c11.258-6.358,26.392-4.232,36.652,6.028c5.991,5.991,9.216,13.64,9.591,21.216c2.189-0.76,4.534-1.173,6.971-1.173
			C144.217,71.397,154,81.437,154,93.832z"/>
	</g>
	<line class="st5" x1="66.885" y1="116.266" x2="66.885" y2="49.864"/>
	<line class="st5" x1="56.404" y1="116.266" x2="56.404" y2="61.356"/>
	<line class="st5" x1="45.923" y1="116.266" x2="45.923" y2="57.789"/>
	<line class="st5" x1="35.442" y1="116.266" x2="35.443" y2="64.526"/>
	<line class="st5" x1="24.962" y1="116.266" x2="24.965" y2="79"/>
	<line class="st5" x1="14.481" y1="116.266" x2="14.488" y2="76.119"/>
	<line class="st5" x1="4" y1="108.299" x2="4.016" y2="82.415"/>
</g>
</svg>
