<?xml version="1.0" encoding="utf-8"?>
<!-- Generator: Adobe Illustrator 24.2.3, SVG Export Plug-In . SVG Version: 6.00 Build 0)  -->
<svg version="1.1" id="Layer_1" xmlns="http://www.w3.org/2000/svg" xmlns:xlink="http://www.w3.org/1999/xlink" x="0px" y="0px"
	 viewBox="0 0 158 158" style="enable-background:new 0 0 158 158;" xml:space="preserve">
<style type="text/css">
	.st0{fill:#2D3E50;}
</style>
<g>
	<path class="st0" d="M79,129.572c-7.562,0-13.714,6.152-13.714,13.714C65.286,150.848,71.438,157,79,157
		c7.563,0,13.715-6.152,13.715-13.715C92.715,135.724,86.563,129.572,79,129.572z M79,151c-4.254,0-7.714-3.461-7.714-7.715
		s3.46-7.714,7.714-7.714s7.715,3.46,7.715,7.714S83.254,151,79,151z"/>
	<path class="st0" d="M114.76,114.759c-2.591,2.59-4.018,6.034-4.018,9.697c0,3.664,1.427,7.107,4.018,9.697
		c2.59,2.591,6.034,4.018,9.697,4.018s7.107-1.427,9.697-4.018c2.591-2.59,4.018-6.033,4.018-9.697c0-3.663-1.427-7.107-4.018-9.697
		C128.807,109.412,120.107,109.412,114.76,114.759z M129.912,129.911c-3.008,3.008-7.902,3.008-10.91,0
		c-1.457-1.457-2.26-3.395-2.26-5.455c0-2.06,0.803-3.997,2.26-5.454c1.504-1.504,3.479-2.256,5.455-2.256s3.951,0.752,5.455,2.256
		c1.457,1.457,2.26,3.394,2.26,5.454C132.172,126.517,131.369,128.454,129.912,129.911z"/>
	<path class="st0" d="M143.286,65.285c-7.563,0-13.715,6.152-13.715,13.714s6.152,13.714,13.715,13.714
		C150.848,92.714,157,86.562,157,79S150.848,65.285,143.286,65.285z M143.286,86.714c-4.254,0-7.715-3.46-7.715-7.714
		s3.461-7.714,7.715-7.714S151,74.746,151,79S147.54,86.714,143.286,86.714z"/>
	<path class="st0" d="M79,1c-7.562,0-13.714,6.152-13.714,13.714S71.438,28.428,79,28.428c7.563,0,13.715-6.152,13.715-13.714
		S86.563,1,79,1z M79,22.428c-4.254,0-7.714-3.46-7.714-7.714S74.746,7,79,7s7.715,3.46,7.715,7.714S83.254,22.428,79,22.428z"/>
	<path class="st0" d="M33.543,19.828c-3.663,0-7.107,1.427-9.697,4.018c-5.347,5.347-5.347,14.047,0,19.394
		c2.59,2.591,6.034,4.017,9.697,4.017c3.664,0,7.107-1.426,9.697-4.017c2.591-2.59,4.018-6.034,4.018-9.698
		c0-3.663-1.427-7.107-4.018-9.697C40.65,21.255,37.207,19.828,33.543,19.828z M38.998,38.998c-1.457,1.457-3.395,2.259-5.455,2.259
		s-3.998-0.802-5.455-2.259c-3.007-3.008-3.007-7.902,0-10.91c1.457-1.457,3.395-2.26,5.455-2.26s3.998,0.803,5.455,2.26
		c1.457,1.457,2.26,3.394,2.26,5.454C41.258,35.603,40.455,37.54,38.998,38.998z"/>
	<path class="st0" d="M28.429,79c0-7.562-6.152-13.714-13.714-13.714C7.152,65.285,1,71.438,1,79s6.152,13.714,13.715,13.714
		C22.276,92.714,28.429,86.562,28.429,79z M14.715,86.714C10.461,86.714,7,83.254,7,79s3.461-7.714,7.715-7.714
		s7.714,3.46,7.714,7.714S18.969,86.714,14.715,86.714z"/>
	<path class="st0" d="M33.543,110.742c-3.663,0-7.106,1.427-9.697,4.017c-5.347,5.347-5.347,14.047,0,19.394
		c2.59,2.591,6.034,4.018,9.697,4.018s7.107-1.427,9.697-4.018c2.591-2.59,4.018-6.033,4.018-9.697c0-3.663-1.427-7.107-4.018-9.697
		C40.65,112.169,37.207,110.742,33.543,110.742z M38.998,129.911c-1.457,1.457-3.395,2.26-5.455,2.26s-3.998-0.803-5.455-2.26
		c-3.007-3.008-3.007-7.902,0-10.909c1.457-1.457,3.395-2.26,5.455-2.26s3.998,0.802,5.455,2.26c1.457,1.457,2.26,3.394,2.26,5.454
		C41.258,126.517,40.455,128.454,38.998,129.911z"/>
</g>
</svg>
