<?xml version="1.0" encoding="utf-8"?>
<!-- Generator: Adobe Illustrator 24.2.3, SVG Export Plug-In . SVG Version: 6.00 Build 0)  -->
<svg version="1.1" id="Layer_1" xmlns="http://www.w3.org/2000/svg" xmlns:xlink="http://www.w3.org/1999/xlink" x="0px" y="0px"
	 viewBox="0 0 158 158" style="enable-background:new 0 0 158 158;" xml:space="preserve">
<style type="text/css">
	.st0{fill:none;stroke:#2D3E50;stroke-width:6;stroke-miterlimit:10;}
	.st1{fill:none;stroke:#2D3E50;stroke-width:6;stroke-linejoin:round;stroke-miterlimit:10;}
	.st2{fill-rule:evenodd;clip-rule:evenodd;fill:none;stroke:#2D3E50;stroke-width:6;stroke-linejoin:round;stroke-miterlimit:10;}
	.st3{fill-rule:evenodd;clip-rule:evenodd;fill:none;stroke:#2D3E50;stroke-width:6;stroke-miterlimit:10;}
	.st4{fill:#FFFFFF;stroke:#2D3E50;stroke-width:6;stroke-miterlimit:10;}
	.st5{fill:none;stroke:#2D3E50;stroke-width:6;stroke-linecap:round;stroke-linejoin:round;stroke-miterlimit:10;}
	.st6{fill:#2D3E50;}
	.st7{fill:none;stroke:#2D3E50;stroke-width:6;stroke-linecap:round;stroke-miterlimit:10;}
	.st8{fill:none;stroke:#2D3E50;stroke-width:6;stroke-miterlimit:10;stroke-dasharray:9;}
</style>
<g id="logo_2_">
	<g>
		<path class="st0" d="M144.221,68.303c-1.574,0-3.17-0.382-4.651-1.185C102.608,47.056,57.795,42.757,16.623,55.329
			c-5.16,1.574-10.62-1.331-12.195-6.491c-1.575-5.16,1.33-10.619,6.491-12.195c46.148-14.088,96.436-9.24,137.971,13.304
			c4.741,2.574,6.498,8.504,3.925,13.245C151.045,66.454,147.688,68.303,144.221,68.303z"/>
	</g>
	<g>
		<path class="st0" d="M130.813,101.155c-1.436,0-2.89-0.365-4.223-1.135C95.434,82.045,57.12,77.493,21.469,87.535
			c-4.5,1.267-9.177-1.353-10.444-5.853c-1.268-4.501,1.353-9.177,5.853-10.444c40.014-11.272,83.088-6.128,118.174,14.118
			c4.05,2.337,5.439,7.514,3.102,11.564C136.586,99.636,133.739,101.155,130.813,101.155z"/>
	</g>
	<g>
		<path class="st0" d="M119.681,129.283c-1.075,0-2.165-0.266-3.17-0.828c-27.835-15.547-61.799-19.167-93.187-9.932
			c-3.454,1.011-7.071-0.96-8.086-4.41c-1.015-3.45,0.959-7.07,4.41-8.086c34.725-10.215,72.343-6.185,103.213,11.057
			c3.14,1.754,4.264,5.721,2.51,8.861C124.179,128.08,121.964,129.283,119.681,129.283z"/>
	</g>
</g>
</svg>
