<?xml version="1.0" encoding="utf-8"?>
<!-- Generator: Adobe Illustrator 24.2.3, SVG Export Plug-In . SVG Version: 6.00 Build 0)  -->
<svg version="1.1" id="Layer_1" xmlns="http://www.w3.org/2000/svg" xmlns:xlink="http://www.w3.org/1999/xlink" x="0px" y="0px"
	 viewBox="0 0 158 158" style="enable-background:new 0 0 158 158;" xml:space="preserve">
<style type="text/css">
	.st0{fill:#2D3E50;}
</style>
<g>
	<path class="st0" d="M147.203,127.702v22.548H10.797v-22.548h-6v25.548c0,1.657,1.343,3,3,3h142.405c1.657,0,3-1.343,3-3v-25.548
		H147.203z"/>
	
		<rect x="125.913" y="-2.455" transform="matrix(0.866 -0.5 0.5 0.866 -2.791 69.8323)" class="st0" width="5.999" height="85.158"/>
	
		<rect x="104.749" y="13.785" transform="matrix(0.7071 -0.7071 0.7071 0.7071 -8.2964 92.6987)" class="st0" width="5.999" height="85.158"/>
	<rect x="88.509" y="34.95" transform="matrix(0.5 -0.866 0.866 0.5 -21.3873 118.0131)" class="st0" width="6" height="85.158"/>
	
		<rect x="78.3" y="59.596" transform="matrix(0.2588 -0.9659 0.9659 0.2588 -38.4351 154.2599)" class="st0" width="6" height="85.158"/>
	<rect x="35.24" y="125.623" class="st0" width="85.157" height="6"/>
</g>
</svg>
