<?xml version="1.0" encoding="utf-8"?>
<!-- Generator: Adobe Illustrator 24.2.3, SVG Export Plug-In . SVG Version: 6.00 Build 0)  -->
<svg version="1.1" id="Layer_1" xmlns="http://www.w3.org/2000/svg" xmlns:xlink="http://www.w3.org/1999/xlink" x="0px" y="0px"
	 viewBox="0 0 158 158" style="enable-background:new 0 0 158 158;" xml:space="preserve">
<style type="text/css">
	.st0{fill:#2D3E50;}
</style>
<g>
	<path class="st0" d="M79,19.256c28.267,0,52.597,19.997,58.414,47.212l-16.198-9.352l-3,5.196l24.333,14.049l14.049-24.333
		l-5.195-3l-8.463,14.659C135.968,34.518,109.573,13.256,79,13.256c-32.82,0-60.836,24.497-65.165,56.981l5.947,0.793
		C23.716,41.515,49.174,19.256,79,19.256z"/>
	<path class="st0" d="M79,138.744c-28.267,0-52.597-19.997-58.413-47.212l16.197,9.351l3-5.196L15.451,81.638L1.402,105.971l5.195,3
		l8.463-14.659c6.972,29.17,33.366,50.431,63.939,50.431c32.82,0,60.836-24.497,65.165-56.981l-5.947-0.793
		C134.284,116.485,108.826,138.744,79,138.744z"/>
</g>
</svg>
