<?xml version="1.0" encoding="utf-8"?>
<!-- Generator: Adobe Illustrator 24.2.3, SVG Export Plug-In . SVG Version: 6.00 Build 0)  -->
<svg version="1.1" id="Layer_1" xmlns="http://www.w3.org/2000/svg" xmlns:xlink="http://www.w3.org/1999/xlink" x="0px" y="0px"
	 viewBox="0 0 158 158" style="enable-background:new 0 0 158 158;" xml:space="preserve">
<style type="text/css">
	.st0{fill:none;stroke:#2D3E50;stroke-width:6;stroke-miterlimit:10;}
	.st1{fill:none;stroke:#2D3E50;stroke-width:6;stroke-linejoin:round;stroke-miterlimit:10;}
	.st2{fill-rule:evenodd;clip-rule:evenodd;fill:none;stroke:#2D3E50;stroke-width:6;stroke-linejoin:round;stroke-miterlimit:10;}
	.st3{fill-rule:evenodd;clip-rule:evenodd;fill:none;stroke:#2D3E50;stroke-width:6;stroke-miterlimit:10;}
	.st4{fill:#FFFFFF;stroke:#2D3E50;stroke-width:6;stroke-miterlimit:10;}
	.st5{fill:none;stroke:#2D3E50;stroke-width:6;stroke-linecap:round;stroke-linejoin:round;stroke-miterlimit:10;}
	.st6{fill:#2D3E50;}
	.st7{fill:none;stroke:#2D3E50;stroke-width:6;stroke-linecap:round;stroke-miterlimit:10;}
	.st8{fill:none;stroke:#2D3E50;stroke-width:6;stroke-miterlimit:10;stroke-dasharray:9;}
</style>
<path id="TELEGRAM_2_" class="st2" d="M153.932,25.75c-0.383,5.369-3.451,24.159-6.519,44.483l-9.587,60.206
	c0,0-0.767,8.82-7.286,10.354c-6.519,1.534-17.256-5.369-19.174-6.903c-1.534-1.15-28.761-18.407-38.731-26.843
	c-2.684-2.301-5.752-6.903,0.383-12.271c13.805-12.655,30.295-28.377,40.265-38.348c4.602-4.602,9.204-15.339-9.97-2.301
	l-54.07,36.43c0,0-6.136,3.835-17.64,0.384C20.099,87.49,6.677,82.888,6.677,82.888s-9.203-5.752,6.519-11.888v0l89.35-36.814
	c8.82-3.835,38.731-16.106,38.731-16.106S155.082,12.712,153.932,25.75z"/>
</svg>
