<?xml version="1.0" encoding="utf-8"?>
<!-- Generator: Adobe Illustrator 24.2.3, SVG Export Plug-In . SVG Version: 6.00 Build 0)  -->
<svg version="1.1" id="Layer_1" xmlns="http://www.w3.org/2000/svg" xmlns:xlink="http://www.w3.org/1999/xlink" x="0px" y="0px"
	 viewBox="0 0 158 158" style="enable-background:new 0 0 158 158;" xml:space="preserve">
<style type="text/css">
	.st0{fill:none;stroke:#2D3E50;stroke-width:6;stroke-miterlimit:10;}
	.st1{fill:none;stroke:#2D3E50;stroke-width:6;stroke-linejoin:round;stroke-miterlimit:10;}
	.st2{fill-rule:evenodd;clip-rule:evenodd;fill:none;stroke:#2D3E50;stroke-width:6;stroke-linejoin:round;stroke-miterlimit:10;}
	.st3{fill-rule:evenodd;clip-rule:evenodd;fill:none;stroke:#2D3E50;stroke-width:6;stroke-miterlimit:10;}
	.st4{fill:#FFFFFF;stroke:#2D3E50;stroke-width:6;stroke-miterlimit:10;}
	.st5{fill:none;stroke:#2D3E50;stroke-width:6;stroke-linecap:round;stroke-linejoin:round;stroke-miterlimit:10;}
	.st6{fill:#2D3E50;}
	.st7{fill:none;stroke:#2D3E50;stroke-width:6;stroke-linecap:round;stroke-miterlimit:10;}
	.st8{fill:none;stroke:#2D3E50;stroke-width:6;stroke-miterlimit:10;stroke-dasharray:9;}
</style>
<path id="TIKTOK_2_" class="st2" d="M140.384,38.036l3.311,0.242V68.94l-3.36,0.367c-8.342,0.773-16.563-1.431-23.5-5.163
	c-3.112-1.675-5.998-3.742-8.582-6.134v49.015c0,25.902-21.073,46.974-46.974,46.974c-25.902,0-46.974-21.073-46.974-46.974
	c0-25.875,21.011-46.926,46.836-46.926c1.008,0,2.032,0.032,3.045,0.096l3.347,0.211v28.768l-3.997-0.48
	c-0.248-0.03-0.494-0.063-0.74-0.097c-0.578-0.079-1.078-0.147-1.516-0.147c-10.245,0-18.58,8.335-18.58,18.58
	c0,10.245,8.335,18.58,18.58,18.58c5.011,0,9.996-1.965,13.676-5.392c3.737-3.48,5.795-8.066,5.795-12.913L80.971,4h27.241
	l0.336,3.198C110.3,23.846,123.688,36.816,140.384,38.036z"/>
</svg>
