<?xml version="1.0" encoding="utf-8"?>
<!-- Generator: Adobe Illustrator 24.2.3, SVG Export Plug-In . SVG Version: 6.00 Build 0)  -->
<svg version="1.1" id="Layer_1" xmlns="http://www.w3.org/2000/svg" xmlns:xlink="http://www.w3.org/1999/xlink" x="0px" y="0px"
	 viewBox="0 0 158 158" style="enable-background:new 0 0 158 158;" xml:space="preserve">
<style type="text/css">
	.st0{fill:#2D3E50;}
</style>
<g>
	<path class="st0" d="M79,1C35.99,1,1,35.99,1,79s34.99,78,78,78s78-34.99,78-78S122.01,1,79,1z M79,151c-39.701,0-72-32.299-72-72
		S39.299,7,79,7s72,32.299,72,72S118.701,151,79,151z"/>
	<path class="st0" d="M119.567,49.47L108.53,38.433c-3.104-3.104-8.152-3.104-11.256,0L79,56.706L60.727,38.433
		c-3.104-3.104-8.152-3.104-11.256,0L38.434,49.469c-1.504,1.504-2.332,3.503-2.332,5.629s0.828,4.125,2.332,5.628L56.707,79
		L38.434,97.273c-3.104,3.104-3.104,8.153,0,11.257l11.037,11.037c3.104,3.104,8.152,3.104,11.256,0L79,101.294l18.274,18.273
		c1.552,1.552,3.59,2.328,5.628,2.328s4.076-0.776,5.628-2.328l11.038-11.037c3.102-3.104,3.102-8.153-0.001-11.257L101.294,79
		l18.273-18.274C122.671,57.622,122.671,52.573,119.567,49.47z M115.325,56.483L94.93,76.879c-0.563,0.563-0.879,1.325-0.879,2.121
		s0.316,1.559,0.879,2.121l20.395,20.395c0.765,0.765,0.765,2.008,0.001,2.772l-11.037,11.037c-0.764,0.764-2.008,0.764-2.771,0
		L81.121,94.93c-0.563-0.563-1.325-0.879-2.121-0.879s-1.559,0.316-2.121,0.879l-20.395,20.396c-0.764,0.764-2.008,0.764-2.771,0
		l-11.037-11.037c-0.764-0.765-0.764-2.008,0-2.772L63.07,81.121c1.172-1.171,1.172-3.07,0-4.242L42.676,56.482
		c-0.37-0.37-0.574-0.861-0.574-1.385s0.204-1.015,0.574-1.386l11.037-11.037c0.764-0.764,2.008-0.764,2.771,0L76.879,63.07
		c0.563,0.563,1.325,0.879,2.121,0.879s1.559-0.316,2.121-0.879l20.396-20.396c0.764-0.764,2.008-0.764,2.771,0l11.037,11.037
		C116.089,54.477,116.089,55.719,115.325,56.483z"/>
</g>
</svg>
