<?xml version="1.0" encoding="utf-8"?>
<!-- Generator: Adobe Illustrator 24.2.3, SVG Export Plug-In . SVG Version: 6.00 Build 0)  -->
<svg version="1.1" id="Layer_1" xmlns="http://www.w3.org/2000/svg" xmlns:xlink="http://www.w3.org/1999/xlink" x="0px" y="0px"
	 viewBox="0 0 158 158" style="enable-background:new 0 0 158 158;" xml:space="preserve">
<style type="text/css">
	.st0{fill:none;stroke:#2D3E50;stroke-width:6;stroke-miterlimit:10;}
	.st1{fill:none;stroke:#2D3E50;stroke-width:6;stroke-linejoin:round;stroke-miterlimit:10;}
	.st2{fill-rule:evenodd;clip-rule:evenodd;fill:none;stroke:#2D3E50;stroke-width:6;stroke-linejoin:round;stroke-miterlimit:10;}
	.st3{fill-rule:evenodd;clip-rule:evenodd;fill:none;stroke:#2D3E50;stroke-width:6;stroke-miterlimit:10;}
	.st4{fill:#FFFFFF;stroke:#2D3E50;stroke-width:6;stroke-miterlimit:10;}
	.st5{fill:none;stroke:#2D3E50;stroke-width:6;stroke-linecap:round;stroke-linejoin:round;stroke-miterlimit:10;}
	.st6{fill:#2D3E50;}
	.st7{fill:none;stroke:#2D3E50;stroke-width:6;stroke-linecap:round;stroke-miterlimit:10;}
	.st8{fill:none;stroke:#2D3E50;stroke-width:6;stroke-miterlimit:10;stroke-dasharray:9;}
</style>
<path id="logo_12_" class="st0" d="M86.039,4.133c-0.829-0.43-1.799,0.239-1.722,1.17c0.77,9.259,0.467,17.419-0.917,24.527
	c-1.739,9.132-5.264,16.525-10.563,22.298c-4.2,4.565-9.52,8.11-15.961,10.693c-1.635,0.656-3.52,0.027-4.405-1.495
	c-3.004-5.166-4.515-12.905-4.875-21.597c-0.037-0.893-1.005-1.447-1.773-0.99C27.487,49.66,15.241,69.358,15.241,91.838
	c0,34.328,28.532,62.162,63.735,62.162s63.747-27.834,63.747-62.162C143.848,50.586,118.386,20.938,86.039,4.133z"/>
</svg>
