<?xml version="1.0" encoding="utf-8"?>
<!-- Generator: Adobe Illustrator 24.2.3, SVG Export Plug-In . SVG Version: 6.00 Build 0)  -->
<svg version="1.1" id="Layer_1" xmlns="http://www.w3.org/2000/svg" xmlns:xlink="http://www.w3.org/1999/xlink" x="0px" y="0px"
	 viewBox="0 0 158 158" style="enable-background:new 0 0 158 158;" xml:space="preserve">
<style type="text/css">
	.st0{fill:none;stroke:#2D3E50;stroke-width:6;stroke-miterlimit:10;}
	.st1{fill:none;stroke:#2D3E50;stroke-width:6;stroke-linejoin:round;stroke-miterlimit:10;}
	.st2{fill-rule:evenodd;clip-rule:evenodd;fill:none;stroke:#2D3E50;stroke-width:6;stroke-linejoin:round;stroke-miterlimit:10;}
	.st3{fill-rule:evenodd;clip-rule:evenodd;fill:none;stroke:#2D3E50;stroke-width:6;stroke-miterlimit:10;}
	.st4{fill:#FFFFFF;stroke:#2D3E50;stroke-width:6;stroke-miterlimit:10;}
	.st5{fill:none;stroke:#2D3E50;stroke-width:6;stroke-linecap:round;stroke-linejoin:round;stroke-miterlimit:10;}
	.st6{fill:#2D3E50;}
	.st7{fill:none;stroke:#2D3E50;stroke-width:6;stroke-linecap:round;stroke-miterlimit:10;}
	.st8{fill:none;stroke:#2D3E50;stroke-width:6;stroke-miterlimit:10;stroke-dasharray:9;}
</style>
<g>
	<path class="st1" d="M18.648,4h120.703C147.442,4,154,10.558,154,18.648v120.703c0,8.09-6.558,14.648-14.648,14.648H18.648
		C10.558,154,4,147.442,4,139.352V18.648C4,10.558,10.558,4,18.648,4z"/>
	<path class="st1" d="M95.781,23.5h31.688c3.883,0,7.031,3.148,7.031,7.031v51.563c0,3.883-3.148,7.031-7.031,7.031H95.781
		c-3.883,0-7.031-3.148-7.031-7.031V30.531C88.75,26.648,91.898,23.5,95.781,23.5z"/>
	<path class="st1" d="M30.531,23.5h31.688c3.883,0,7.031,3.148,7.031,7.031v89.063c0,3.883-3.148,7.031-7.031,7.031H30.531
		c-3.883,0-7.031-3.148-7.031-7.031V30.531C23.5,26.648,26.648,23.5,30.531,23.5z"/>
</g>
</svg>
