<?xml version="1.0" encoding="utf-8"?>
<!-- Generator: Adobe Illustrator 24.2.3, SVG Export Plug-In . SVG Version: 6.00 Build 0)  -->
<svg version="1.1" id="Layer_1" xmlns="http://www.w3.org/2000/svg" xmlns:xlink="http://www.w3.org/1999/xlink" x="0px" y="0px"
	 viewBox="0 0 158 158" style="enable-background:new 0 0 158 158;" xml:space="preserve">
<style type="text/css">
	.st0{fill:none;stroke:#2D3E50;stroke-width:6;stroke-miterlimit:10;}
	.st1{fill:none;stroke:#2D3E50;stroke-width:6;stroke-linejoin:round;stroke-miterlimit:10;}
	.st2{fill-rule:evenodd;clip-rule:evenodd;fill:none;stroke:#2D3E50;stroke-width:6;stroke-linejoin:round;stroke-miterlimit:10;}
	.st3{fill-rule:evenodd;clip-rule:evenodd;fill:none;stroke:#2D3E50;stroke-width:6;stroke-miterlimit:10;}
	.st4{fill:#FFFFFF;stroke:#2D3E50;stroke-width:6;stroke-miterlimit:10;}
	.st5{fill:none;stroke:#2D3E50;stroke-width:6;stroke-linecap:round;stroke-linejoin:round;stroke-miterlimit:10;}
	.st6{fill:#2D3E50;}
	.st7{fill:none;stroke:#2D3E50;stroke-width:6;stroke-linecap:round;stroke-miterlimit:10;}
	.st8{fill:none;stroke:#2D3E50;stroke-width:6;stroke-miterlimit:10;stroke-dasharray:9;}
</style>
<g>
	<circle class="st0" cx="40.359" cy="85.678" r="15.776"/>
	<circle class="st0" cx="40.359" cy="85.678" r="4.494"/>
	<circle class="st0" cx="40.359" cy="85.678" r="33.557"/>
	<path class="st0" d="M11.576,67.283C9.508,59.7,4,52.124,4,52.124h26.136"/>
	<line class="st0" x1="40.707" y1="52.124" x2="40.362" y2="52.124"/>
	<circle class="st0" cx="117.637" cy="85.678" r="15.776"/>
	<circle class="st0" cx="117.637" cy="85.678" r="4.494"/>
	<circle class="st0" cx="117.637" cy="85.678" r="33.557"/>
	<line class="st0" x1="117.638" y1="52.124" x2="117.293" y2="52.124"/>
	<path class="st0" d="M127.864,52.124H154c0,0-5.515,7.576-7.583,15.159"/>
	<polyline class="st0" points="68.78,104.099 78.998,119 89.216,103.673 	"/>
	<path class="st0" d="M30.136,52.124C44.445,43.636,61.152,38.764,79,38.764c17.84,0,34.555,4.872,48.864,13.359"/>
</g>
</svg>
