<?xml version="1.0" encoding="utf-8"?>
<!-- Generator: Adobe Illustrator 24.2.3, SVG Export Plug-In . SVG Version: 6.00 Build 0)  -->
<svg version="1.1" id="Layer_1" xmlns="http://www.w3.org/2000/svg" xmlns:xlink="http://www.w3.org/1999/xlink" x="0px" y="0px"
	 viewBox="0 0 158 158" style="enable-background:new 0 0 158 158;" xml:space="preserve">
<style type="text/css">
	.st0{fill:none;stroke:#2D3E50;stroke-width:6;stroke-miterlimit:10;}
	.st1{fill:none;stroke:#2D3E50;stroke-width:6;stroke-linejoin:round;stroke-miterlimit:10;}
	.st2{fill-rule:evenodd;clip-rule:evenodd;fill:none;stroke:#2D3E50;stroke-width:6;stroke-linejoin:round;stroke-miterlimit:10;}
	.st3{fill-rule:evenodd;clip-rule:evenodd;fill:none;stroke:#2D3E50;stroke-width:6;stroke-miterlimit:10;}
	.st4{fill:#FFFFFF;stroke:#2D3E50;stroke-width:6;stroke-miterlimit:10;}
	.st5{fill:none;stroke:#2D3E50;stroke-width:6;stroke-linecap:round;stroke-linejoin:round;stroke-miterlimit:10;}
	.st6{fill:#2D3E50;}
	.st7{fill:none;stroke:#2D3E50;stroke-width:6;stroke-linecap:round;stroke-miterlimit:10;}
	.st8{fill:none;stroke:#2D3E50;stroke-width:6;stroke-miterlimit:10;stroke-dasharray:9;}
</style>
<path class="st1" d="M137.093,37.249c0,0,11.454-9.274,12.365-16.909c0,0-7.821,5.636-19.459,7.455c0,0-10.726-13.273-30.727-8.546
	c-20.001,4.727-24.182,27.09-21.818,36c0,0-34.729,0.546-63.092-31.638c0,0-13.818,23.092,10,40.91c0,0-11.428-0.727-13.986-3.636
	c0,0-1.105,24.182,24.895,30.182c0,0-6.182,2.182-14.181,1.273c0,0,6.726,19.999,28.727,20.545c0,0-19.999,16.545-45.818,12.909
	c0,0,27.205,20.045,64.354,12.119c1.771-0.378,3.563-0.819,5.378-1.328c23.541-7.155,43.904-22.427,55.184-44.563
	c0.746-1.436,1.474-2.925,2.17-4.467c4.892-10.79,8.405-24.116,7.643-39.58c0,0,11.635-8.181,15.271-15.454
	C154,32.522,146.544,35.976,137.093,37.249z"/>
</svg>
