<?xml version="1.0" encoding="utf-8"?>
<!-- Generator: Adobe Illustrator 24.2.3, SVG Export Plug-In . SVG Version: 6.00 Build 0)  -->
<svg version="1.1" id="Layer_1" xmlns="http://www.w3.org/2000/svg" xmlns:xlink="http://www.w3.org/1999/xlink" x="0px" y="0px"
	 viewBox="0 0 158 158" style="enable-background:new 0 0 158 158;" xml:space="preserve">
<style type="text/css">
	.st0{fill:none;stroke:#2D3E50;stroke-width:6;stroke-miterlimit:10;}
	.st1{fill:none;stroke:#2D3E50;stroke-width:6;stroke-linejoin:round;stroke-miterlimit:10;}
	.st2{fill-rule:evenodd;clip-rule:evenodd;fill:none;stroke:#2D3E50;stroke-width:6;stroke-linejoin:round;stroke-miterlimit:10;}
	.st3{fill-rule:evenodd;clip-rule:evenodd;fill:none;stroke:#2D3E50;stroke-width:6;stroke-miterlimit:10;}
	.st4{fill:#FFFFFF;stroke:#2D3E50;stroke-width:6;stroke-miterlimit:10;}
	.st5{fill:none;stroke:#2D3E50;stroke-width:6;stroke-linecap:round;stroke-linejoin:round;stroke-miterlimit:10;}
	.st6{fill:#2D3E50;}
	.st7{fill:none;stroke:#2D3E50;stroke-width:6;stroke-linecap:round;stroke-miterlimit:10;}
	.st8{fill:none;stroke:#2D3E50;stroke-width:6;stroke-miterlimit:10;stroke-dasharray:9;}
</style>
<g>
	<path id="VIBER_1_" class="st2" d="M132.788,18.62c-3.64-3.429-18.355-14.364-51.127-14.512c0,0-38.644-2.388-57.483,15.307
		C13.692,30.152,10.002,45.858,9.611,65.344c-0.386,19.486-0.893,55.988,33.482,65.891l0.031,0.009l-0.018,15.105
		c0,0-0.215,6.118,3.712,7.362c4.758,1.513,7.55-3.138,12.093-8.147c2.496-2.747,5.934-6.787,8.529-9.875
		c23.512,2.016,41.593-2.608,43.644-3.29c4.749-1.58,31.61-5.099,35.978-41.602C151.569,53.157,144.876,29.357,132.788,18.62z
		 M112.975,99.894l-0.013,0.054c-1.463,2.653-3.425,5.131-5.903,7.447l-0.054,0.041c-3.232,2.761-6.383,3.631-9.422,2.621
		c-11.698-4.722-23.566-11.541-34.537-22.924C51.954,75.605,44.517,62.66,40.665,50.518l-0.391-1.773
		c-0.75-4.408,2.002-7.362,9.597-12.501l0.135-0.099c2.644-1.625,5.265-0.821,6.958,0.588c1.566,1.113,5.974,6.949,5.974,6.949
		c0.866,1.32,6.926,8.798,5.53,12.384c-0.476,2.065-4.027,4.233-5.943,6.015l-0.153,0.126c-0.812,1.355-1.145,2.276-0.875,4.264
		l0.072,0.319c0.996,4.839,3.788,9.494,8.403,13.951c4.561,4.417,9.018,7.038,13.21,8.089c0.588,0.121,2.828,0.431,4.282-1.418
		l2.837-3.65c1.364-1.813,4.673-2.971,7.909-1.127c1.804,1.041,5.032,3.088,7.056,4.61c2.146,1.616,6.54,5.364,6.554,5.378
		C113.917,94.431,114.398,97.089,112.975,99.894z"/>
	<g>
		<path class="st5" d="M78.032,33.413c0,0,37.386,1.5,36.835,39.698"/>
		<path class="st5" d="M80.941,43.482c0,0,24.251,1.199,23.883,24.837"/>
		<path class="st5" d="M83.911,53.262c0,0,10.931,1.187,11.39,11.842"/>
	</g>
</g>
</svg>
