<?xml version="1.0" encoding="utf-8"?>
<!-- Generator: Adobe Illustrator 24.2.3, SVG Export Plug-In . SVG Version: 6.00 Build 0)  -->
<svg version="1.1" id="Layer_1" xmlns="http://www.w3.org/2000/svg" xmlns:xlink="http://www.w3.org/1999/xlink" x="0px" y="0px"
	 viewBox="0 0 158 158" style="enable-background:new 0 0 158 158;" xml:space="preserve">
<style type="text/css">
	.st0{fill:none;stroke:#2D3E50;stroke-width:6;stroke-miterlimit:10;}
	.st1{fill:none;stroke:#2D3E50;stroke-width:6;stroke-linejoin:round;stroke-miterlimit:10;}
	.st2{fill-rule:evenodd;clip-rule:evenodd;fill:none;stroke:#2D3E50;stroke-width:6;stroke-linejoin:round;stroke-miterlimit:10;}
	.st3{fill-rule:evenodd;clip-rule:evenodd;fill:none;stroke:#2D3E50;stroke-width:6;stroke-miterlimit:10;}
	.st4{fill:#FFFFFF;stroke:#2D3E50;stroke-width:6;stroke-miterlimit:10;}
	.st5{fill:none;stroke:#2D3E50;stroke-width:6;stroke-linecap:round;stroke-linejoin:round;stroke-miterlimit:10;}
	.st6{fill:#2D3E50;}
	.st7{fill:none;stroke:#2D3E50;stroke-width:6;stroke-linecap:round;stroke-miterlimit:10;}
	.st8{fill:none;stroke:#2D3E50;stroke-width:6;stroke-miterlimit:10;stroke-dasharray:9;}
</style>
<path class="st2" d="M10.298,57.361l6.767-4.997c4.815-4.138,9.162-3.644,12.701,4.711c3.566,8.121,6.48,16.969,9.135,25.74
	c8.901,29.488,14.679,58.637,30.19,60.85c19.337,3.956,52.157-20.873,79.068-79.771c15.537-41.2-1.536-55.228-32.247-48.253
	c-12.962,5.544-22.825,14.939-25.714,33.08c5.856-1.9,11.894-3.54,15.746-1.666c2.959,1.44,5.133,4.966,5.307,8.243
	c0.123,2.319-0.849,4.908-1.467,7.125c-0.622,2.232-1.346,4.435-2.174,6.599c-3.149,8.224-7.183,16.136-10.879,20.066
	c-5.83,6.246-8.589,7.964-12.102,7.548c-6.065-0.052-11.192-28.395-16.188-60.251c-4.321-16.162-11.92-24.413-24.699-20.196
	C28.543,24.671,16.05,36.305,4,48.459L10.298,57.361z"/>
</svg>
