<?xml version="1.0" encoding="utf-8"?>
<!-- Generator: Adobe Illustrator 24.2.3, SVG Export Plug-In . SVG Version: 6.00 Build 0)  -->
<svg version="1.1" id="Layer_1" xmlns="http://www.w3.org/2000/svg" xmlns:xlink="http://www.w3.org/1999/xlink" x="0px" y="0px"
	 viewBox="0 0 158 158" style="enable-background:new 0 0 158 158;" xml:space="preserve">
<style type="text/css">
	.st0{fill:none;stroke:#2D3E50;stroke-width:6;stroke-miterlimit:10;}
	.st1{fill:none;stroke:#2D3E50;stroke-width:6;stroke-linejoin:round;stroke-miterlimit:10;}
	.st2{fill-rule:evenodd;clip-rule:evenodd;fill:none;stroke:#2D3E50;stroke-width:6;stroke-linejoin:round;stroke-miterlimit:10;}
	.st3{fill-rule:evenodd;clip-rule:evenodd;fill:none;stroke:#2D3E50;stroke-width:6;stroke-miterlimit:10;}
	.st4{fill:#FFFFFF;stroke:#2D3E50;stroke-width:6;stroke-miterlimit:10;}
	.st5{fill:none;stroke:#2D3E50;stroke-width:6;stroke-linecap:round;stroke-linejoin:round;stroke-miterlimit:10;}
	.st6{fill:#2D3E50;}
	.st7{fill:none;stroke:#2D3E50;stroke-width:6;stroke-linecap:round;stroke-miterlimit:10;}
	.st8{fill:none;stroke:#2D3E50;stroke-width:6;stroke-miterlimit:10;stroke-dasharray:9;}
</style>
<path class="st1" d="M144.75,78.57c-3.867,0.897-7.593,1.281-10.959,1.281c-18.925,0-33.506-13.213-33.506-36.196
	c0-11.264,4.356-17.122,10.516-17.122c5.858,0,9.771,5.255,9.771,15.921c0,6.064-1.63,12.709-2.83,16.641
	c0,0,5.835,10.174,21.778,7.052c3.389-7.518,5.229-17.254,5.229-25.795C144.75,17.37,133.034,4,111.558,4
	c-22.081,0-35,16.975-35,39.357c0,22.172,10.369,41.199,27.453,49.876c-7.186,14.371-16.328,27.042-25.865,36.58
	c-17.306-20.916-32.949-48.821-39.369-103.28H13.25c11.795,90.702,46.943,119.571,56.237,125.114
	c5.259,3.168,9.783,3.005,14.59,0.303c7.543-4.286,30.207-26.937,42.761-53.479c5.276-0.012,11.611-0.617,17.912-2.038V78.568V78.57
	z"/>
</svg>
