<?xml version="1.0" encoding="utf-8"?>
<!-- Generator: Adobe Illustrator 24.2.3, SVG Export Plug-In . SVG Version: 6.00 Build 0)  -->
<svg version="1.1" id="Layer_1" xmlns="http://www.w3.org/2000/svg" xmlns:xlink="http://www.w3.org/1999/xlink" x="0px" y="0px"
	 viewBox="0 0 158 158" style="enable-background:new 0 0 158 158;" xml:space="preserve">
<style type="text/css">
	.st0{fill:none;stroke:#2D3E50;stroke-width:6;stroke-miterlimit:10;}
	.st1{fill:none;stroke:#2D3E50;stroke-width:6;stroke-linejoin:round;stroke-miterlimit:10;}
	.st2{fill-rule:evenodd;clip-rule:evenodd;fill:none;stroke:#2D3E50;stroke-width:6;stroke-linejoin:round;stroke-miterlimit:10;}
	.st3{fill-rule:evenodd;clip-rule:evenodd;fill:none;stroke:#2D3E50;stroke-width:6;stroke-miterlimit:10;}
	.st4{fill:#FFFFFF;stroke:#2D3E50;stroke-width:6;stroke-miterlimit:10;}
	.st5{fill:none;stroke:#2D3E50;stroke-width:6;stroke-linecap:round;stroke-linejoin:round;stroke-miterlimit:10;}
	.st6{fill:#2D3E50;}
	.st7{fill:none;stroke:#2D3E50;stroke-width:6;stroke-linecap:round;stroke-miterlimit:10;}
	.st8{fill:none;stroke:#2D3E50;stroke-width:6;stroke-miterlimit:10;stroke-dasharray:9;}
</style>
<g>
	<path class="st1" d="M153.191,113.552c-1.193-3.023-3.642-5.821-5.637-8.182c-3.037-3.594-6.518-6.684-9.773-10.059l-0.155-0.156
		l-0.078-0.077l-0.079-0.078h-0.079c-3.331-3.176-5.441-5.311-6.325-6.404c-1.617-2.083-1.979-4.191-1.095-6.327
		c0.624-1.614,2.969-5.022,7.028-10.229c2.135-2.76,3.827-4.971,5.075-6.637c9.007-11.975,12.912-19.627,11.714-22.959
		c0,0-0.459-0.768-0.465-0.779c-1.245-2.083-5.494-1.577-7.443-1.556c-7.489,0.077-14.97,0.176-22.463,0.228
		c-1.742,0.012-3.062,0.196-4.217,1.699c-1.689,2.196-2.331,5.282-3.416,7.812c-1.259,2.935-2.655,5.811-4.181,8.616
		c-2.299,4.226-4.893,8.292-7.76,12.156c-1.308,1.763-5.28,7.984-8.072,7.359c-0.469-0.105-0.911-0.209-1.329-0.313
		c-3.147-0.782-2.921-7.503-2.945-9.823c-0.045-4.433,0.111-8.865,0.286-13.293c0.164-4.135,0.703-8.408-0.243-12.487
		c-0.238-1.027-0.585-2.059-1.261-2.868c-2.772-3.317-10.248-2.877-14.109-2.918c-4.421-0.047-8.906-0.013-13.302,0.524
		c-3.109,0.379-6.193,1.306-8.329,3.693c-0.937,1.146-1.068,1.771-0.391,1.874c9.151,1.391,9.123,10.836,9.157,18.322
		c0.018,3.981,0.816,17.717-5.438,17.524c-7.176-0.222-10.438-10.587-13.239-15.771c-1.839-3.403-3.573-6.864-5.198-10.374
		c-1.438-3.106-2.449-6.649-4.479-9.432c-2.81-3.852-9.06-2.58-13.167-2.55c-4.257,0.031-8.515,0.062-12.773,0.093
		c-1.658,0-3.707,0.194-4.623,1.791c-1.019,1.778,0.21,3.808,0.927,5.457c0.975,2.242,1.98,4.47,3.017,6.684
		c1.997,4.264,4.109,8.474,6.341,12.62c5.722,10.634,11.998,21.232,19.573,30.664c6.186,7.703,13.442,14.078,22.078,18.896
		c9.138,5.099,19.911,5.104,30.078,5.104c3.362-0.29,5.156-2.209,5.308-5.569c0.094-2.087,0.062-4.133,0.507-6.183
		c0.353-1.628,0.876-3.275,1.7-4.73c0.639-1.128,1.538-2.147,2.706-2.711c1.824-0.88,3.442-0.219,4.968,0.883
		c5.23,3.781,8.574,9.684,13.477,13.873c3.998,3.415,8.053,4.678,13.3,4.765c5.788,0.095,11.546-0.159,17.325-0.231
		c4.048-0.05,9.146-0.811,8.041-6.153C153.607,114.734,153.423,114.138,153.191,113.552z"/>
</g>
</svg>
