<?xml version="1.0" encoding="utf-8"?>
<!-- Generator: Adobe Illustrator 24.2.3, SVG Export Plug-In . SVG Version: 6.00 Build 0)  -->
<svg version="1.1" id="Layer_1" xmlns="http://www.w3.org/2000/svg" xmlns:xlink="http://www.w3.org/1999/xlink" x="0px" y="0px"
	 viewBox="0 0 158 158" style="enable-background:new 0 0 158 158;" xml:space="preserve">
<style type="text/css">
	.st0{fill:none;stroke:#2D3E50;stroke-width:6;stroke-miterlimit:10;}
	.st1{fill:none;stroke:#2D3E50;stroke-width:6;stroke-linejoin:round;stroke-miterlimit:10;}
	.st2{fill-rule:evenodd;clip-rule:evenodd;fill:none;stroke:#2D3E50;stroke-width:6;stroke-linejoin:round;stroke-miterlimit:10;}
	.st3{fill-rule:evenodd;clip-rule:evenodd;fill:none;stroke:#2D3E50;stroke-width:6;stroke-miterlimit:10;}
	.st4{fill:#FFFFFF;stroke:#2D3E50;stroke-width:6;stroke-miterlimit:10;}
	.st5{fill:none;stroke:#2D3E50;stroke-width:6;stroke-linecap:round;stroke-linejoin:round;stroke-miterlimit:10;}
	.st6{fill:#2D3E50;}
	.st7{fill:none;stroke:#2D3E50;stroke-width:6;stroke-linecap:round;stroke-miterlimit:10;}
	.st8{fill:none;stroke:#2D3E50;stroke-width:6;stroke-miterlimit:10;stroke-dasharray:9;}
</style>
<g id="logo_15_">
	<path class="st0" d="M111.323,58.76c1.163,0,0.499-2.979,0.499-2.979c-4.312-21.543-26.642-37.95-53.517-37.95
		C28.316,17.831,4,38.246,4,63.439c0,14.565,8.141,27.537,20.791,35.893l-3.149,12.596c-0.376,1.539,1.27,2.773,2.648,1.986
		l13.921-8.105c6.209,2.093,12.99,3.239,20.093,3.239c0.93,0,1.861-0.018,2.773-0.054c0,0,1.796-0.184,3.633-0.338 M40.322,56.085
		c-3.829,0-6.925-3.095-6.925-6.925s3.095-6.925,6.925-6.925c3.829,0,6.924,3.095,6.924,6.925S44.151,56.085,40.322,56.085z
		 M76.286,56.085c-3.829,0-6.924-3.095-6.924-6.925s3.095-6.925,6.924-6.925c3.829,0,6.925,3.095,6.925,6.925
		S80.115,56.085,76.286,56.085z"/>
	<path class="st0" d="M62.769,97.565c0,21.162,20.425,38.311,45.616,38.311c5.967,0,11.663-0.962,16.878-2.72l11.693,6.808
		c1.157,0.661,2.54-0.376,2.224-1.668l-2.645-10.581C147.161,120.696,154,109.799,154,97.565c0-21.162-20.425-38.311-45.615-38.311
		S62.769,76.403,62.769,97.565z M117.673,85.571c0-3.217,2.6-5.817,5.816-5.817c3.217,0,5.817,2.6,5.817,5.817
		s-2.6,5.817-5.817,5.817C120.273,91.388,117.673,88.788,117.673,85.571z M87.463,85.571c0-3.217,2.6-5.817,5.817-5.817
		c3.216,0,5.816,2.6,5.816,5.817s-2.6,5.817-5.816,5.817C90.063,91.388,87.463,88.788,87.463,85.571z"/>
</g>
</svg>
