<?xml version="1.0" encoding="utf-8"?>
<!-- Generator: Adobe Illustrator 24.2.3, SVG Export Plug-In . SVG Version: 6.00 Build 0)  -->
<svg version="1.1" id="Layer_1" xmlns="http://www.w3.org/2000/svg" xmlns:xlink="http://www.w3.org/1999/xlink" x="0px" y="0px"
	 viewBox="0 0 158 158" style="enable-background:new 0 0 158 158;" xml:space="preserve">
<style type="text/css">
	.st0{fill:none;stroke:#2D3E50;stroke-width:6;stroke-miterlimit:10;}
	.st1{fill:none;stroke:#2D3E50;stroke-width:6;stroke-linejoin:round;stroke-miterlimit:10;}
	.st2{fill-rule:evenodd;clip-rule:evenodd;fill:none;stroke:#2D3E50;stroke-width:6;stroke-linejoin:round;stroke-miterlimit:10;}
	.st3{fill-rule:evenodd;clip-rule:evenodd;fill:none;stroke:#2D3E50;stroke-width:6;stroke-miterlimit:10;}
	.st4{fill:#FFFFFF;stroke:#2D3E50;stroke-width:6;stroke-miterlimit:10;}
	.st5{fill:none;stroke:#2D3E50;stroke-width:6;stroke-linecap:round;stroke-linejoin:round;stroke-miterlimit:10;}
	.st6{fill:#2D3E50;}
	.st7{fill:none;stroke:#2D3E50;stroke-width:6;stroke-linecap:round;stroke-miterlimit:10;}
	.st8{fill:none;stroke:#2D3E50;stroke-width:6;stroke-miterlimit:10;stroke-dasharray:9;}
</style>
<g>
	<path class="st1" d="M79.792,4C39.098,4,5.991,37.107,5.991,77.804c0,13.387,3.549,26.288,10.316,37.655L4.406,154l40.729-11.029
		c10.633,5.662,22.506,8.634,34.657,8.634c40.694,0,73.802-33.107,73.802-73.801C153.594,37.107,120.485,4,79.792,4z"/>
	<path class="st1" d="M67.616,59.621c0,0,2.178,3.333,0,6.025c-2.179,2.692-3.973,4.741-3.973,4.741s-1.923,1.411,0,4.227
		c1.923,2.822,9.87,15,23.582,20.381c0,0,4.227,1.795,6.025-2.306l4.355-5.639c0,0,1.027-1.411,4.36,0
		c3.332,1.408,13.842,6.533,13.842,6.533s1.923,0.641,1.54,3.46c-0.385,2.822-1.41,13.716-16.535,14.87
		c0,0-14.612,0.514-31.018-12.178c-10.254-7.93-17.511-17.81-21.512-24.704c-0.267-0.459-0.519-0.903-0.756-1.336
		c-2.084-4.207-3.622-8.821-3.414-13.32c0-0.514,0.016-1.05,0.053-1.602c0.333-4.92,2.335-10.787,9.738-14.151
		c0,0,6.023-0.895,7.049,0L67.616,59.621z"/>
</g>
</svg>
