<?xml version="1.0" encoding="utf-8"?>
<!-- Generator: Adobe Illustrator 24.2.3, SVG Export Plug-In . SVG Version: 6.00 Build 0)  -->
<svg version="1.1" id="Layer_1" xmlns="http://www.w3.org/2000/svg" xmlns:xlink="http://www.w3.org/1999/xlink" x="0px" y="0px"
	 viewBox="0 0 158 158" style="enable-background:new 0 0 158 158;" xml:space="preserve">
<style type="text/css">
	.st0{fill:none;stroke:#2D3E50;stroke-width:6;stroke-miterlimit:10;}
	.st1{fill:none;stroke:#2D3E50;stroke-width:6;stroke-linejoin:round;stroke-miterlimit:10;}
	.st2{fill-rule:evenodd;clip-rule:evenodd;fill:none;stroke:#2D3E50;stroke-width:6;stroke-linejoin:round;stroke-miterlimit:10;}
	.st3{fill-rule:evenodd;clip-rule:evenodd;fill:none;stroke:#2D3E50;stroke-width:6;stroke-miterlimit:10;}
	.st4{fill:#FFFFFF;stroke:#2D3E50;stroke-width:6;stroke-miterlimit:10;}
	.st5{fill:none;stroke:#2D3E50;stroke-width:6;stroke-linecap:round;stroke-linejoin:round;stroke-miterlimit:10;}
	.st6{fill:#2D3E50;}
	.st7{fill:none;stroke:#2D3E50;stroke-width:6;stroke-linecap:round;stroke-miterlimit:10;}
	.st8{fill:none;stroke:#2D3E50;stroke-width:6;stroke-miterlimit:10;stroke-dasharray:9;}
</style>
<g>
	<path class="st0" d="M143.255,83.024c0.05-0.07,0.1-0.13,0.15-0.2c12.12-16.521,15.741-41.442,0-57.252
		c-15.731-15.811-41.252-15.811-56.992,0l-7.12,7.16l-7.12-7.16c-15.741-15.811-41.262-15.811-56.992,0
		C7.53,33.252,4,41.392,4,50.453c0,9.58,3.95,20.191,11.18,32.371c14.051,23.681,54.712,61.462,64.112,61.462
		c3.47,0,12.24-6.94,22.341-16.361"/>
	<circle class="st0" cx="123.359" cy="106.325" r="30.641"/>
	<g>
		<line class="st4" x1="123.359" y1="89.216" x2="123.359" y2="123.434"/>
		<line class="st4" x1="106.25" y1="106.325" x2="140.468" y2="106.325"/>
	</g>
</g>
</svg>
