<?xml version="1.0" encoding="utf-8"?>
<!-- Generator: Adobe Illustrator 24.2.3, SVG Export Plug-In . SVG Version: 6.00 Build 0)  -->
<svg version="1.1" id="Layer_1" xmlns="http://www.w3.org/2000/svg" xmlns:xlink="http://www.w3.org/1999/xlink" x="0px" y="0px"
	 viewBox="0 0 158 158" style="enable-background:new 0 0 158 158;" xml:space="preserve">
<style type="text/css">
	.st0{fill:none;stroke:#2D3E50;stroke-width:6;stroke-miterlimit:10;}
	.st1{fill:none;stroke:#2D3E50;stroke-width:6;stroke-linejoin:round;stroke-miterlimit:10;}
	.st2{fill-rule:evenodd;clip-rule:evenodd;fill:none;stroke:#2D3E50;stroke-width:6;stroke-linejoin:round;stroke-miterlimit:10;}
	.st3{fill-rule:evenodd;clip-rule:evenodd;fill:none;stroke:#2D3E50;stroke-width:6;stroke-miterlimit:10;}
	.st4{fill:#FFFFFF;stroke:#2D3E50;stroke-width:6;stroke-miterlimit:10;}
	.st5{fill:none;stroke:#2D3E50;stroke-width:6;stroke-linecap:round;stroke-linejoin:round;stroke-miterlimit:10;}
	.st6{fill:#2D3E50;}
	.st7{fill:none;stroke:#2D3E50;stroke-width:6;stroke-linecap:round;stroke-miterlimit:10;}
	.st8{fill:none;stroke:#2D3E50;stroke-width:6;stroke-miterlimit:10;stroke-dasharray:9;}
</style>
<g>
	<path class="st1" d="M26.796,33.627c-1.302,0-2.398,0.458-2.95,1.352c-0.57,0.923-0.484,2.113,0.124,3.318l14.627,25.321
		c0.025,0.048,0.025,0.079,0,0.123l-22.986,40.563c-0.599,1.194-0.57,2.393,0,3.319c0.552,0.89,1.525,1.475,2.828,1.475h21.633
		c3.234,0,4.795-2.183,5.9-4.178c0,0,22.48-39.757,23.355-41.301c-0.089-0.143-14.872-25.935-14.872-25.935
		c-1.079-1.918-2.704-4.058-6.022-4.058L26.796,33.627L26.796,33.627z"/>
	<path class="st1" d="M117.681,4.002c-3.232,0-4.632,2.035-5.792,4.121c0,0-46.605,82.65-48.141,85.364
		c0.079,0.147,30.738,56.393,30.738,56.393c1.074,1.919,2.731,4.12,6.045,4.12h21.607c1.303,0,2.322-0.49,2.871-1.382
		c0.578-0.923,0.561-2.143-0.044-3.344L94.467,93.553c-0.029-0.043-0.029-0.099,0-0.142l47.897-84.69
		c0.602-1.196,0.615-2.415,0.046-3.339C141.858,4.491,140.837,4,139.533,4h-21.854v0.001L117.681,4.002L117.681,4.002z"/>
</g>
</svg>
