<?xml version="1.0" encoding="utf-8"?>
<!-- Generator: Adobe Illustrator 24.2.3, SVG Export Plug-In . SVG Version: 6.00 Build 0)  -->
<svg version="1.1" id="Layer_1" xmlns="http://www.w3.org/2000/svg" xmlns:xlink="http://www.w3.org/1999/xlink" x="0px" y="0px"
	 viewBox="0 0 158 158" style="enable-background:new 0 0 158 158;" xml:space="preserve">
<style type="text/css">
	.st0{fill:none;stroke:#2D3E50;stroke-width:6;stroke-miterlimit:10;}
	.st1{fill:none;stroke:#2D3E50;stroke-width:6;stroke-linejoin:round;stroke-miterlimit:10;}
	.st2{fill-rule:evenodd;clip-rule:evenodd;fill:none;stroke:#2D3E50;stroke-width:6;stroke-linejoin:round;stroke-miterlimit:10;}
	.st3{fill-rule:evenodd;clip-rule:evenodd;fill:none;stroke:#2D3E50;stroke-width:6;stroke-miterlimit:10;}
	.st4{fill:#FFFFFF;stroke:#2D3E50;stroke-width:6;stroke-miterlimit:10;}
	.st5{fill:none;stroke:#2D3E50;stroke-width:6;stroke-linecap:round;stroke-linejoin:round;stroke-miterlimit:10;}
	.st6{fill:#2D3E50;}
	.st7{fill:none;stroke:#2D3E50;stroke-width:6;stroke-linecap:round;stroke-miterlimit:10;}
	.st8{fill:none;stroke:#2D3E50;stroke-width:6;stroke-miterlimit:10;stroke-dasharray:9;}
</style>
<g>
	<g>
		<path class="st3" d="M24.775,76.202c-2.455,3.904-3.49,16.208-2.632,24.372c0.296,2.692,0.769,4.939,1.508,6.27
			c0.946,1.863,2.603,2.958,4.466,3.017c1.184,0.089,1.952-0.119,24.461-7.365c0,0,9.997-3.194,10.056-3.224
			c2.484-0.621,4.171-2.928,4.318-5.857c0.177-3.017-1.39-5.649-3.934-6.625l-7.069-2.869C31.756,73.954,30.661,73.54,29.448,73.54
			C27.585,73.452,25.899,74.398,24.775,76.202z"/>
		<path class="st3" d="M78.902,150.589c0.384-1.154,0.443-1.923,0.502-25.585c0,0,0.059-10.47,0.059-10.559
			c0.148-2.573-1.508-4.88-4.2-5.945c-2.81-1.065-5.827-0.414-7.512,1.686l-4.939,5.857c-16.977,19.935-17.657,20.852-18.072,22.035
			c-0.266,0.68-0.354,1.42-0.266,2.159c0.089,1.065,0.562,2.1,1.36,3.076c3.934,4.674,22.774,11.594,28.808,10.589
			C76.743,153.517,78.251,152.334,78.902,150.589z"/>
		<path class="st3" d="M117.115,142.337c5.709-2.248,18.101-18.042,18.959-24.106c0.325-2.13-0.355-3.933-1.804-5.087
			c-0.947-0.739-1.686-1.006-24.194-8.4c0,0-9.879-3.253-9.997-3.313c-2.366-0.917-5.087-0.089-6.95,2.189
			c-1.893,2.336-2.189,5.383-0.651,7.72l3.963,6.448c13.369,21.71,14.375,23.248,15.35,23.987
			C113.271,142.929,115.164,143.136,117.115,142.337L117.115,142.337z"/>
		<path class="st3" d="M133.087,79.308c1.538-1.035,2.307-2.78,2.189-4.91c0-0.089,0-0.148,0-0.237
			c-0.651-6.27-11.654-22.597-17.096-25.259c-1.923-0.917-3.845-0.858-5.413,0.207c-1.006,0.651-21.62,28.779-21.68,28.867
			c-1.627,1.982-1.656,4.821-0.059,7.246c1.657,2.544,4.437,3.756,7.01,3.046C98.038,88.27,132.082,79.958,133.087,79.308z"/>
		<path class="st3" d="M79.819,65.377c-0.443-10.145-3.46-55.28-3.845-57.35c-0.503-1.922-1.982-3.253-4.111-3.786
			c-6.537-1.627-31.47,5.353-36.114,10.145c-1.479,1.538-2.041,3.46-1.568,5.147c0.71,1.478,31.618,50.133,31.618,50.133
			c4.584,7.395,8.311,6.271,9.524,5.857C76.535,75.167,80.262,74.014,79.819,65.377z"/>
	</g>
</g>
</svg>
