<svg width="46" height="32" viewBox="0 0 46 32" fill="none" xmlns="http://www.w3.org/2000/svg">
<path d="M45.9081 15.5489C41.9937 6.34547 33.0015 0.398438 23 0.398438C12.9985 0.398438 4.00649 6.34529 0.0919102 15.5489C-0.0306367 15.8369 -0.0306367 16.1622 0.0919102 16.4503C4.00622 25.6548 12.9983 31.6023 23 31.6023C33.0019 31.6023 41.994 25.6548 45.9081 16.4503C46.0306 16.1622 46.0306 15.8369 45.9081 15.5489ZM23 29.2992C14.088 29.2992 6.05933 24.0953 2.40862 15.9997C6.05942 7.90497 14.0883 2.70158 23 2.70158C31.9119 2.70158 39.9407 7.90497 43.5914 15.9995C39.9407 24.0951 31.912 29.2992 23 29.2992Z" fill="white"/>
<path d="M23 7.17993C18.1364 7.17993 14.1797 11.1367 14.1797 16.0003C14.1797 20.8638 18.1365 24.8206 23 24.8206C27.8635 24.8206 31.8203 20.8639 31.8203 16.0003C31.8203 11.1366 27.8635 7.17993 23 7.17993ZM23 22.5177C19.4064 22.5177 16.4827 19.594 16.4827 16.0004C16.4827 12.4069 19.4064 9.48317 23 9.48317C26.5936 9.48317 29.5173 12.4069 29.5173 16.0004C29.5173 19.594 26.5936 22.5177 23 22.5177Z" fill="white"/>
<path d="M22.9999 11.3176C20.4179 11.3176 18.317 13.4184 18.317 16.0006C18.317 16.6365 18.8325 17.1521 19.4685 17.1521C20.1046 17.1521 20.6201 16.6365 20.6201 16.0006C20.6201 14.6883 21.6876 13.6207 22.9999 13.6207C23.636 13.6207 24.1515 13.1051 24.1515 12.4692C24.1515 11.8331 23.6359 11.3176 22.9999 11.3176Z" fill="white"/>
</svg>
